<svg xmlns="http://www.w3.org/2000/svg" viewBox="0 0 432.39 419.83"><defs><style>.cls-1{fill:#455a64;}.cls-2{fill:#fff;}.cls-3{fill:#263238;}.cls-4{fill:#f7cbc1;}.cls-5{fill:#dd8e7c;}.cls-6{fill:#e0e0e0;}.cls-7{opacity:0.3;}.cls-8{fill:#407bff;}.cls-9{fill:#85b1ff;}.cls-10{fill:none;}</style></defs><title>31</title><g id="Слой_2" data-name="Слой 2"><g id="Слой_1-2" data-name="Слой 1"><path class="cls-1" d="M399.46,102.65a7.13,7.13,0,1,1-7.14-7.12,7.13,7.13,0,0,1,7.14,7.12Z"/><circle class="cls-1" cx="412.25" cy="88.35" r="7.13"/><ellipse class="cls-1" cx="412.32" cy="118.58" rx="7.13" ry="7.76" transform="translate(-0.17 0.58) rotate(-0.08)"/><path class="cls-1" d="M410.22,117.67c-.31.45-5.05-2.24-10.59-6s-9.79-7.19-9.49-7.64,5,2.25,10.59,6S410.52,117.22,410.22,117.67Z"/><path class="cls-1" d="M410.79,87.83c.33.43-3.33,3.82-8.18,7.58s-9,6.45-9.38,6,3.33-3.82,8.18-7.57S410.46,87.44,410.79,87.83Z"/><g id="freepik--Graphic--inject-19"><path class="cls-2" d="M359.5,38.59c.09.11-12.37,10.4-27.82,23s-28.06,22.67-28.15,22.56,12.36-10.39,27.82-23S359.4,38.48,359.5,38.59Z"/><path class="cls-2" d="M380,206.48c-.05.14-16.17-5.64-36-12.89s-35.91-13.25-35.82-13.38,16.17,5.63,36,12.89S380.1,206.35,380,206.48Z"/><path class="cls-2" d="M46.26,68c.07-.13,17.44,9,38.78,20.46s38.61,20.81,38.54,20.93-17.43-9-38.78-20.47S46.19,68.11,46.26,68Z"/><path class="cls-2" d="M52.52,216.44c0-.14,14.22-5.62,31.86-12.24s32-11.88,32.05-11.75-14.21,5.61-31.86,12.24S52.57,216.57,52.52,216.44Z"/><path class="cls-2" d="M221.76,246.49a86.82,86.82,0,1,1,86.81-86.83h0A86.93,86.93,0,0,1,221.76,246.49Zm0-172.63a85.82,85.82,0,1,0,85.81,85.83v0a85.91,85.91,0,0,0-85.81-85.84Z"/><path class="cls-2" d="M331.51,158.43s0-.6-.07-1.78c0-.59,0-1.32-.07-2.19s0-1.88-.15-3-.2-2.42-.31-3.83-.37-2.94-.58-4.61c-.47-3.32-1.19-7.13-2.23-11.36a110.48,110.48,0,0,0-4.5-13.83A105.45,105.45,0,0,0,316,102.39,111,111,0,0,0,288.1,71.26a107.85,107.85,0,0,0-20.93-12.51,106.73,106.73,0,0,0-25.2-8,111.29,111.29,0,0,0-42.92.49,117.56,117.56,0,0,0-14.64,4.18A109.79,109.79,0,0,0,133.5,93.6,108.61,108.61,0,0,0,124.57,108c-.63,1.28-1.34,2.52-1.9,3.83l-1.77,3.91c-1.06,2.67-2.15,5.34-3,8.09a106.07,106.07,0,0,0-4.17,17,118.18,118.18,0,0,0-1.44,17.62,119.65,119.65,0,0,0,1.43,17.63A106.08,106.08,0,0,0,117.89,193c.87,2.76,2,5.43,3,8.1l1.77,3.91c.56,1.32,1.28,2.56,1.91,3.83a107,107,0,0,0,8.92,14.38,109.84,109.84,0,0,0,50.92,38.19,116.91,116.91,0,0,0,14.69,4.14,111.29,111.29,0,0,0,42.92.49,109.64,109.64,0,0,0,46.08-20.47,111,111,0,0,0,27.84-31.15A105.45,105.45,0,0,0,323.57,199a109.24,109.24,0,0,0,4.5-13.78c1-4.23,1.76-8,2.23-11.35.21-1.67.44-3.2.58-4.61s.21-2.69.31-3.84.13-2.15.15-3,.05-1.6.07-2.19a17.2,17.2,0,0,1,.07-1.78v4a25.08,25.08,0,0,1-.13,3c-.13,1.11-.18,2.43-.28,3.84s-.35,3-.55,4.62c-.46,3.33-1.17,7.14-2.19,11.38a109.67,109.67,0,0,1-4.47,13.82,105,105,0,0,1-7.61,15.5,111.17,111.17,0,0,1-27.87,31.29,109.67,109.67,0,0,1-74.64,22.2A107.76,107.76,0,0,1,199,266a115.57,115.57,0,0,1-14.73-4.19,110.51,110.51,0,0,1-60.17-52.77c-.63-1.28-1.35-2.53-1.92-3.85s-1.18-2.62-1.78-3.93c-1.06-2.68-2.16-5.36-3-8.13a106.84,106.84,0,0,1-4.19-17,109.56,109.56,0,0,1,0-35.41,106.87,106.87,0,0,1,4.2-17c.87-2.77,2-5.45,3-8.13.6-1.31,1.19-2.62,1.78-3.93s1.28-2.56,1.92-3.85a110.6,110.6,0,0,1,60.16-52.76A117.63,117.63,0,0,1,199,50.83a112.17,112.17,0,0,1,43.09-.46A109.57,109.57,0,0,1,288.35,71a111.2,111.2,0,0,1,27.88,31.29,106.5,106.5,0,0,1,7.61,15.5,109.67,109.67,0,0,1,4.47,13.82c1,4.24,1.73,8.06,2.19,11.39.2,1.67.41,3.2.55,4.61s.2,2.7.28,3.85.12,2.15.13,3,0,1.6,0,2.19C331.52,157.83,331.51,158.43,331.51,158.43Z"/><path class="cls-2" d="M223.1,283.24v-1A126.34,126.34,0,1,0,96.73,155.9h-1c0-70.21,57.13-127.33,127.34-127.33a127.34,127.34,0,0,1,0,254.67Z"/><path class="cls-2" d="M221.77,270.67v-5a107.24,107.24,0,0,0,0-214.48v-5a112.24,112.24,0,1,1,0,224.48Z"/><path class="cls-2" d="M352.4,155.9h-5a124.34,124.34,0,0,0-248.67,0h-5a129.34,129.34,0,0,1,258.67,0Z"/><path class="cls-2" d="M224,302.45c-79.45,0-144.09-64.65-144.09-144.1S144.58,14.25,224,14.25v5c-76.69,0-139.09,62.4-139.09,139.1s62.4,139.1,139.09,139.1,139.07-62.4,139.07-139.1h5C368.1,237.83,303.49,302.45,224,302.45Z"/><path class="cls-2" d="M221.76,319.36h-2.51v-1h2.5Z"/><path class="cls-2" d="M209.1,318.83c-1.67-.13-3.37-.29-5-.48l.11-1c1.66.18,3.35.34,5,.47Zm-15-1.87c-1.67-.29-3.35-.61-5-.95l.21-1c1.62.34,3.28.66,4.94.95Zm-14.83-3.33c-1.61-.44-3.25-.92-4.86-1.42l.3-1c1.6.5,3.22,1,4.83,1.42Zm-14.45-4.74c-1.58-.6-3.16-1.24-4.72-1.89l.39-.92c1.54.65,3.12,1.28,4.69,1.88Zm-14-6.06c-1.51-.75-3-1.53-4.51-2.33l.47-.88c1.48.79,3,1.57,4.48,2.32Zm-13.29-7.41c-1.43-.89-2.87-1.81-4.26-2.74l.55-.84c1.39.93,2.82,1.85,4.24,2.73ZM125,286.79c-1.34-1-2.68-2.07-4-3.14l.64-.77c1.29,1.05,2.62,2.1,4,3.11ZM113.39,277c-1.25-1.15-2.48-2.33-3.67-3.5l.7-.71c1.18,1.16,2.41,2.33,3.65,3.48Zm-10.66-10.88c-1.12-1.26-2.24-2.54-3.32-3.83l.77-.64c1.07,1.28,2.18,2.56,3.3,3.81Zm-9.58-11.78c-1-1.37-2-2.75-2.94-4.13l.82-.56C92,251,93,252.4,94,253.75Zm-8.42-12.64c-.86-1.43-1.72-2.91-2.54-4.38l.91-.5c.81,1.46,1.66,2.92,2.51,4.35Zm-7.18-13.37c-.73-1.52-1.44-3.07-2.11-4.6l.92-.4c.66,1.52,1.37,3.06,2.09,4.57Zm-5.87-14c-.58-1.58-1.14-3.19-1.66-4.78l1-.32c.52,1.59,1.07,3.19,1.65,4.76Zm-4.52-14.51c-.42-1.63-.82-3.28-1.19-4.92l1-.22c.36,1.63.76,3.27,1.18,4.89ZM64.1,185c-.26-1.65-.5-3.34-.72-5l1-.12c.21,1.66.45,3.34.71,5Zm-1.71-15.14c-.11-1.67-.19-3.38-.24-5.06h1c0,1.67.13,3.36.24,5Zm.71-15.12h-1c.06-1.69.14-3.39.24-5.07l1,.07C63.27,151.34,63.2,153,63.1,154.71Zm1.18-15.06-1-.12c.21-1.67.45-3.36.71-5l1,.16c-.22,1.63-.46,3.3-.67,5Zm2.6-14.87-1-.22c.37-1.64.77-3.3,1.19-4.92l1,.25c-.39,1.61-.79,3.26-1.15,4.94Zm4-14.56-.95-.31c.53-1.6,1.09-3.21,1.66-4.8l.94.34c-.53,1.58-1.09,3.19-1.61,4.77Zm5.4-14.13-.92-.4c.68-1.54,1.39-3.09,2.11-4.62l.91.43C77.69,93,77,94.56,76.32,96.09ZM83,82.54l-.87-.48q1.23-2.22,2.54-4.4l.85.52c-.82,1.43-1.67,2.9-2.48,4.36Zm8-12.83-.83-.57c1-1.38,2-2.77,3-4.13l.8.59C93,67,92,68.33,91,69.71Zm9.15-12-.76-.65c1.08-1.28,2.2-2.57,3.32-3.83l.74.67c-1.09,1.23-2.2,2.51-3.28,3.79Zm10.25-11.1-.7-.71c1.19-1.17,2.43-2.35,3.66-3.5l.68.74c-1.21,1.12-2.43,2.29-3.62,3.45Zm11.25-10.07-.63-.78c1.3-1.06,2.64-2.11,4-3.13l.61.8c-1.34,1-2.67,2-4,3.09Zm12.14-9-.55-.83c1.38-.93,2.82-1.85,4.25-2.74l.53.85c-1.41.9-2.83,1.82-4.21,2.74Zm13-7.71-.47-.89c1.48-.79,3-1.57,4.49-2.32l.45.9C149.72,18.23,148.22,19,146.74,19.83Zm13.61-6.5-.39-.92c1.55-.65,3.13-1.29,4.69-1.88l.36.93c-1.55.56-3.12,1.19-4.66,1.84Zm14.17-5.17-.3-1c1.61-.5,3.25-1,4.86-1.43l.27,1c-1.61.38-3.25.85-4.83,1.35ZM189.1,4.34l-.2-1c1.65-.35,3.32-.67,5-1l.18,1C192.44,3.68,190.77,4,189.1,4.34ZM204,2l-.11-1c1.67-.19,3.37-.35,5-.48l.08,1c-1.59.13-3.28.35-4.94.48Z"/><path class="cls-2" d="M219.26,1V0h2.51V1Z"/></g><g id="freepik--Email--inject-19"><rect class="cls-2" x="377.39" y="192.13" width="54.46" height="36.71" transform="translate(-4.32 8.52) rotate(-1.2)"/><path class="cls-1" d="M431.62,192a3.31,3.31,0,0,1-.49.5l-1.49,1.36-5.54,5L405.66,215l-.15.13-.16-.12-.39-.3-19.71-15.16c-2.47-1.94-4.49-3.51-5.94-4.64-.66-.54-1.19-1-1.6-1.28a3.43,3.43,0,0,1-.53-.48,4.07,4.07,0,0,1,.59.4l1.66,1.2,6,4.52,19.8,15.05.39.3h-.31l18.53-16.08,5.64-4.82,1.55-1.29A4.94,4.94,0,0,1,431.62,192Z"/><path class="cls-1" d="M377.94,229.83c-.1-.09,3.89-5.2,8.91-11.43s9.19-11.2,9.3-11.11-3.88,5.2-8.91,11.43S378.1,230,377.94,229.83Z"/><path class="cls-1" d="M414.24,206.48c.1-.08,4.25,4.82,9.26,11s9,11.19,8.89,11.27-4.26-4.82-9.27-11S414.1,206.57,414.24,206.48Z"/></g><g id="freepik--Signal--inject-19"><path class="cls-2" d="M381.39,42.06a4.51,4.51,0,1,1-4.49-4.54,4.51,4.51,0,0,1,4.49,4.54Z"/><path class="cls-2" d="M367.86,36.26a12.49,12.49,0,0,1,17.65-.67c.15.14.3.28.44.43,2.31,2.32,5.91-1.25,3.61-3.58a17.65,17.65,0,0,0-24.95-.12l-.32.33C362,35,365.6,38.65,367.86,36.26Z"/><path class="cls-2" d="M352.53,15.25c6.86-5.94,15.05-9.67,24.23-9.69A36,36,0,0,1,401.48,15c2.38,2.23,6-1.33,3.6-3.58a41.27,41.27,0,0,0-28.3-11C366.22.44,356.84,4.78,349,11.6c-2.48,2.14,1.11,5.74,3.57,3.61Z"/><path class="cls-2" d="M358.58,26.89A24.84,24.84,0,0,1,393.66,25c.5.44,1,.91,1.44,1.4,2.28,2.34,5.88-1.23,3.6-3.57a29.89,29.89,0,0,0-42.26-.95c-.48.46-.95.94-1.4,1.43-2.22,2.4,1.34,6,3.57,3.61Z"/></g><g id="freepik--GPS--inject-19"><path class="cls-1" d="M42,209.58A21,21,0,1,0,2.88,220.19h0l.06.08c.81,1.36,1.82,2.33,2.84,3.76L18,240.19a3.79,3.79,0,0,0,5.31.74,3.71,3.71,0,0,0,.74-.74l12-15.9a46.85,46.85,0,0,0,3-4v-.06h0A20.83,20.83,0,0,0,42,209.58Zm-21,9.15a9.25,9.25,0,1,1,9.25-9.25A9.25,9.25,0,0,1,21,218.73h0Z"/></g><g id="freepik--Money--inject-19"><path class="cls-2" d="M57.75,51.73A27.72,27.72,0,1,1,28.2,26h.07A27.68,27.68,0,0,1,57.75,51.72Z"/><path class="cls-2" d="M51.1,51.51a12.11,12.11,0,0,1-.72-2.5,22.84,22.84,0,0,0-2.86-6.3,22.33,22.33,0,0,0-3-3.65,21.25,21.25,0,0,0-4.42-3.23,21.51,21.51,0,0,0-2.67-1.23,18.61,18.61,0,0,0-2.93-.87,20.74,20.74,0,0,0-6.39-.37,25.09,25.09,0,0,0-3.21.57,22.94,22.94,0,0,0-3,1,21.72,21.72,0,0,0-2.7,1.42,18.29,18.29,0,0,0-2.38,1.73,21.15,21.15,0,0,0-6,8.16A22,22,0,0,0,9.29,53a12.48,12.48,0,0,1-.23,2.59A6.27,6.27,0,0,1,8.66,53,19.41,19.41,0,0,1,9.8,45.84a20.93,20.93,0,0,1,2.3-4.46A21.18,21.18,0,0,1,15.91,37a20.27,20.27,0,0,1,2.52-1.9,19.73,19.73,0,0,1,2.9-1.56,20.54,20.54,0,0,1,3.22-1.14,22,22,0,0,1,7-.68,22.57,22.57,0,0,1,3.38.49,21.63,21.63,0,0,1,3.14,1,20.05,20.05,0,0,1,2.84,1.37,22.27,22.27,0,0,1,4.59,3.55,21.26,21.26,0,0,1,3.07,4,19.76,19.76,0,0,1,2.5,6.77A6,6,0,0,1,51.1,51.51Z"/><path class="cls-2" d="M9,55c.06,0,.13.92.45,2.56A21.33,21.33,0,0,0,12,64.05a22.45,22.45,0,0,0,2.92,3.87,22.31,22.31,0,0,0,4.35,3.45,21.38,21.38,0,0,0,5.65,2.35,22.49,22.49,0,0,0,6.54.61,22.72,22.72,0,0,0,6.4-1.46,21.26,21.26,0,0,0,5.29-3,20.79,20.79,0,0,0,6.25-8.21,21.45,21.45,0,0,0,1.69-6.86c.1-1.66,0-2.59.11-2.59a2.54,2.54,0,0,1,.06.67,15.54,15.54,0,0,1,0,1.93,20.58,20.58,0,0,1-1.52,7,22.23,22.23,0,0,1-2.38,4.33,23,23,0,0,1-3.9,4.11,21.88,21.88,0,0,1-5.37,3.13,21.15,21.15,0,0,1-13.26.88A21.84,21.84,0,0,1,19,71.83a21.93,21.93,0,0,1-4.41-3.56,22.1,22.1,0,0,1-2.93-4,20.51,20.51,0,0,1-2.42-6.69,16,16,0,0,1-.17-1.95A3,3,0,0,1,9,55Z"/></g><g id="freepik--Character--inject-19"><path class="cls-3" d="M43.35,357.9s6.71,4.34,9.81,4.19,15.29-15.26,15.29-15.26L62.1,342l-15.64,2.59-3.09,13.14"/><path class="cls-3" d="M176.38,136.29a31.14,31.14,0,0,1-7.07,28.9c-3.21,3.46-7.3,6.29-9.33,10.55-2.25,4.72-1.52,10.27-2.52,15.41s-5.36,10.6-10.36,9.36c4.74,7,11.94,12.11,19.66,15.62s16,5.57,24.23,7.62c4.58,1.13,9.52,2.25,13.9.49,5.67-2.27,8.49-8.5,10.76-14.17l19.78-49.41"/><path class="cls-4" d="M244.1,116.59a7.4,7.4,0,0,0-6.78-7.36l-34.87-16c-12.59-1.06-25.16,21.47-25.68,34.09-.58,14,1.24,30.88,3.12,41.29C183.67,189.55,197.8,190,197.8,190l1.2,33.88,43.76-.08Z"/><path class="cls-3" d="M186,144.07a2.7,2.7,0,0,0,2.66,2.66,2.58,2.58,0,0,0,2.72-2.43v-.06a2.69,2.69,0,0,0-2.65-2.66A2.57,2.57,0,0,0,186,144Z"/><path class="cls-3" d="M182.5,136.91c.29.25,2.41-.09,5.24.54s4.78,1.83,5.12,1.72c.16,0-.12-.45-1-1a13,13,0,0,0-4.07-1.6,11.64,11.64,0,0,0-4.2-.2C182.69,136.53,182.35,136.83,182.5,136.91Z"/><path class="cls-3" d="M213.29,142.67a2.71,2.71,0,0,0,2.66,2.67,2.58,2.58,0,0,0,2.72-2.43v-.06a2.7,2.7,0,0,0-2.65-2.67,2.59,2.59,0,0,0-2.73,2.44Z"/><path class="cls-3" d="M209.32,138.49c.42.1,2.25-1.37,5.27-2.25s5.53-.71,5.79-1-.35-.39-1.45-.48a13.72,13.72,0,0,0-4.72.56,12.09,12.09,0,0,0-4.11,2C209.31,138,209.1,138.46,209.32,138.49Z"/><path class="cls-3" d="M199.1,157.83c0-.17-1.8-.44-4.73-.75-.74-.06-1.44-.19-1.58-.7a3.83,3.83,0,0,1,.45-2.2c.66-1.81,1.35-3.7,2.07-5.69,2.87-8.09,4.93-14.73,4.6-14.85S197,140,194.12,148.09c-.68,2-1.34,3.9-2,5.71a4.27,4.27,0,0,0-.32,2.92,1.86,1.86,0,0,0,1.3,1.11,4.87,4.87,0,0,0,1.26.14C197.29,158,199.1,158,199.1,157.83Z"/><path class="cls-5" d="M197.8,190.19a53.53,53.53,0,0,0,28-8.1s-6.17,15.46-27.23,13.94Z"/><path class="cls-5" d="M199.75,164.88a7.78,7.78,0,0,1,5.49-3.81,3.31,3.31,0,0,1,3.31,1.75,5.23,5.23,0,0,1-.36,4.83,4.44,4.44,0,0,1-4.34,2.22,7.36,7.36,0,0,1-3.68-2.27,2.67,2.67,0,0,1-.76-1,1.74,1.74,0,0,1,.19-1.52"/><path class="cls-3" d="M207.7,159.67c-.48,0-.42,3.13-3.06,5.42s-6,2-6,2.46c0,.2.76.59,2.18.6a7.85,7.85,0,0,0,5-1.87,6.86,6.86,0,0,0,2.36-4.54C208.28,160.42,207.91,159.65,207.7,159.67Z"/><path class="cls-3" d="M207.1,124.72c.38.75,3.21,0,6.63,0s6.27.58,6.64-.18c.15-.36-.41-1-1.6-1.66a11.51,11.51,0,0,0-10.11.12C207.49,123.67,206.94,124.36,207.1,124.72Z"/><path class="cls-3" d="M179.87,133.4c.65.65,3.12-.1,6.1-.21s5.52.31,6.09-.4c.24-.34-.17-1-1.29-1.58a10.47,10.47,0,0,0-9.83.45C179.92,132.4,179.59,133.09,179.87,133.4Z"/><path class="cls-3" d="M265.59,168.48c-1.81-9.32-7.47-39.18-15.81-54.75s-17.87-21.72-27.13-24a21.19,21.19,0,0,0-20.16,5.1c-4.07,3.82-5.24,14.68-5.24,14.68s22.33,4.41,30.1,16.9c8.94,14.34,11.19,21.61,11.19,21.61l3,7.89s2.36,38.41,1.58,46L276.66,214C269.46,199.21,267.41,177.83,265.59,168.48Z"/><path class="cls-3" d="M198.62,109.34s-14.72-.76-19.08,13.69c-2,6.54-2.2,25.55-2.2,25.55s-3.15-15.07-2.67-23.58,4.47-19.34,10.84-25.44c6.19-5.93,11.47-8.77,22.8-8.35,0,0-1.62,3.22-4.41,7.58C202.5,101,200.3,101.22,198.62,109.34Z"/><path class="cls-4" d="M238.41,149.13c.13-4.66,5.12-7.88,9.2-5.64,2.24,1.22,4,3.75,3.91,8.7-.23,13.17-13.41,10.22-13.43,9.84C238.1,161.83,238.27,154.58,238.41,149.13Z"/><path class="cls-5" d="M242.2,157.11c.06,0,.23.17.62.35a2.3,2.3,0,0,0,1.71.07c1.4-.49,2.61-2.68,2.72-5a7.61,7.61,0,0,0-.59-3.3,2.62,2.62,0,0,0-1.69-1.79,1.16,1.16,0,0,0-1.37.6c-.18.37-.1.63-.17.65s-.28-.22-.16-.76a1.38,1.38,0,0,1,.53-.82,1.74,1.74,0,0,1,1.27-.31,3.21,3.21,0,0,1,2.37,2.08,7.82,7.82,0,0,1,.73,3.69c-.13,2.65-1.54,5.11-3.45,5.63a2.47,2.47,0,0,1-2.09-.39C242.22,157.43,242.16,157.13,242.2,157.11Z"/><path class="cls-1" d="M213.54,89.32c0,.1-1.5.42-3.78,1.43a18,18,0,0,0-7.4,6.08,33.23,33.23,0,0,0-4.26,8.71c-.8,2.37-1.2,3.88-1.29,3.85a4.88,4.88,0,0,1,.18-1.08c.14-.69.41-1.67.76-2.88a30.05,30.05,0,0,1,4.19-8.91,18.11,18.11,0,0,1,3.8-3.92,17.38,17.38,0,0,1,3.87-2.19,14.62,14.62,0,0,1,1.61-.57,8.74,8.74,0,0,1,1.24-.34A3.94,3.94,0,0,1,213.54,89.32Z"/><path class="cls-1" d="M259.75,191.31a1.39,1.39,0,0,1-.12-.28c-.08-.21-.17-.49-.3-.83a22.24,22.24,0,0,1-.86-3.3,44.22,44.22,0,0,1,0-12.48c.27-2.63.65-5.5.9-8.58a41.89,41.89,0,0,0-.19-9.82,29.56,29.56,0,0,0-3.7-10.13,41.9,41.9,0,0,0-7.25-9.1c-5.79-5.57-12.55-9.36-18.65-12.68s-11.74-6.18-16.2-9a117.36,117.36,0,0,1-10.21-7.21c-1.16-.92-2-1.66-2.62-2.16l-.67-.58c-.14-.14-.22-.21-.21-.22l.25.18c.18.14.41.31.69.54l2.69,2.08c2.34,1.78,5.79,4.29,10.28,7.06s10.06,5.64,16.23,8.91,12.92,7.09,18.78,12.73a42.92,42.92,0,0,1,7.34,9.21A30,30,0,0,1,259.66,156a41.76,41.76,0,0,1,.14,9.93c-.27,3.1-.67,6-1,8.57a46.12,46.12,0,0,0-.15,12.42,26.73,26.73,0,0,0,.76,3.3c.11.35.19.62.25.84A1.31,1.31,0,0,1,259.75,191.31Z"/><path class="cls-3" d="M48.21,341.2a2.67,2.67,0,0,1,.78-.5,14.3,14.3,0,0,1,2.35-1,16.43,16.43,0,0,1,8.35-.45A16.69,16.69,0,0,1,67.18,343a14.49,14.49,0,0,1,1.76,1.83c.38.48.55.76.52.78a27.72,27.72,0,0,0-2.52-2.32,17.17,17.17,0,0,0-15.49-3.2C49.41,340.63,48.25,341.29,48.21,341.2Z"/><path class="cls-3" d="M62.66,333.75a6.94,6.94,0,0,1,1.83,1.35A18.69,18.69,0,0,1,70,344.42a7.16,7.16,0,0,1,.31,2.25,31.5,31.5,0,0,0-2.83-7A32.31,32.31,0,0,0,62.66,333.75Z"/><path class="cls-3" d="M139,419.54s10.62-51.71,33.13-61.71l89.25-2.62s29.49,19.75,34.21,64.62Z"/><path class="cls-6" d="M198.24,199.28s2.63,16.55,20.29,14.55S243.1,202,243.1,202l24.54,7.87,3.86,47.47a209.75,209.75,0,0,0-23,87.85c-.2,5.13-.38,10.76-3.8,14.59-2.1,2.36-5.14,3.65-8.14,4.67a74.35,74.35,0,0,1-58.4-4.81s-7.5-81.22-6.58-83.52,13.2-70.63,13.2-70.63Z"/><path class="cls-1" d="M172.15,203s-15.6,1.1-19.78,3.19-58.87,70.7-61,71.75c-1.74.87-34.29,31.12-47.72,60.4-2.65,5.77-4.7,14-.34,19.46,0,0,15.68-19.69,25.1-11.05l42.12-42.69,44-25.66Z"/><g class="cls-7"><path d="M188.1,337.12c18.52-35.76,18.52-87.58,9.69-135.16l-7.92,67.61Z"/></g><path class="cls-1" d="M148.16,215.57l1.39,58s5.55,64.26,6.62,64.26,4.18,22.64,0,32.74-17.76,23.69-17.76,23.69l17.07,18.46s16-25.43,20.9-41.8,18.46-41.09,20.55-87.09S198.16,193,198.16,193l-13.42,9.72-12.9.27Z"/><path class="cls-3" d="M179.1,367.83a1.72,1.72,0,0,1,.14-.55c.14-.36.25-.91.45-1.6l1.69-6.17c1.42-5.37,3.43-13.16,5.29-22.91.93-4.87,1.82-10.24,2.43-16,.29-2.9.51-5.91.58-9a56.24,56.24,0,0,0-.52-9.53,29.17,29.17,0,0,0-1.15-4.8,49.91,49.91,0,0,0-1.71-4.79l-1-2.4-1.08-2.38c-.7-1.6-1.5-3.18-2.29-4.78-3.2-6.37-6.94-12.76-11-19.16-3.5-5.53-7.09-10.86-10.73-15.9l-.14-.2.19-.15,26.11-21.43.17.4-23,2.65-.46.05.29-.36c6.57-8,11.9-14.56,15.59-19.09l4.25-5.17,1.12-1.34c.26-.3.4-.44.4-.44l-.36.48-1.07,1.37-4.19,5.13L163.65,229l-.17-.3,23-2.73.77-.09-.6.49-26.08,21.5.05-.35c3.65,5.05,7.24,10.38,10.75,15.92,4,6.41,7.8,12.81,11,19.22.8,1.6,1.6,3.18,2.3,4.8l1.08,2.39,1,2.41c.68,1.59,1.18,3.22,1.72,4.82a30.1,30.1,0,0,1,1.15,4.88,56.14,56.14,0,0,1,.5,9.61c-.07,3.12-.3,6.14-.6,9.05-.63,5.82-1.54,11.19-2.49,16.07-1.92,9.76-4,17.54-5.46,22.9-.75,2.67-1.36,4.74-1.79,6.14-.22.68-.38,1.21-.5,1.59S179.1,367.83,179.1,367.83Z"/><path class="cls-1" d="M243.1,187.72S251.74,201,252.64,202c0,0,36.5,10.33,38.66,14.68,8.88,17.94,1.71,24.39,0,49.05C289.17,296.34,278.91,339,278.91,339s14.44,55.65,16,58.72-49.15,21.72-54.53,14.7-9.59-31.2-9.59-31.2-5-49.13-3.07-68.7,11-39.69,14.2-63.33C245.18,224.21,243.1,187.72,243.1,187.72Z"/><path class="cls-3" d="M229.55,324.83a3.59,3.59,0,0,1,.11-.72c.11-.51.25-1.19.42-2s.44-2,.71-3.21.83-2.62,1.32-4.15a98.63,98.63,0,0,1,11.32-22.43,143.69,143.69,0,0,1,15.86-19.53c2.25-2.31,4.15-4.1,5.5-5.3.67-.6,1.22-1,1.59-1.34a3.91,3.91,0,0,1,.6-.4s-3,2.62-7.42,7.29a156.22,156.22,0,0,0-15.69,19.57,104.67,104.67,0,0,0-11.42,22.22c-.5,1.52-1,2.89-1.38,4.11s-.57,2.29-.79,3.18-.39,1.5-.52,2A4.44,4.44,0,0,1,229.55,324.83Z"/><path class="cls-3" d="M252.6,202.58a3.44,3.44,0,0,1,.37.68c.24.5.56,1.17,1,2,.83,1.8,2,4.32,3.45,7.41.73,1.57,1.51,3.28,2.36,5.12l1.32,2.85c.44,1,.94,2,1.31,3.06,1.6,4.28,3.36,9,5.21,13.89l4.14,11.12.1.27-.28.06-9.75,2.11.14-.3,4.9,10.76c.55,1.26,1,2.27,1.33,3l.33.8a.92.92,0,0,1,.09.28,1.28,1.28,0,0,1-.15-.25l-.39-.77-1.43-2.95L261.59,251l-.12-.24.27-.06,9.73-2.17-.17.33-4.2-11.06c-1.83-4.93-3.57-9.62-5.16-13.89-.37-1.09-.86-2.08-1.3-3.07L259.36,218l-2.26-5.18c-1.37-3.11-2.5-5.65-3.3-7.46l-.87-2A5.48,5.48,0,0,1,252.6,202.58Z"/><path class="cls-1" d="M276.63,332.77s18.67,18.67,28.27,17.6S327,328.5,327,321.3s-9-53.62-9-53.62l3.73-17.47-35-.67-7,53.81Z"/><path class="cls-3" d="M299.34,208.05a1.36,1.36,0,0,1-.12.39l-.42,1.11-.7,1.8c-.31.7-.65,1.51-1.05,2.41-.81,1.81-1.87,4-3.2,6.48a89.14,89.14,0,0,1-5,8.15,96.33,96.33,0,0,1-16.57,18.52,82.63,82.63,0,0,1-11.9,8.64,48.19,48.19,0,0,1-14.64,5.87A33.38,33.38,0,0,1,230,261a27.7,27.7,0,0,1-6.93-3,25.2,25.2,0,0,1-5.53-4.66,57.45,57.45,0,0,1-7.35-11.1c-2-3.65-3.82-7.08-5.34-10.28a76.49,76.49,0,0,1-3.61-8.86,49.79,49.79,0,0,1-1.76-7A31.49,31.49,0,0,1,199,210a2.81,2.81,0,0,1,0,.41,8,8,0,0,0,.07,1.18,42.75,42.75,0,0,0,.57,4.51,50.44,50.44,0,0,0,1.84,6.95,79.44,79.44,0,0,0,3.66,8.79c1.54,3.18,3.38,6.59,5.39,10.23a57.05,57.05,0,0,0,7.32,11,25,25,0,0,0,5.44,4.55,27.35,27.35,0,0,0,6.81,2.92,33,33,0,0,0,15.49.36,48.06,48.06,0,0,0,14.49-5.8,83.75,83.75,0,0,0,11.85-8.56,97.41,97.41,0,0,0,16.57-18.37c2-2.9,3.66-5.65,5.06-8.08s2.43-4.63,3.27-6.42c.41-.9.77-1.7,1.09-2.39l.74-1.78.47-1.09A2.22,2.22,0,0,1,299.34,208.05Z"/><path class="cls-3" d="M292,209.33a5.17,5.17,0,0,1-.59.65l-1.74,1.78-6.52,6.47-9.63,9.6a39.59,39.59,0,0,1-6.32,5,18.65,18.65,0,0,1-8.16,2.91,14.38,14.38,0,0,1-8.49-1.63,10.25,10.25,0,0,1-4.87-6.35,27.83,27.83,0,0,1-.82-7.27c0-2.28.08-4.4.12-6.34a34.61,34.61,0,0,0-.64-9.08,13.72,13.72,0,0,0-.85-2.32,8.08,8.08,0,0,1-.35-.8,4.74,4.74,0,0,1,.44.75,11.43,11.43,0,0,1,.95,2.32,33,33,0,0,1,.82,9.14c0,1.94-.09,4.06-.06,6.33a28.11,28.11,0,0,0,.85,7.13,9.79,9.79,0,0,0,4.66,6,14,14,0,0,0,8.19,1.55,18.23,18.23,0,0,0,7.94-2.82,39.33,39.33,0,0,0,6.26-4.94c1.86-1.74,3.52-3.53,5.17-5.09s3.16-3.06,4.55-4.41l6.62-6.36,1.81-1.71A7,7,0,0,1,292,209.33Z"/><path class="cls-3" d="M159.51,345.26a1.31,1.31,0,0,1-.06-.27l-.12-.81c-.09-.75-.22-1.8-.39-3.12-.34-2.76-.82-6.67-1.41-11.49-1.18-9.7-2.85-23.11-4.42-37.94-.79-7.42-1.45-14.49-2-20.94s-.9-12.25-1.11-17.14c-.14-2.44-.21-4.65-.27-6.59s-.11-3.61-.11-5v-4a1.31,1.31,0,0,1,0-.28,1.22,1.22,0,0,1,0,.27,5.16,5.16,0,0,0,0,.82q0,1.14.12,3.15c0,1.36.1,3,.2,5s.19,4.15.34,6.58c.26,4.88.71,10.68,1.23,17.12s1.23,13.51,2,20.93c1.58,14.82,3.19,28.23,4.27,37.94.52,4.83,1,8.76,1.25,11.51.13,1.33.23,2.38.3,3.14a4.47,4.47,0,0,0,.06.81A.9.9,0,0,1,159.51,345.26Z"/><path class="cls-3" d="M321.81,250.21h-2.56l-7.18-.07-25.3-.38.24-.19c-1.42,7.51-2.57,16.07-3.46,25.12-1.58,16.61-2.24,31.71-3.05,42.62-.39,5.46-.76,9.87-1,12.91-.15,1.5-.28,2.67-.36,3.51-.05.37-.08.67-.11.91a1.57,1.57,0,0,1,0,.3,1.61,1.61,0,0,1,0-.31,6.47,6.47,0,0,1,0-.91c.07-.84.16-2,.27-3.51.23-3,.54-7.47.88-12.92.72-10.91,1.32-26,2.91-42.65.88-9.07,2.05-17.64,3.51-25.16v-.2h.2l25.29.57,7.19.2,1.9.07h.49C321.76,250.19,321.81,250.2,321.81,250.21Z"/><circle class="cls-6" cx="313.26" cy="260.15" r="2.74"/><path class="cls-3" d="M316,260.15c-.07-.21-.13-.43-.18-.65a2.8,2.8,0,0,0-1-1.39,2.57,2.57,0,0,0-2.4-.31,2.51,2.51,0,0,0,0,4.7,2.58,2.58,0,0,0,2.4-.32,2.75,2.75,0,0,0,1-1.39c.05-.22.11-.43.18-.64a1.37,1.37,0,0,1,0,.69,2.82,2.82,0,0,1-1,1.64,2.9,2.9,0,0,1-2.79.47,3,3,0,0,1,0-5.6,2.9,2.9,0,0,1,2.79.47,2.78,2.78,0,0,1,1,1.63C316.1,259.9,316,260.15,316,260.15Z"/><circle class="cls-6" cx="235.38" cy="344.49" r="2.74"/><path class="cls-3" d="M238.1,344.49s-.06-.24-.19-.64a2.8,2.8,0,0,0-1-1.39,2.52,2.52,0,1,0,0,4.07,2.8,2.8,0,0,0,1-1.39c.13-.4.14-.65.19-.65a1.38,1.38,0,0,1,0,.7,2.75,2.75,0,0,1-1,1.63,2.9,2.9,0,0,1-2.78.48,3,3,0,0,1,0-5.61,2.9,2.9,0,0,1,2.78.48,2.75,2.75,0,0,1,1,1.63A1.34,1.34,0,0,1,238.1,344.49Z"/><path class="cls-6" d="M243.79,386.24a2.75,2.75,0,1,1-2.75-2.75h0A2.75,2.75,0,0,1,243.79,386.24Z"/><path class="cls-3" d="M243.79,386.24s-.06-.25-.19-.65a2.7,2.7,0,0,0-1-1.39,2.53,2.53,0,1,0-3.06,4,2.64,2.64,0,0,0,.66.36,2.58,2.58,0,0,0,2.4-.32,2.64,2.64,0,0,0,1-1.39c.13-.4.14-.65.19-.64a1.34,1.34,0,0,1,0,.69,2.67,2.67,0,0,1-1,1.63A2.93,2.93,0,0,1,240,389a3,3,0,0,1,0-5.61,2.93,2.93,0,0,1,2.79.48,2.67,2.67,0,0,1,1,1.63A1.38,1.38,0,0,1,243.79,386.24Z"/><path class="cls-3" d="M318.1,267.68c0,.15-7.18-.07-16-.47s-16-.85-16-1,7.18.07,16,.48S318.1,267.54,318.1,267.68Z"/><path class="cls-6" d="M159.87,321.24l-10.32,4.12L127.1,269.18a25.84,25.84,0,1,0-48,19.17h0l22.45,56.18-10.32,4.13L68.77,292.48a36.94,36.94,0,0,1,68.61-27.42h0Z"/><path class="cls-3" d="M159.87,321.24l-.46-1.12-1.31-3.29-5-12.48c-2.18-5.42-4.85-12-7.94-19.72q-2.32-5.76-4.94-12.3c-1.83-4.31-3.31-9.11-6.15-13.47a36,36,0,0,0-11.55-11.29c-.61-.37-1.21-.75-1.83-1.1l-1.94-.95a36.44,36.44,0,0,0-4-1.63c-.69-.26-1.42-.4-2.13-.61a14.61,14.61,0,0,0-2.17-.53,34.24,34.24,0,0,0-4.5-.6,38.31,38.31,0,0,0-9.26.44l-2.31.54-1.16.27-1.14.38-2.28.79c-.75.29-1.47.66-2.21,1A36.62,36.62,0,0,0,68,289.08c1.1,3.48,2.6,6.91,4,10.4l17.25,43.16,2.36,5.89-.34-.14,10.32-4.13-.14.34C97,333.43,92.6,322.49,88.35,311.87l-6.26-15.7L79,288.52a28.14,28.14,0,0,1-1.83-7.94,26.25,26.25,0,0,1,3.67-15.2,18.41,18.41,0,0,1,1-1.64L83,262.2a28.62,28.62,0,0,1,5.62-5.09c.52-.36,1.07-.65,1.61-1l.8-.47.85-.39a26.08,26.08,0,0,1,7-2.22,27.47,27.47,0,0,1,7.13-.19,26.23,26.23,0,0,1,12.61,5,24.9,24.9,0,0,1,8.07,9.86c.21.47.43.94.64,1.4s.38.95.56,1.42l1.12,2.79q1.09,2.78,2.16,5.43L139,298.23c4.66,11.76,8.31,21,10.74,27.08l-.1-.05,7.8-3.07,1.91-.74.64-.24-.6.26c-.42.17-1,.42-1.88.77l-7.81,3.16h-.07v-.07c-2.46-6.1-6.15-15.28-10.87-27-2.36-5.87-5-12.38-7.82-19.47l-2.17-5.42c-.37-.92-.75-1.85-1.12-2.79l-.57-1.42c-.21-.46-.42-.92-.64-1.38a26.24,26.24,0,0,0-3.28-5.29,27.16,27.16,0,0,0-4.68-4.41A26,26,0,0,0,106,253.28a27.36,27.36,0,0,0-7,.2,26.21,26.21,0,0,0-6.85,2.19l-.83.38-.79.47c-.52.32-1.07.61-1.58,1a28.09,28.09,0,0,0-2.91,2.31,26.51,26.51,0,0,0-2.6,2.7L82.32,264a14.19,14.19,0,0,0-1,1.6,25.8,25.8,0,0,0-3.59,14.93,28.21,28.21,0,0,0,1.8,7.79c1,2.53,2,5.09,3.07,7.66l6.27,15.69L102,344.4l.1.24-.24.1c-3.36,1.33-6.81,2.72-10.32,4.12l-.25.1-.09-.24-2.36-5.9C82.89,328,77.13,313.6,71.56,299.66c-1.37-3.5-2.86-6.89-4-10.45a37.19,37.19,0,0,1,4.7-31,36.86,36.86,0,0,1,15.15-13.09c.76-.33,1.49-.7,2.25-1l2.3-.79c.39-.12.77-.27,1.15-.38l1.18-.27,2.34-.54a38.29,38.29,0,0,1,9.38-.44,34.65,34.65,0,0,1,4.54.62,20.72,20.72,0,0,1,2.2.53c.72.22,1.46.36,2.15.62a39.48,39.48,0,0,1,4.1,1.66l2,1c.62.35,1.23.75,1.84,1.11a36.37,36.37,0,0,1,11.65,11.44c2.86,4.43,4.33,9.25,6.15,13.58l4.92,12.36c3.06,7.71,5.69,14.35,7.85,19.78l4.93,12.48,1.28,3.24A9.27,9.27,0,0,0,159.87,321.24Z"/><rect class="cls-8" x="78.65" y="295.36" width="104.48" height="85.15" rx="10.01" transform="translate(-116.09 72.73) rotate(-21.79)"/><g class="cls-7"><rect x="78.65" y="295.36" width="104.48" height="85.15" rx="10.39" transform="translate(-116.09 72.73) rotate(-21.79)"/></g><rect class="cls-9" x="74.5" y="298.52" width="96.93" height="85.15" rx="9.98" transform="translate(-117.83 70.02) rotate(-21.79)"/><g class="cls-7"><path d="M132.67,329.14a11.89,11.89,0,1,0-9.83,16.19l5.39,13.5a3.25,3.25,0,0,0,4.22,1.8h0a3.24,3.24,0,0,0,1.81-4.21h0l-5.4-13.5A11.86,11.86,0,0,0,132.67,329.14Z"/></g><path class="cls-3" d="M180.84,355.21c-.14.05-5.69-13.7-12.4-30.71s-12.06-30.85-11.92-30.9,5.68,13.7,12.4,30.71S181,355.16,180.84,355.21Z"/><path class="cls-3" d="M131.83,344.06a19.08,19.08,0,0,0,2.82-3.75,14.49,14.49,0,0,0,1.6-4.79,13,13,0,0,0-3.65-11.35,14.36,14.36,0,0,0-4.08-3,20.11,20.11,0,0,0-4.48-1.41,5.48,5.48,0,0,1,1.28.08,12.22,12.22,0,0,1,3.35,1,14.34,14.34,0,0,1,4.27,3,13.23,13.23,0,0,1,3.78,11.77A14.06,14.06,0,0,1,135,340.5a12,12,0,0,1-2.15,2.76A4.76,4.76,0,0,1,131.83,344.06Z"/><path class="cls-2" d="M132.3,294.3c0,.13-12,5.24-26.81,11.41s-27,11.07-27,10.94,12-5.24,26.82-11.42S132.24,294.17,132.3,294.3Z"/><path class="cls-2" d="M112.61,344.06a2.87,2.87,0,0,1-.74-.51,11.59,11.59,0,0,1-1.68-1.75,13.29,13.29,0,0,1-1-15.13,11.48,11.48,0,0,1,1.45-1.95,2.68,2.68,0,0,1,.66-.6c.08.07-.83,1-1.79,2.73a13.7,13.7,0,0,0,.95,14.73C111.66,343.21,112.67,344,112.61,344.06Z"/><path class="cls-2" d="M119.1,347.54c0,.15-.78.14-1.69,0s-1.64-.39-1.61-.54.78-.13,1.69,0S119.1,347.4,119.1,347.54Z"/><path class="cls-2" d="M86.8,247.83c-.57.36-1.15.7-1.75,1a34.67,34.67,0,0,0-4.51,3.1,32.58,32.58,0,0,0-9.44,37.55c.49,1.2.8,1.85.76,1.87a2.07,2.07,0,0,1-.27-.45c-.16-.3-.42-.74-.68-1.34a29.35,29.35,0,0,1-1.82-5.22,31.51,31.51,0,0,1,11.25-32.72,29.42,29.42,0,0,1,4.64-3c.58-.31,1-.5,1.36-.64A3.53,3.53,0,0,1,86.8,247.83Z"/><path class="cls-2" d="M74.91,301.36a9.64,9.64,0,0,1-1.36-2.79,9.51,9.51,0,0,1-.88-3A9.15,9.15,0,0,1,74,298.36,9.51,9.51,0,0,1,74.91,301.36Z"/><g class="cls-7"><path d="M149.73,242.27c-4.49,12.85-2.27,27.3,2.73,40C152.46,282.23,149.85,255.72,149.73,242.27Z"/></g><g class="cls-7"><path d="M228.35,336.08c5-11.18,9.91-22.4,16.29-32.83s14-20.34,23.75-27.67l7.57-5.72s-1.32-2.5-2.62-4.57c-1.5-2.4-4-6.56-5.32-8.61l5.85,1.17s-4-9.22-3.89-8.6a79.05,79.05,0,0,1-7.93,1.63c2.05,4.9,4.23,9.33,6.28,14.23-11,8.75-20,19.76-27.54,31.4s-12.76,25.15-12.49,39"/></g><path class="cls-6" d="M249.26,160.59c.13-.11.44,0,.79.39a3.25,3.25,0,0,1,.68,2.12,4,4,0,0,1-.34,1.6,4.14,4.14,0,0,1-1.23,1.55,4.45,4.45,0,0,1-7.14-2.71,4,4,0,0,1,.91-3.4,3.26,3.26,0,0,1,1.91-1.13c.53-.07.82.06.86.23.08.36-.78.82-1.25,1.94a2.47,2.47,0,0,0-.1,1.81,2.29,2.29,0,0,0,2.84,1.56,2.11,2.11,0,0,0,.59-.27,2.44,2.44,0,0,0,1.13-1.41C249.29,161.72,249,160.83,249.26,160.59Z"/><path class="cls-4" d="M68.67,374.31s3.41,11,5.17,13.21,13.53,3.4,13.53,3.4Z"/><path class="cls-4" d="M82.77,356.83l6.53,5.24L108.68,377s-.12,3.6-4.48,2.78c-3.54-.67-11.39-5-11.39-5s9.22,8.66,9.54,12.71v.74a3.45,3.45,0,0,1-1,2.39h0l-10.77-7.19s2.31,4.06,4.58,8.27a5.19,5.19,0,0,1-.74,5.14h0l-24-20.13-.15-15,12.45-4.9"/><path class="cls-5" d="M80.22,366.23a3.09,3.09,0,0,1,.9.2c.28.1.61.25,1,.42s.79.42,1.25.68c1.82,1.08,4.13,2.83,6.69,4.75a59,59,0,0,0,6.75,4.54c1.83,1,3.07,1.38,3,1.47a3,3,0,0,1-.89-.2,9.19,9.19,0,0,1-1-.36,12.56,12.56,0,0,1-1.3-.58,45.68,45.68,0,0,1-6.91-4.45c-2.56-1.93-4.82-3.72-6.57-4.86L82,367.11l-.94-.49A3.87,3.87,0,0,1,80.22,366.23Z"/><path class="cls-5" d="M78,373.54a10.62,10.62,0,0,1,2.08,1.29c1.23.85,2.89,2.09,4.66,3.53s3.32,2.81,4.41,3.84A10.65,10.65,0,0,1,90.84,384a11.37,11.37,0,0,1-1.92-1.47l-4.49-3.72-4.55-3.64A12.15,12.15,0,0,1,78,373.54Z"/><path class="cls-4" d="M45.65,355.21c-.17.19.08.55.24.89,2.61,5.45,25,20.93,25,20.93L83.1,356.22s8.87,4.29,12.51,3.3c3-.82,8.64-1.43,6-6.69,0,0-12.51-2.3-16.76-4.13s-6.91-2.78-6.91-2.78a59,59,0,0,1-14.44-1.43S56,343.44,45.65,355.21Z"/><path class="cls-5" d="M93.85,396.36a26.14,26.14,0,0,1-2.83-2.2c-1.84-1.49-4.16-3.38-6.74-5.46s-5-4.11-6.64-5.59c-.83-.73-1.49-1.34-1.94-1.77a4,4,0,0,1-.66-.71,25.32,25.32,0,0,1,2.84,2.2l6.73,5.46c2.63,2.14,5,4.11,6.64,5.59.83.73,1.5,1.34,1.94,1.77A3.72,3.72,0,0,1,93.85,396.36Z"/><path class="cls-6" d="M303.72,174.51l7.71,1.21.93-5.89-3-.47.42-2.68-2.78-.44.37-2.35,3.21.5.32-2-5.14-.81.12-.77-.12.77h0l.12-.77a1.85,1.85,0,0,0-1.67-2,1.89,1.89,0,0,0-2,1.67q-2.23,14.29-4.49,28.57l-1.2,7.62a10,10,0,1,0,3.61.57q1.74-11,3.47-22h0Zm.43,33.29a7.43,7.43,0,1,1-6.19-8.5h0a7.44,7.44,0,0,1,6.19,8.51v0Z"/><path class="cls-10" d="M303.72,174.51l7.71,1.21.93-5.89-3-.47.42-2.68-2.78-.44.37-2.35,3.21.5.32-2-5.14-.81.12-.77-.12.77h0l.12-.77a1.85,1.85,0,0,0-1.67-2,1.89,1.89,0,0,0-2,1.67q-2.23,14.29-4.49,28.57l-1.2,7.62a10,10,0,1,0,3.61.57q1.74-11,3.47-22h0Zm.43,33.29a7.43,7.43,0,1,1-6.19-8.5h0a7.44,7.44,0,0,1,6.19,8.51v0Z"/><path class="cls-3" d="M304.15,207.83a9.77,9.77,0,0,0-.33-3.14,7.11,7.11,0,0,0-1.83-3.06,7.19,7.19,0,0,0-4.06-2.07l.13-.43h0l1.55.68-1.68-.25A7.19,7.19,0,0,0,290.45,210a7,7,0,0,0,2.9,3,7.22,7.22,0,0,0,6.9.09,7.52,7.52,0,0,0,3.3-3.5,17.5,17.5,0,0,0,.6-1.72,1.85,1.85,0,0,1,0,.47,6.72,6.72,0,0,1-.37,1.33,7.46,7.46,0,0,1-3.31,3.74,7.63,7.63,0,0,1-10.36-3l-.08-.15a7.66,7.66,0,0,1,8-11.09l-.13.43h0l-1.62-.74,1.75.31a7.57,7.57,0,0,1,4.26,2.26,7.44,7.44,0,0,1,1.82,3.25,7.64,7.64,0,0,1,.22,2.38A3.88,3.88,0,0,1,304.15,207.83Z"/><path class="cls-3" d="M303.72,174.51a4.94,4.94,0,0,1-.08.72h0c-.28,2.17-1.49,10.16-3.32,22l-.11-.2a10.05,10.05,0,1,1-4.79-.56c.37-.06.74-.07,1.1-.1l-.25.22c1.28-8.08,2.51-15.87,3.66-23.17.58-3.65,1.14-7.18,1.68-10.56.13-.85.27-1.68.4-2.51a2.11,2.11,0,0,1,1.85-1.79A2.06,2.06,0,0,1,306,159.9a2.15,2.15,0,0,1,0,1.28v.37h0l-.43-.06v-.2l.1-.58.42.07-.12.77-.18-.24,5.14.82h.2v.2c-.12.72-.22,1.38-.33,2v.19h-.19l-3.21-.52.21-.15c-.14.85-.26,1.61-.38,2.35l-.15-.2,2.79.45H310v.17c-.16,1-.3,1.84-.44,2.67l-.13-.18,3,.49h.14v.14c-.37,2.24-.71,4.2-1,5.89v.11h-.11l-5.69-1-1.49-.26-.51-.1h.48l1.47.21,5.78.84-.13.09c.26-1.69.55-3.65.89-5.89l.12.16-3-.45h-.15v-.15l.41-2.68.14.19-2.78-.43h-.18v-.17c.11-.75.23-1.51.36-2.36v-.18h.18l3.22.49-.23.16c.11-.65.21-1.31.32-2l.17.23-5.15-.8h-.21v-.21l.12-.78.42.07-.09.58v.2c-.86-.14-.23,0-.43-.08h0v-.36a1.74,1.74,0,0,0,0-1.06,1.61,1.61,0,0,0-1.67-1.05,1.66,1.66,0,0,0-1.45,1.42l-.39,2.5-1.65,10.57c-1.14,7.3-2.37,15.09-3.63,23.17v.2h-.22a4.18,4.18,0,0,0-1.05.09,9.52,9.52,0,1,0,4.59.39l-.14,0v-.15c1.9-11.84,3.21-19.82,3.6-22h0A5.3,5.3,0,0,0,303.72,174.51Z"/><path class="cls-4" d="M286.74,203.49l12.36-3.25,6.42.82a3.48,3.48,0,0,1,2.71,2l4.16,9.06s6,5,5.31,8S311.44,250,311.44,250l-16.57-.5a22.86,22.86,0,0,1-5-12.58c-.18-3.78,1.26-6.09.9-8.09-.24-1.37.61-3.81,1-5.69l.5-1.82-1.1.53a3.35,3.35,0,0,1-4.48-1.54,3.31,3.31,0,0,1-.3-1v-.29h0a7.53,7.53,0,0,1,2.25-5.76l6.25-6.14S288,211.13,286.74,203.49Z"/><path class="cls-5" d="M307.77,218.52a4.46,4.46,0,0,1-1.15-.13l-3.07-.55L299,217c-.85-.16-1.75-.39-2.66-.47a2.86,2.86,0,0,0-2.47.79,5.69,5.69,0,0,0-1,2.56c-.2.93-.39,1.82-.57,2.68a28.69,28.69,0,0,0-.81,4.5,3.11,3.11,0,0,0,1.19,2.61,3.29,3.29,0,0,0,1,.43.51.51,0,0,1-.3,0,1.75,1.75,0,0,1-.83-.28A3.24,3.24,0,0,1,291.1,227a24.81,24.81,0,0,1,.7-4.61c.17-.86.35-1.76.54-2.68a6,6,0,0,1,1.16-2.81,3.35,3.35,0,0,1,2.9-.94,25,25,0,0,1,2.72.5l4.52,1,3,.71A4.87,4.87,0,0,1,307.77,218.52Z"/><path class="cls-5" d="M301.33,232.2a1.4,1.4,0,0,1-.63,1,2.28,2.28,0,0,1-1.37.39,6.52,6.52,0,0,1-1.81-.35,7,7,0,0,1-3.95-2.68,6.27,6.27,0,0,1-.08-5.79,11.32,11.32,0,0,1,1.54-2.65,2.94,2.94,0,0,1,1.25-.89,3.14,3.14,0,0,1,1.46-.1,22.65,22.65,0,0,1,4.54,1.45,25.36,25.36,0,0,1,2.85,1.44,4,4,0,0,1,1,.67c0,.08-1.46-.8-3.95-1.77a24.82,24.82,0,0,0-4.46-1.32,2.74,2.74,0,0,0-1.24.1,2.5,2.5,0,0,0-1,.76A10.61,10.61,0,0,0,294,225a5.83,5.83,0,0,0,0,5.33,8.24,8.24,0,0,0,5.36,3,2.19,2.19,0,0,0,1.25-.27A2,2,0,0,0,301.33,232.2Z"/><path class="cls-5" d="M301.17,230.4c0,.06-.29.23-.85.29a3.78,3.78,0,0,1-3.67-1.9c-.27-.48-.31-.83-.25-.85a6.12,6.12,0,0,0,2.05,1.88A8,8,0,0,0,301.17,230.4Z"/><path class="cls-5" d="M302.37,233.75c-.08.11-.86-.35-1.42-1.28s-.63-1.84-.49-1.85.42.74.93,1.58S302.47,233.63,302.37,233.75Z"/><path class="cls-5" d="M302,242.92a9.62,9.62,0,0,1,.29-9,32.06,32.06,0,0,0-.74,4.47A31.31,31.31,0,0,0,302,242.92Z"/><path class="cls-5" d="M301.73,234.73a11.77,11.77,0,0,0-6.5,6.35,2.89,2.89,0,0,1,.32-1.38,8.81,8.81,0,0,1,1.92-2.83,8.63,8.63,0,0,1,2.87-1.85A2.68,2.68,0,0,1,301.73,234.73Z"/><path class="cls-5" d="M296.65,214.14c.15,0,.23.51.06,1.09s-.5,1-.63.9,0-.52.13-1S296.51,214.13,296.65,214.14Z"/><path class="cls-5" d="M311.35,214.32a14.65,14.65,0,0,1-2.47-1.32c-1.5-.86-3.54-2.09-5.77-3.48a19.55,19.55,0,0,0-3.24-1.69,7.29,7.29,0,0,0-2.88-.5,6.78,6.78,0,0,0-2.61.72,1.93,1.93,0,0,1,.59-.48,4.71,4.71,0,0,1,2-.61,7.24,7.24,0,0,1,3.06.42,17,17,0,0,1,3.35,1.7c2.24,1.38,4.25,2.66,5.69,3.61A15.25,15.25,0,0,1,311.35,214.32Z"/><path class="cls-3" d="M303.71,174.83a45.09,45.09,0,0,1,.74-6.76,42.07,42.07,0,0,1,1.26-6.68,45.09,45.09,0,0,1-.74,6.76A44.44,44.44,0,0,1,303.71,174.83Z"/><g class="cls-7"><path d="M305.71,161.73a16.17,16.17,0,0,1-1.93,12.44c.72-3.65,1.44-8.59,1.93-12.44"/></g></g><path class="cls-3" d="M45.44,54.34a4,4,0,0,1-.12-1,7,7,0,0,0-.13-1.21,12.25,12.25,0,0,0-.31-1.58,14.74,14.74,0,0,0-1.67-4.07A15.49,15.49,0,0,0,25,39.7a14.34,14.34,0,0,0-3.91,2,16.86,16.86,0,0,0-1.75,1.41,16.52,16.52,0,0,0-1.54,1.7,14.81,14.81,0,0,0-.43,17.74,17.74,17.74,0,0,0,1.44,1.8,17,17,0,0,0,1.69,1.49A14.27,14.27,0,0,0,24.25,68,15.55,15.55,0,0,0,42.83,62a14.7,14.7,0,0,0,1.87-4,13.68,13.68,0,0,0,.39-1.56,8.92,8.92,0,0,0,.19-1.17,4,4,0,0,1,.16-1,4.1,4.1,0,0,1,0,1,7,7,0,0,1-.11,1.2A10,10,0,0,1,45,58.13a14.27,14.27,0,0,1-1.78,4.15A15.87,15.87,0,0,1,32.36,69.5,16.39,16.39,0,0,1,24,68.66a15.62,15.62,0,0,1-4-2.24,19.15,19.15,0,0,1-1.79-1.57A17.31,17.31,0,0,1,16.62,63a15.53,15.53,0,0,1,.46-18.71,17.32,17.32,0,0,1,1.62-1.8A16.65,16.65,0,0,1,20.57,41a14.81,14.81,0,0,1,4.12-2,16,16,0,0,1,15.06,2.71,15.66,15.66,0,0,1,3.87,4.59,14.59,14.59,0,0,1,1.58,4.21,11.24,11.24,0,0,1,.24,1.63,6.89,6.89,0,0,1,.05,1.2A4.62,4.62,0,0,1,45.44,54.34Z"/><path class="cls-3" d="M42.31,44.7s-.25.29-.79.69l-1,.71c-.2.14-.41.29-.64.43l-.78.4a17.85,17.85,0,0,1-9.19,2.28l-1.39-.06-1.34-.21c-.22,0-.44-.06-.65-.11l-.61-.16c-.41-.11-.82-.2-1.22-.33a20,20,0,0,1-3.91-1.77,9.31,9.31,0,0,1-3.05-2.46c.07,0,1.22.86,3.34,1.94a24.37,24.37,0,0,0,3.87,1.54l1.16.28.61.15.61.09,1.28.19,1.33.05a19.45,19.45,0,0,0,8.9-2l.77-.33.67-.37,1.06-.6C41.93,44.8,42.27,44.65,42.31,44.7Z"/><path class="cls-3" d="M17.27,63.45c0-.05.25-.29.8-.69l1-.74c.2-.13.41-.28.64-.42l.77-.4a17.92,17.92,0,0,1,9.2-2.29l1.4.06,1.33.21c.22,0,.44.06.66.11l.61.16,1.22.33a20.58,20.58,0,0,1,3.9,1.8A9.78,9.78,0,0,1,41.85,64c-.06.06-1.22-.85-3.33-1.93a24.14,24.14,0,0,0-3.84-1.56l-1.16-.28-.61-.15L32.3,60,31,59.85l-1.32-.06a19.47,19.47,0,0,0-8.91,2l-.78.33-.66.37-1.07.6C17.66,63.35,17.31,63.5,17.27,63.45Z"/><path class="cls-3" d="M45.43,54.69c0,.24-7,.26-15.65.05S14.14,54.2,14.14,54s7-.26,15.65-.05S45.43,54.46,45.43,54.69Z"/><path class="cls-3" d="M29.06,69.36c-.24,0-.25-6.9,0-15.42s.58-15.41.82-15.37.25,6.91,0,15.42S29.3,69.37,29.06,69.36Z"/><path class="cls-3" d="M29.06,69.34c0,.09-1.78-1.06-3.77-3.67a20.51,20.51,0,0,1-2.79-5,18.27,18.27,0,0,1-1.22-6.9,17.59,17.59,0,0,1,1.58-6.84,21.08,21.08,0,0,1,3.05-4.85c2.11-2.52,3.85-3.61,3.91-3.54a51.12,51.12,0,0,0-3.43,3.91,23.37,23.37,0,0,0-2.81,4.81,17.37,17.37,0,0,0-1.44,6.54,18.61,18.61,0,0,0,1.09,6.61,22.38,22.38,0,0,0,2.55,4.93C27.6,68,29.15,69.24,29.06,69.34Z"/><path class="cls-3" d="M30.17,38.57c.06-.09,1.78,1.06,3.77,3.67a20.16,20.16,0,0,1,2.8,5A18.36,18.36,0,0,1,38,54.15,17.42,17.42,0,0,1,36.38,61a21.17,21.17,0,0,1-3.05,4.85c-2.1,2.51-3.84,3.61-3.9,3.53s1.49-1.36,3.43-3.9a22.71,22.71,0,0,0,2.8-4.81,17.67,17.67,0,0,0,1.45-6.55A18.7,18.7,0,0,0,36,47.49a22.31,22.31,0,0,0-2.55-4.92A38.38,38.38,0,0,0,30.17,38.57Z"/></g></g></svg>