<svg xmlns="http://www.w3.org/2000/svg" viewBox="0 0 258.42 322.74"><defs><style>.cls-1{opacity:0.8;}.cls-2,.cls-3{fill:#fff;}.cls-2{fill-rule:evenodd;}.cls-4{fill:#e0e0e0;}.cls-5{fill:#263238;}.cls-6{fill:#455a64;}.cls-7{fill:#f5f5f5;}.cls-8{fill:#ebebeb;}.cls-9{fill:#ffbe9d;}.cls-10{fill:#eb996e;}.cls-11{opacity:0.3;}.cls-12{fill:#fafafa;}</style></defs><title>32</title><g id="Слой_2" data-name="Слой 2"><g id="Слой_1-2" data-name="Слой 1"><g class="cls-1"><path class="cls-2" d="M247.47,211.34a43.94,43.94,0,0,1-4.69,10.58l5.51,9.21-12.84,12.26-8.95-5.94a43,43,0,0,1-10.79,4.19l-2.62,10.45-17.75-.42-2.12-10.58a43.08,43.08,0,0,1-10.59-4.69l-9.21,5.51-12.26-12.82,5.94-8.94a43.11,43.11,0,0,1-4.18-10.8l-10.41-2.61.42-17.76,10.52-2.12a43.31,43.31,0,0,1,4.68-10.58l-5.51-9.19,12.85-12.25,8.94,5.94a43.37,43.37,0,0,1,10.8-4.19l2.61-10.4,17.76.42,2.12,10.48a44.19,44.19,0,0,1,10.59,4.69l9.21-5.51,12.25,12.82-5.91,9a44.2,44.2,0,0,1,4.18,10.8l10.4,2.61L258,209.25l-10.51,2.13Zm-23-11A19.05,19.05,0,1,0,205,218.93h0a19,19,0,0,0,19.49-18.48v-.1Z"/></g><path class="cls-3" d="M176.55,81.73a5.12,5.12,0,0,1-.16,1.56,6.43,6.43,0,0,1-7.89,4.52c-.22-.06-.43-.13-.64-.21a6,6,0,0,1-1.63-.92,5.83,5.83,0,0,1-1.35-1.41,6.47,6.47,0,0,1,.18-7.7,6.23,6.23,0,0,1,1.42-1.34,5.83,5.83,0,0,1,1.67-.84,6.4,6.4,0,0,1,8.31,4.74,5.17,5.17,0,0,1,.09,1.57c-.05-.52-.13-1-.23-1.54a6.32,6.32,0,0,0-2.23-3.46,6.23,6.23,0,0,0-5.84-1,5.85,5.85,0,0,0-1.57.81,6,6,0,0,0-1.34,1.28,6.12,6.12,0,0,0-.17,7.28,6,6,0,0,0,1.27,1.34,6.22,6.22,0,0,0,9.63-2.67,4.56,4.56,0,0,0,.18-.52A14.9,14.9,0,0,0,176.55,81.73Z"/><path class="cls-3" d="M184.2,85.38l.21-.06.66-.14,2.61-.56h0c0-1.51.06-3.5.1-5.9l.07.09L184.39,78h-.06v-.07a15.13,15.13,0,0,0-1.39-3.56V74.2l2-3v.16l-4.08-4.26H181L178,68.94h-.15a14.32,14.32,0,0,0-3.49-1.54h-.09v-.1l-.71-3.49.16.13-5.91-.13.17-.13-.87,3.46v.1H167a13.61,13.61,0,0,0-3.54,1.37l-.1,0-.08-.06c-.94-.61-1.95-1.29-3-2h.22l-4.27,4.08v-.22L158,73.6l.06.1-.06.09a14.76,14.76,0,0,0-1.54,3.47h0l-.13.12h-.44l-.39.22-.88.18-1.74.35L153,78q-.06,3-.14,5.9l-.13-.18,3.46.87h.1v.11a13.61,13.61,0,0,0,1.37,3.54l.05.1-.06.09-2,3v-.22l4.08,4.28h-.21l3.07-1.83h.17a14.22,14.22,0,0,0,3.47,1.55h.1v.09l.7,3.5-.15-.12,5.91.15-.14.11.88-3.46v-.08h.07A14.88,14.88,0,0,0,177.15,94h.12l3,2h-.14l4.3-4V92L182.62,89h0a15.59,15.59,0,0,0,1.28-2.59c.11-.29.19-.51.24-.68a.85.85,0,0,1,.09-.22l-.06.23q-.06.22-.21.69A14,14,0,0,1,182.72,89V89l1.85,3V92h0l-4.26,4.1-.06.06-.07-.05-3-2h.12a14.21,14.21,0,0,1-3.59,1.47l.1-.09c-.28,1.1-.56,2.25-.86,3.46v.11h-.11L166.88,99h-.12v-.12c-.23-1.14-.47-2.3-.71-3.5l.11.12a14.42,14.42,0,0,1-3.57-1.57h.17l-3.06,1.84-.11.07-.1-.1-4.08-4.27-.09-.1.07-.11,2-3v.18A14.32,14.32,0,0,1,156,84.76l.13.13L152.65,84h-.14v-.15c.05-1.94.09-3.91.14-5.9v-.15h.15l1.74-.35.88-.18.44-.08.22,0h.21c-.27.25-.07.07-.14.12h0a14.51,14.51,0,0,1,1.57-3.56v.19l-1.83-3.07-.07-.12.1-.1,4.28-4.08.1-.09.12.07c1,.69,2,1.36,3,2h-.18a14.29,14.29,0,0,1,3.63-1.4l-.12.13.87-3.46v-.14h.14l5.9.14h.13v.12c.24,1.22.48,2.42.7,3.5l-.11-.12a14.93,14.93,0,0,1,3.56,1.58h-.16l3.07-1.82L181,67l.07.08,4.07,4.28.07.08v.08l-2,3v-.12A14.73,14.73,0,0,1,184.55,78l-.08-.07,3.46.88H188v.07c-.07,2.4-.13,4.39-.18,5.9v0h0l-2.6.49-.68.13Z"/><g class="cls-1"><path class="cls-2" d="M240,42.84a28.41,28.41,0,0,1-3.08,7l3.63,6.06L232.13,64l-5.88-3.91a28.25,28.25,0,0,1-7.1,2.75l-1.69,6.79-11.68-.28-1.4-6.92a28.41,28.41,0,0,1-7-3.08L191.32,63l-8.06-8.46,3.91-5.88a28.25,28.25,0,0,1-2.75-7.1l-6.85-1.72.28-11.68,6.91-1.4a28.44,28.44,0,0,1,3.09-7l-3.63-6.06,8.46-8,5.88,4a28.25,28.25,0,0,1,7.1-2.75L207.38,0l11.68.28,1.4,6.91a28.44,28.44,0,0,1,7,3.09l6-3.68,8.06,8.45-3.91,5.89a28.25,28.25,0,0,1,2.75,7.1l6.85,1.72-.28,11.68L240,42.84ZM224.92,35.6A12.53,12.53,0,1,0,212.1,47.83h0A12.53,12.53,0,0,0,224.92,35.6Z"/></g><path class="cls-4" d="M37.76,282.25a7.09,7.09,0,0,0,.52-1.51c.29-1,.67-2.4,1.11-4.17.89-3.54,2-8.47,3.1-13.91s2.28-10.34,3.22-13.86c.46-1.76.86-3.18,1.14-4.16a6.64,6.64,0,0,0,.36-1.54,7.4,7.4,0,0,0-.61,1.46c-.36,1-.82,2.36-1.34,4.11-1.06,3.5-2.27,8.4-3.42,13.85s-2.13,10.23-2.91,14c-.36,1.67-.66,3.09-.9,4.22A7,7,0,0,0,37.76,282.25Z"/><rect class="cls-5" x="64.69" y="192.86" width="106.5" height="129.87"/><rect class="cls-6" x="49.13" y="216.23" width="116.43" height="28.89"/><rect class="cls-5" x="54.3" y="222.18" width="22.92" height="3.53"/><rect class="cls-5" x="54.3" y="228.25" width="22.92" height="3.53"/><rect class="cls-5" x="54.3" y="234.53" width="22.92" height="3.53"/><path class="cls-5" d="M86.29,224.31A1.32,1.32,0,1,1,85,223h0A1.33,1.33,0,0,1,86.29,224.31Z"/><path class="cls-5" d="M92.1,224.31A1.32,1.32,0,1,1,90.77,223h0A1.33,1.33,0,0,1,92.1,224.31Z"/><path class="cls-5" d="M97.9,224.31A1.32,1.32,0,1,1,96.57,223h0A1.33,1.33,0,0,1,97.9,224.31Z"/><path class="cls-5" d="M103.7,224.31a1.32,1.32,0,1,1-1.33-1.31h0A1.33,1.33,0,0,1,103.7,224.31Z"/><path class="cls-5" d="M148.67,224.31a1.32,1.32,0,1,1-1.33-1.31h0A1.33,1.33,0,0,1,148.67,224.31Z"/><path class="cls-5" d="M154.59,224.31a1.32,1.32,0,1,1-1.33-1.31h0A1.33,1.33,0,0,1,154.59,224.31Z"/><path class="cls-5" d="M109.51,224.31a1.32,1.32,0,1,1-1.33-1.31h0A1.33,1.33,0,0,1,109.51,224.31Z"/><path class="cls-5" d="M138,224.31a1.32,1.32,0,1,1-1.33-1.31h0A1.33,1.33,0,0,1,138,224.31Z"/><path class="cls-7" d="M115.31,224.31A1.32,1.32,0,1,1,114,223h0A1.33,1.33,0,0,1,115.31,224.31Z"/><path class="cls-7" d="M121.11,224.31a1.32,1.32,0,1,1-1.33-1.31h0A1.33,1.33,0,0,1,121.11,224.31Z"/><path class="cls-7" d="M132.89,224.31a1.32,1.32,0,1,1-1.33-1.31h0A1.33,1.33,0,0,1,132.89,224.31Z"/><path class="cls-7" d="M159.46,224.31a1.32,1.32,0,1,1-1.33-1.31h0A1.33,1.33,0,0,1,159.46,224.31Z"/><path class="cls-3" d="M126.92,224.31a1.32,1.32,0,1,1-1.33-1.31h0A1.33,1.33,0,0,1,126.92,224.31Z"/><path class="cls-3" d="M143.53,224.31A1.32,1.32,0,1,1,142.2,223h0A1.33,1.33,0,0,1,143.53,224.31Z"/><path class="cls-5" d="M156.78,230.65A1.32,1.32,0,1,1,158.1,232h0a1.3,1.3,0,0,1-1.31-1.31Z"/><path class="cls-5" d="M151,230.65a1.32,1.32,0,1,1,1.32,1.32,1.33,1.33,0,0,1-1.32-1.32Z"/><path class="cls-5" d="M145.17,230.65a1.32,1.32,0,1,1,1.31,1.32h0A1.31,1.31,0,0,1,145.17,230.65Z"/><path class="cls-5" d="M139.37,230.65a1.32,1.32,0,1,1,1.32,1.32h0a1.3,1.3,0,0,1-1.31-1.31Z"/><path class="cls-5" d="M94.4,230.65A1.32,1.32,0,1,1,95.72,232h0a1.3,1.3,0,0,1-1.31-1.31Z"/><path class="cls-5" d="M88.46,230.65A1.32,1.32,0,1,1,89.78,232h0a1.3,1.3,0,0,1-1.31-1.31Z"/><path class="cls-5" d="M133.56,230.65a1.32,1.32,0,1,1,1.32,1.32,1.33,1.33,0,0,1-1.32-1.32Z"/><path class="cls-5" d="M105.06,230.65a1.32,1.32,0,1,1,1.32,1.32,1.33,1.33,0,0,1-1.32-1.32Z"/><path class="cls-7" d="M127.76,230.65a1.32,1.32,0,1,1,1.32,1.32h0a1.3,1.3,0,0,1-1.31-1.31Z"/><path class="cls-7" d="M122,230.65a1.32,1.32,0,1,1,1.32,1.32h0a1.3,1.3,0,0,1-1.31-1.31Z"/><path class="cls-7" d="M110.18,230.65a1.33,1.33,0,0,1,1.32-1.32,1.34,1.34,0,0,1,1.32,1.33,1.33,1.33,0,0,1-1.33,1.31h0A1.3,1.3,0,0,1,110.18,230.65Z"/><path class="cls-7" d="M83.66,230.65A1.32,1.32,0,1,1,85,232a1.33,1.33,0,0,1-1.32-1.32Z"/><path class="cls-3" d="M116.15,230.65a1.32,1.32,0,1,1,1.32,1.32h0A1.31,1.31,0,0,1,116.15,230.65Z"/><path class="cls-3" d="M99.54,230.65a1.32,1.32,0,1,1,1.32,1.32h0a1.3,1.3,0,0,1-1.31-1.31Z"/><path class="cls-5" d="M86.29,236.29A1.32,1.32,0,1,1,85,235h0a1.31,1.31,0,0,1,1.31,1.31Z"/><circle class="cls-5" cx="90.78" cy="236.29" r="1.31"/><circle class="cls-5" cx="96.58" cy="236.29" r="1.32"/><path class="cls-5" d="M103.7,236.29a1.32,1.32,0,1,1-1.32-1.32h0a1.31,1.31,0,0,1,1.31,1.31Z"/><circle class="cls-5" cx="147.36" cy="236.29" r="1.31"/><circle class="cls-5" cx="153.28" cy="236.29" r="1.31"/><path class="cls-5" d="M109.51,236.29a1.32,1.32,0,1,1-1.32-1.32,1.33,1.33,0,0,1,1.32,1.32Z"/><path class="cls-5" d="M138,236.29a1.32,1.32,0,1,1-1.32-1.32,1.33,1.33,0,0,1,1.32,1.32Z"/><circle class="cls-7" cx="113.99" cy="236.29" r="1.31"/><path class="cls-7" d="M121.11,236.29a1.32,1.32,0,1,1-1.32-1.32h0a1.31,1.31,0,0,1,1.31,1.31Z"/><path class="cls-7" d="M132.89,236.29a1.32,1.32,0,1,1-1.32-1.32,1.33,1.33,0,0,1,1.32,1.32Z"/><path class="cls-7" d="M159.46,236.29a1.32,1.32,0,1,1-1.32-1.32,1.33,1.33,0,0,1,1.32,1.32Z"/><path class="cls-3" d="M126.92,236.29A1.32,1.32,0,1,1,125.6,235a1.33,1.33,0,0,1,1.32,1.32Z"/><circle class="cls-3" cx="142.22" cy="236.29" r="1.31"/><rect class="cls-6" x="49.13" y="251.88" width="116.43" height="28.89"/><path class="cls-5" d="M86,259.67a1.32,1.32,0,1,1-1.33-1.31h0A1.33,1.33,0,0,1,86,259.67Z"/><path class="cls-5" d="M91.81,259.67a1.32,1.32,0,1,1-1.33-1.31h0A1.33,1.33,0,0,1,91.81,259.67Z"/><path class="cls-5" d="M97.61,259.67a1.32,1.32,0,1,1-1.33-1.31h0A1.33,1.33,0,0,1,97.61,259.67Z"/><path class="cls-5" d="M103.46,259.67a1.32,1.32,0,1,1-1.33-1.31h0A1.31,1.31,0,0,1,103.46,259.67Z"/><path class="cls-5" d="M148.39,259.67a1.32,1.32,0,1,1-1.33-1.31h0A1.33,1.33,0,0,1,148.39,259.67Z"/><path class="cls-5" d="M154.3,259.67a1.32,1.32,0,1,1-1.33-1.31h0A1.33,1.33,0,0,1,154.3,259.67Z"/><path class="cls-5" d="M109.22,259.67a1.32,1.32,0,1,1-1.33-1.31h0A1.33,1.33,0,0,1,109.22,259.67Z"/><path class="cls-5" d="M137.72,259.67a1.32,1.32,0,1,1-1.33-1.31h0A1.33,1.33,0,0,1,137.72,259.67Z"/><path class="cls-7" d="M115,259.67a1.32,1.32,0,1,1-1.33-1.31h0A1.33,1.33,0,0,1,115,259.67Z"/><path class="cls-7" d="M120.82,259.67a1.32,1.32,0,1,1-1.33-1.31h0A1.31,1.31,0,0,1,120.82,259.67Z"/><path class="cls-7" d="M132.6,259.67a1.32,1.32,0,1,1-1.33-1.31h0A1.33,1.33,0,0,1,132.6,259.67Z"/><path class="cls-7" d="M159.12,259.67a1.32,1.32,0,1,1-1.33-1.31h0A1.33,1.33,0,0,1,159.12,259.67Z"/><path class="cls-3" d="M126.63,259.67a1.32,1.32,0,1,1-1.33-1.31h0A1.33,1.33,0,0,1,126.63,259.67Z"/><path class="cls-3" d="M143.24,259.67a1.32,1.32,0,1,1-1.33-1.31h0A1.31,1.31,0,0,1,143.24,259.67Z"/><path class="cls-5" d="M156.46,266a1.32,1.32,0,1,1,1.32,1.32h0a1.3,1.3,0,0,1-1.31-1.31Z"/><circle class="cls-5" cx="152" cy="266.01" r="1.32"/><path class="cls-5" d="M144.88,266a1.32,1.32,0,1,1,1.32,1.32,1.33,1.33,0,0,1-1.32-1.32Z"/><path class="cls-5" d="M139.08,266a1.32,1.32,0,1,1,1.32,1.32h0a1.3,1.3,0,0,1-1.31-1.31Z"/><path class="cls-5" d="M94.11,266a1.32,1.32,0,1,1,1.32,1.32h0A1.3,1.3,0,0,1,94.11,266Z"/><path class="cls-5" d="M88.19,266a1.32,1.32,0,1,1,1.32,1.32A1.33,1.33,0,0,1,88.19,266Z"/><circle class="cls-5" cx="134.59" cy="266.01" r="1.32"/><path class="cls-5" d="M104.77,266a1.32,1.32,0,1,1,1.32,1.32,1.33,1.33,0,0,1-1.32-1.32Z"/><path class="cls-7" d="M127.46,266a1.32,1.32,0,1,1,1.32,1.32,1.33,1.33,0,0,1-1.32-1.32Z"/><path class="cls-7" d="M121.67,266a1.32,1.32,0,1,1,1.32,1.32h0a1.3,1.3,0,0,1-1.31-1.31Z"/><circle class="cls-7" cx="111.21" cy="266.01" r="1.32"/><path class="cls-7" d="M83.38,266a1.32,1.32,0,1,1,1.32,1.32h0A1.3,1.3,0,0,1,83.38,266Z"/><path class="cls-3" d="M115.86,266a1.32,1.32,0,1,1,1.32,1.32,1.33,1.33,0,0,1-1.32-1.32Z"/><path class="cls-3" d="M99.25,266a1.32,1.32,0,1,1,1.32,1.32h0A1.3,1.3,0,0,1,99.25,266Z"/><path class="cls-5" d="M86,271.65a1.32,1.32,0,1,1-1.32-1.32A1.33,1.33,0,0,1,86,271.65Z"/><path class="cls-5" d="M91.81,271.65a1.32,1.32,0,1,1-1.32-1.32,1.33,1.33,0,0,1,1.32,1.32Z"/><path class="cls-5" d="M97.61,271.65a1.32,1.32,0,1,1-1.32-1.32h0a1.31,1.31,0,0,1,1.31,1.31Z"/><path class="cls-5" d="M103.46,271.65a1.32,1.32,0,0,1-1.43,1.2,1.31,1.31,0,0,1-1.2-1.2,1.32,1.32,0,0,1,1.2-1.43,1.33,1.33,0,0,1,1.43,1.2Z"/><path class="cls-5" d="M148.39,271.65a1.32,1.32,0,1,1-1.32-1.32,1.33,1.33,0,0,1,1.32,1.32Z"/><path class="cls-5" d="M154.3,271.65a1.32,1.32,0,1,1-1.32-1.32h0a1.31,1.31,0,0,1,1.31,1.31Z"/><path class="cls-5" d="M109.22,271.65a1.32,1.32,0,1,1-1.32-1.32,1.33,1.33,0,0,1,1.32,1.32Z"/><path class="cls-5" d="M137.72,271.65a1.32,1.32,0,1,1-1.32-1.32,1.33,1.33,0,0,1,1.32,1.32Z"/><path class="cls-7" d="M115,271.65a1.32,1.32,0,1,1-1.32-1.32h0a1.31,1.31,0,0,1,1.31,1.31Z"/><path class="cls-7" d="M120.82,271.65a1.32,1.32,0,0,1-1.43,1.2,1.31,1.31,0,0,1-1.2-1.2,1.32,1.32,0,0,1,1.2-1.43,1.33,1.33,0,0,1,1.43,1.2Z"/><path class="cls-7" d="M132.6,271.65a1.32,1.32,0,1,1-1.32-1.32,1.33,1.33,0,0,1,1.32,1.32Z"/><path class="cls-7" d="M159.12,271.65a1.32,1.32,0,1,1-1.32-1.32,1.33,1.33,0,0,1,1.32,1.32Z"/><path class="cls-3" d="M126.63,271.65a1.32,1.32,0,1,1-1.32-1.32,1.33,1.33,0,0,1,1.32,1.32Z"/><path class="cls-3" d="M143.24,271.65a1.32,1.32,0,0,1-1.43,1.2,1.31,1.31,0,0,1-1.2-1.2,1.32,1.32,0,0,1,1.2-1.43,1.33,1.33,0,0,1,1.43,1.2Z"/><rect class="cls-5" x="54.3" y="257.83" width="22.92" height="3.53"/><rect class="cls-5" x="54.3" y="263.9" width="22.92" height="3.53"/><rect class="cls-5" x="54.3" y="270.17" width="22.92" height="3.53"/><rect class="cls-6" x="49.13" y="287.53" width="116.43" height="28.89"/><rect class="cls-5" x="54.3" y="293.48" width="22.92" height="3.53"/><rect class="cls-5" x="54.3" y="299.54" width="22.92" height="3.53"/><rect class="cls-5" x="54.3" y="305.82" width="22.92" height="3.53"/><path class="cls-5" d="M85.58,295.32A1.32,1.32,0,1,1,84.26,294h0a1.31,1.31,0,0,1,1.31,1.31Z"/><path class="cls-5" d="M91.39,295.32A1.32,1.32,0,1,1,90.07,294a1.33,1.33,0,0,1,1.32,1.32Z"/><path class="cls-5" d="M97.19,295.32A1.32,1.32,0,1,1,95.87,294a1.33,1.33,0,0,1,1.32,1.32Z"/><path class="cls-5" d="M103,295.32a1.32,1.32,0,1,1-1.32-1.32h0a1.31,1.31,0,0,1,1.31,1.31Z"/><path class="cls-5" d="M148,295.32a1.32,1.32,0,1,1-1.32-1.32h0a1.31,1.31,0,0,1,1.31,1.31Z"/><path class="cls-5" d="M153.88,295.32a1.32,1.32,0,1,1-1.32-1.32h0a1.31,1.31,0,0,1,1.31,1.31Z"/><path class="cls-5" d="M108.8,295.32a1.32,1.32,0,1,1-1.32-1.32,1.33,1.33,0,0,1,1.32,1.32Z"/><path class="cls-5" d="M137.3,295.32A1.32,1.32,0,1,1,136,294a1.33,1.33,0,0,1,1.32,1.32Z"/><path class="cls-7" d="M114.6,295.32a1.32,1.32,0,1,1-1.32-1.32,1.33,1.33,0,0,1,1.32,1.32Z"/><path class="cls-7" d="M120.4,295.32a1.32,1.32,0,1,1-1.32-1.32h0a1.31,1.31,0,0,1,1.31,1.31Z"/><path class="cls-7" d="M132.18,295.32a1.32,1.32,0,1,1-1.32-1.32,1.33,1.33,0,0,1,1.32,1.32Z"/><path class="cls-7" d="M158.7,295.32a1.32,1.32,0,1,1-1.32-1.32,1.33,1.33,0,0,1,1.32,1.32Z"/><path class="cls-3" d="M126.21,295.32a1.32,1.32,0,1,1-1.32-1.32,1.33,1.33,0,0,1,1.32,1.32Z"/><path class="cls-3" d="M142.82,295.32A1.32,1.32,0,1,1,141.5,294h0a1.31,1.31,0,0,1,1.31,1.31Z"/><path class="cls-5" d="M156.07,301.66A1.32,1.32,0,1,1,157.4,303h0A1.3,1.3,0,0,1,156.07,301.66Z"/><path class="cls-5" d="M150.26,301.66a1.32,1.32,0,1,1,1.33,1.31h0A1.31,1.31,0,0,1,150.26,301.66Z"/><path class="cls-5" d="M144.46,301.66a1.32,1.32,0,1,1,1.33,1.31h0A1.3,1.3,0,0,1,144.46,301.66Z"/><path class="cls-5" d="M138.66,301.66A1.32,1.32,0,1,1,140,303h0A1.3,1.3,0,0,1,138.66,301.66Z"/><path class="cls-5" d="M93.69,301.66A1.32,1.32,0,1,1,95,303h0A1.3,1.3,0,0,1,93.69,301.66Z"/><path class="cls-5" d="M87.77,301.66A1.32,1.32,0,1,1,89.1,303h0A1.3,1.3,0,0,1,87.77,301.66Z"/><path class="cls-5" d="M132.85,301.66a1.32,1.32,0,1,1,1.33,1.31h0A1.31,1.31,0,0,1,132.85,301.66Z"/><path class="cls-5" d="M104.35,301.66a1.32,1.32,0,1,1,1.33,1.31h0A1.31,1.31,0,0,1,104.35,301.66Z"/><path class="cls-7" d="M127.05,301.66a1.32,1.32,0,1,1,1.33,1.31h0A1.3,1.3,0,0,1,127.05,301.66Z"/><path class="cls-7" d="M121.25,301.66a1.32,1.32,0,1,1,1.33,1.31h0A1.3,1.3,0,0,1,121.25,301.66Z"/><path class="cls-7" d="M109.46,301.66a1.32,1.32,0,1,1,1.33,1.31h0A1.31,1.31,0,0,1,109.46,301.66Z"/><path class="cls-7" d="M83,301.66A1.32,1.32,0,1,1,84.28,303h0A1.31,1.31,0,0,1,83,301.66Z"/><path class="cls-3" d="M115.46,301.66a1.32,1.32,0,1,1,1.33,1.31h0A1.31,1.31,0,0,1,115.46,301.66Z"/><path class="cls-3" d="M98.83,301.66a1.32,1.32,0,1,1,1.33,1.31h0A1.3,1.3,0,0,1,98.83,301.66Z"/><path class="cls-5" d="M85.58,307.3A1.32,1.32,0,1,1,84.26,306h0a1.31,1.31,0,0,1,1.31,1.31Z"/><path class="cls-5" d="M91.39,307.3A1.32,1.32,0,1,1,90.07,306a1.33,1.33,0,0,1,1.32,1.32Z"/><path class="cls-5" d="M97.19,307.3A1.32,1.32,0,1,1,95.87,306a1.33,1.33,0,0,1,1.32,1.32Z"/><path class="cls-5" d="M103,307.3a1.32,1.32,0,1,1-1.32-1.32h0a1.31,1.31,0,0,1,1.31,1.31Z"/><path class="cls-5" d="M148,307.3a1.32,1.32,0,1,1-1.32-1.32h0a1.31,1.31,0,0,1,1.31,1.31Z"/><path class="cls-5" d="M153.88,307.3a1.32,1.32,0,1,1-1.32-1.32h0a1.31,1.31,0,0,1,1.31,1.31Z"/><path class="cls-5" d="M108.8,307.3a1.32,1.32,0,1,1-1.32-1.32,1.33,1.33,0,0,1,1.32,1.32Z"/><path class="cls-5" d="M137.3,307.3A1.32,1.32,0,1,1,136,306a1.33,1.33,0,0,1,1.32,1.32Z"/><path class="cls-7" d="M114.6,307.3a1.32,1.32,0,1,1-1.32-1.32,1.33,1.33,0,0,1,1.32,1.32Z"/><path class="cls-7" d="M120.4,307.3a1.32,1.32,0,1,1-1.32-1.32h0a1.31,1.31,0,0,1,1.31,1.31Z"/><path class="cls-7" d="M132.18,307.3a1.32,1.32,0,1,1-1.32-1.32,1.33,1.33,0,0,1,1.32,1.32Z"/><path class="cls-7" d="M158.7,307.3a1.32,1.32,0,1,1-1.32-1.32,1.33,1.33,0,0,1,1.32,1.32Z"/><path class="cls-3" d="M126.21,307.3a1.32,1.32,0,1,1-1.32-1.32,1.33,1.33,0,0,1,1.32,1.32Z"/><path class="cls-3" d="M142.82,307.3A1.32,1.32,0,1,1,141.5,306h0a1.31,1.31,0,0,1,1.31,1.31Z"/><polygon class="cls-5" points="183.06 245.07 165.56 245.12 165.56 216.23 183.06 216.19 183.06 245.07"/><polygon class="cls-5" points="183.06 280.49 165.56 280.54 165.56 251.65 183.06 251.61 183.06 280.49"/><polygon class="cls-5" points="183.06 316.36 165.56 316.41 165.56 287.53 183.06 287.48 183.06 316.36"/><rect class="cls-5" x="55.15" y="199.14" width="22.92" height="3.53"/><polygon class="cls-5" points="183.06 209.95 165.56 210 165.56 180.89 183.06 180.84 183.06 209.95"/><rect class="cls-6" x="49.98" y="180.84" width="116.43" height="28.89"/><rect class="cls-5" x="55.15" y="186.79" width="22.92" height="3.53"/><rect class="cls-5" x="55.15" y="192.86" width="22.92" height="3.53"/><path class="cls-5" d="M87.14,188.92a1.32,1.32,0,1,1-1.33-1.31h0A1.33,1.33,0,0,1,87.14,188.92Z"/><path class="cls-5" d="M92.94,188.92a1.32,1.32,0,1,1-1.33-1.31h0A1.33,1.33,0,0,1,92.94,188.92Z"/><path class="cls-5" d="M98.74,188.92a1.32,1.32,0,1,1-1.33-1.31h0A1.33,1.33,0,0,1,98.74,188.92Z"/><path class="cls-5" d="M104.55,188.92a1.32,1.32,0,1,1-1.33-1.31h0A1.33,1.33,0,0,1,104.55,188.92Z"/><path class="cls-5" d="M149.52,188.92a1.32,1.32,0,1,1-1.33-1.31h0A1.33,1.33,0,0,1,149.52,188.92Z"/><path class="cls-5" d="M155.46,188.92a1.32,1.32,0,1,1-1.33-1.31h0A1.31,1.31,0,0,1,155.46,188.92Z"/><path class="cls-5" d="M110.35,188.92a1.32,1.32,0,1,1-1.33-1.31h0A1.33,1.33,0,0,1,110.35,188.92Z"/><path class="cls-5" d="M138.85,188.92a1.32,1.32,0,1,1-1.33-1.31h0A1.33,1.33,0,0,1,138.85,188.92Z"/><path class="cls-7" d="M116.15,188.92a1.32,1.32,0,1,1-1.33-1.31h0A1.33,1.33,0,0,1,116.15,188.92Z"/><path class="cls-7" d="M122,188.92a1.32,1.32,0,1,1-1.33-1.31h0A1.33,1.33,0,0,1,122,188.92Z"/><path class="cls-7" d="M133.73,188.92a1.32,1.32,0,1,1-1.33-1.31h0A1.33,1.33,0,0,1,133.73,188.92Z"/><path class="cls-7" d="M160.25,188.92a1.32,1.32,0,1,1-1.33-1.31h0A1.33,1.33,0,0,1,160.25,188.92Z"/><path class="cls-3" d="M127.76,188.92a1.32,1.32,0,1,1-1.33-1.31h0A1.33,1.33,0,0,1,127.76,188.92Z"/><path class="cls-3" d="M144.38,188.92a1.32,1.32,0,1,1-1.33-1.31h0A1.33,1.33,0,0,1,144.38,188.92Z"/><path class="cls-5" d="M157.62,195.26a1.32,1.32,0,1,1,1.32,1.32h0a1.3,1.3,0,0,1-1.31-1.31Z"/><circle class="cls-5" cx="153.13" cy="195.26" r="1.32"/><path class="cls-5" d="M146,195.26a1.32,1.32,0,1,1,1.32,1.32,1.33,1.33,0,0,1-1.32-1.32Z"/><path class="cls-5" d="M140.21,195.26a1.32,1.32,0,1,1,1.32,1.32h0a1.3,1.3,0,0,1-1.31-1.31Z"/><path class="cls-5" d="M95.24,195.26a1.32,1.32,0,1,1,1.32,1.32h0a1.3,1.3,0,0,1-1.31-1.31Z"/><path class="cls-5" d="M89.32,195.26a1.32,1.32,0,1,1,1.32,1.32,1.33,1.33,0,0,1-1.32-1.32Z"/><path class="cls-5" d="M134.46,195.26a1.32,1.32,0,1,1,1.32,1.32h0a1.3,1.3,0,0,1-1.31-1.31Z"/><circle class="cls-5" cx="107.22" cy="195.26" r="1.32"/><circle class="cls-7" cx="129.92" cy="195.26" r="1.32"/><circle class="cls-7" cx="124.11" cy="195.26" r="1.32"/><path class="cls-7" d="M111,195.26a1.32,1.32,0,1,1,1.32,1.32h0a1.3,1.3,0,0,1-1.31-1.31Z"/><circle class="cls-7" cx="85.82" cy="195.26" r="1.32"/><path class="cls-3" d="M117,195.26a1.32,1.32,0,1,1,1.32,1.32h0a1.3,1.3,0,0,1-1.31-1.31Z"/><path class="cls-3" d="M100.38,195.26a1.32,1.32,0,1,1,1.32,1.32,1.33,1.33,0,0,1-1.32-1.32Z"/><path class="cls-5" d="M87.14,200.9a1.32,1.32,0,1,1-1.32-1.32,1.33,1.33,0,0,1,1.32,1.32Z"/><path class="cls-5" d="M92.94,200.9a1.32,1.32,0,1,1-1.32-1.32,1.33,1.33,0,0,1,1.32,1.32Z"/><path class="cls-5" d="M98.74,200.9a1.32,1.32,0,1,1-1.32-1.32h0a1.31,1.31,0,0,1,1.31,1.31Z"/><path class="cls-5" d="M104.55,200.9a1.32,1.32,0,1,1-1.32-1.32,1.33,1.33,0,0,1,1.32,1.32Z"/><path class="cls-5" d="M149.52,200.9a1.32,1.32,0,1,1-1.32-1.32,1.33,1.33,0,0,1,1.32,1.32Z"/><path class="cls-5" d="M155.46,200.9a1.32,1.32,0,0,1-1.43,1.2,1.31,1.31,0,0,1-1.2-1.2,1.32,1.32,0,0,1,1.2-1.43,1.33,1.33,0,0,1,1.43,1.2Z"/><path class="cls-5" d="M110.35,200.9a1.32,1.32,0,1,1-1.32-1.32,1.33,1.33,0,0,1,1.32,1.32Z"/><path class="cls-5" d="M138.85,200.9a1.32,1.32,0,1,1-1.32-1.32,1.33,1.33,0,0,1,1.32,1.32Z"/><path class="cls-7" d="M116.15,200.9a1.32,1.32,0,1,1-1.32-1.32h0a1.31,1.31,0,0,1,1.31,1.31Z"/><path class="cls-7" d="M122,200.9a1.32,1.32,0,1,1-1.32-1.32A1.33,1.33,0,0,1,122,200.9Z"/><path class="cls-7" d="M133.73,200.9a1.32,1.32,0,1,1-1.32-1.32h0a1.31,1.31,0,0,1,1.31,1.31Z"/><path class="cls-7" d="M160.25,200.9a1.32,1.32,0,1,1-1.32-1.32,1.33,1.33,0,0,1,1.32,1.32Z"/><path class="cls-3" d="M127.76,200.9a1.32,1.32,0,1,1-1.32-1.32,1.33,1.33,0,0,1,1.32,1.32Z"/><path class="cls-3" d="M144.38,200.9a1.32,1.32,0,1,1-1.32-1.32,1.33,1.33,0,0,1,1.32,1.32Z"/><g id="freepik--Character--inject-83"><path class="cls-3" d="M35.74,264l.36,19.06s-19.13,5.17-19.41,8.7L53.55,294l.65-29.71Z"/><path class="cls-8" d="M47.56,281.67a1.53,1.53,0,0,1,1,1.74,1.46,1.46,0,0,1-1.72,1,1.59,1.59,0,0,1-1.06-1.85,1.5,1.5,0,0,1,1.9-.87"/><path class="cls-8" d="M53.55,294l.07-3-34.94-1.42s-2.06,1.1-2.06,2.25Z"/><path class="cls-5" d="M35.51,282.88c0,.18.9.28,1.78.87s1.34,1.36,1.51,1.29-.09-1.11-1.16-1.81S35.46,282.71,35.51,282.88Z"/><path class="cls-5" d="M31.6,284.47c0,.17.74.49,1.34,1.27s.76,1.58.94,1.58.31-1-.45-2S31.61,284.25,31.6,284.47Z"/><path class="cls-5" d="M29.33,289c.16,0,.42-.85,0-1.85S28,285.77,28,285.91s.44.69.79,1.51S29.15,289,29.33,289Z"/><path class="cls-5" d="M35.91,278.53c.07.16.9-.07,1.92,0s1.81.43,1.91.27-.66-.81-1.86-.89S35.82,278.38,35.91,278.53Z"/><path class="cls-5" d="M35.9,274.68a3.27,3.27,0,0,0,1.86,0,7.82,7.82,0,0,0,1.94-.56,8.26,8.26,0,0,0,1.07-.54,2.14,2.14,0,0,0,.57-.43.8.8,0,0,0,.1-1,1.05,1.05,0,0,0-.78-.43,2.69,2.69,0,0,0-.7.09,7.47,7.47,0,0,0-1.16.37,6.72,6.72,0,0,0-1.72,1.1c-.87.78-1.18,1.45-1.12,1.48s.51-.5,1.39-1.14a7.66,7.66,0,0,1,1.67-.9,7.35,7.35,0,0,1,1.07-.31c.39-.1.73-.09.82.08s0,.1,0,.21a2.07,2.07,0,0,1-.42.31,7.49,7.49,0,0,1-1,.54,10.08,10.08,0,0,1-1.81.66A15,15,0,0,0,35.9,274.68Z"/><path class="cls-5" d="M36.13,275a3,3,0,0,0,.52-1.78,6.44,6.44,0,0,0-.22-2A5.79,5.79,0,0,0,36,270a1.56,1.56,0,0,0-1.16-1,.89.89,0,0,0-.79.5,2.41,2.41,0,0,0-.2.68,4.2,4.2,0,0,0,.74,3.17c.71,1,1.46,1.2,1.47,1.14a7.53,7.53,0,0,1-1.1-1.38,4.13,4.13,0,0,1-.55-1.75,3.83,3.83,0,0,1,0-1.07c.06-.39.21-.71.36-.66a1.39,1.39,0,0,1,.64.61,6.26,6.26,0,0,1,.77,2.86C36.24,274.24,36,274.92,36.13,275Z"/><path class="cls-5" d="M147.46,147.92,56.65,164.47a26.69,26.69,0,0,0-21.38,19.87q-.17.69-.3,1.41c-3,15.37-3.16,85.63-3.16,85.63L56.46,271l4.45-79.34,70-9.57a20.65,20.65,0,0,0,12.55-6.53C149.38,169,151.22,160.07,147.46,147.92Z"/><path class="cls-3" d="M46,226.77l1.67,19s-18.73,6.48-18.77,10l36.93-.3-1.4-29.71Z"/><path class="cls-8" d="M59,243.56a1.53,1.53,0,0,1,1.13,1.67,1.43,1.43,0,0,1-1.64,1.13,1.57,1.57,0,0,1-1.19-1.77,1.5,1.5,0,0,1,1.84-1"/><path class="cls-8" d="M65.86,255.47l-.14-3-34.95,1s-1.86,1.49-1.84,2.3Z"/><path class="cls-5" d="M47.1,245.6c0,.18.92.21,1.83.75s1.43,1.26,1.6,1.18-.17-1.1-1.29-1.73S47.05,245.47,47.1,245.6Z"/><path class="cls-5" d="M43.31,247.4c0,.18.76.45,1.41,1.18s.87,1.52,1,1.51a1.89,1.89,0,0,0-.58-1.94C44.32,247.26,43.3,247.23,43.31,247.4Z"/><path class="cls-5" d="M41.35,252.15c.16,0,.37-.88-.15-1.84s-1.37-1.32-1.44-1.16.48.65.89,1.45S41.17,252.14,41.35,252.15Z"/><path class="cls-5" d="M47.19,241.23c.09.16.9-.13,1.92-.11s1.84.29,1.92.13-.71-.76-1.91-.76S47.1,241.09,47.19,241.23Z"/><path class="cls-5" d="M46.93,237.4a3.53,3.53,0,0,0,1.85-.11,8.37,8.37,0,0,0,1.9-.7,8.62,8.62,0,0,0,1-.61,2.17,2.17,0,0,0,.54-.47.78.78,0,0,0,0-1,1,1,0,0,0-.81-.37,2.63,2.63,0,0,0-.69.13,7.39,7.39,0,0,0-1.13.45,6.82,6.82,0,0,0-1.65,1.21c-.81.84-1.07,1.53-1,1.56s.48-.53,1.31-1.23a7.61,7.61,0,0,1,1.61-1,6.66,6.66,0,0,1,1-.38c.39-.12.72-.14.83,0s0,.09,0,.2a1.61,1.61,0,0,1-.4.34,7.93,7.93,0,0,1-.94.61,9.53,9.53,0,0,1-1.76.78A13.05,13.05,0,0,0,46.93,237.4Z"/><path class="cls-5" d="M47.17,237.64a3,3,0,0,0,.4-1.81,6.25,6.25,0,0,0-.36-2,6.55,6.55,0,0,0-.53-1.1,1.54,1.54,0,0,0-1.23-.87.85.85,0,0,0-.74.55,2.46,2.46,0,0,0-.16.69,4.31,4.31,0,0,0,1,3.12c.77.92,1.53,1.09,1.54,1a9.41,9.41,0,0,1-1.19-1.3,4,4,0,0,1-.67-1.71,3.2,3.2,0,0,1,0-1.07c0-.39.16-.72.31-.68a1.36,1.36,0,0,1,.68.57,6.27,6.27,0,0,1,.51,1,7.26,7.26,0,0,1,.46,1.82C47.23,236.93,47.08,237.62,47.17,237.64Z"/><path class="cls-5" d="M145.93,148.34,61.4,129.7a17.78,17.78,0,0,0-8.25-.79h0a17.62,17.62,0,0,0-15,19.71l1.19,83.85,29.73-1.94-1.14-68.16Z"/><path class="cls-6" d="M38.32,161.18a2.16,2.16,0,0,1,0,.36v1c0,.94,0,2.29.1,4,.07,3.53.17,8.62.29,15,.2,12.77.49,30.58.82,50.9l-.27-.25,17.54-.92,12.66-.61-.25.26c-.53-21.56-1-40.6-1.35-54.28-.14-6.81-.26-12.29-.34-16.09,0-1.87-.06-3.32-.07-4.34v-1.12a1.21,1.21,0,0,1,0-.38v.38a10,10,0,0,0,0,1.12c0,1,.09,2.47.16,4.34.12,3.79.29,9.27.51,16.08.38,13.68.91,32.72,1.52,54.28v.25h-.26l-12.62.66-17.54.91H39v-.26c-.26-20.32-.48-38.14-.64-50.9-.06-6.36-.11-11.45-.14-15v-5A1.86,1.86,0,0,1,38.32,161.18Z"/><path class="cls-6" d="M67.76,161.47c0-.14,7.07-1.79,15.84-3.68s15.92-3.32,16-3.18-7.06,1.79-15.84,3.69S67.8,161.62,67.76,161.47Z"/><path class="cls-6" d="M71.64,153.4a2.87,2.87,0,0,1,.27,1.41,7.77,7.77,0,0,1-2.84,6.1,2.8,2.8,0,0,1-1.24.7,9.95,9.95,0,0,0,3.81-8.21Z"/><path class="cls-9" d="M130.33,60l-19.18-1.55c-.12-2.24,0-10.9,0-10.9s-8-1.24-8.07-9.21,1.28-26.29,1.28-26.29h0a27.71,27.71,0,0,1,27.85,3.5l1.25.9Z"/><path class="cls-10" d="M111.18,47.47a18.49,18.49,0,0,0,10.4-3s-2.46,5.74-10.42,5Z"/><path class="cls-9" d="M132.46,24.76c.14-.06,5.48-1.62,5.31,3.83s-5.61,4.15-5.62,4S132.46,24.76,132.46,24.76Z"/><path class="cls-10" d="M133.87,30.58l.26.14a.88.88,0,0,0,.71,0A2.38,2.38,0,0,0,136,28.65a3.4,3.4,0,0,0-.22-1.37,1.17,1.17,0,0,0-.69-.75.48.48,0,0,0-.57.24c-.08.15,0,.26-.08.27s-.11-.1-.06-.32a.54.54,0,0,1,.22-.34.75.75,0,0,1,.53-.12,1.37,1.37,0,0,1,1,.88,3.36,3.36,0,0,1,.28,1.53A2.47,2.47,0,0,1,134.94,31a1,1,0,0,1-.87-.17C133.88,30.71,133.86,30.58,133.87,30.58Z"/><path class="cls-5" d="M107.73,24.47a1.13,1.13,0,0,0,1.1,1.15,1.1,1.1,0,0,0,1.18-1,1.16,1.16,0,0,0-1.1-1.15A1.1,1.1,0,0,0,107.73,24.47Z"/><path class="cls-5" d="M105.91,23.31c.14.15,1-.49,2.23-.49s2.13.62,2.26.47-.08-.34-.47-.62a3.2,3.2,0,0,0-1.81-.56,3,3,0,0,0-1.77.57C106,23,105.84,23.24,105.91,23.31Z"/><path class="cls-5" d="M119.94,24.88A1.12,1.12,0,0,0,121,26a1.06,1.06,0,0,0,1.16-1v0a1.16,1.16,0,0,0-1.1-1.15,1.08,1.08,0,0,0-1.17,1Z"/><path class="cls-5" d="M118,23.54c.14.14,1-.49,2.23-.49s2.12.62,2.26.47-.08-.34-.47-.62a3.27,3.27,0,0,0-1.81-.56,3,3,0,0,0-1.78.57C118,23.2,117.89,23.47,118,23.54Z"/><path class="cls-5" d="M113.51,32.63a7.58,7.58,0,0,0-2-.36c-.31,0-.61-.1-.66-.31a1.54,1.54,0,0,1,.21-.93l.92-2.38a41.15,41.15,0,0,0,2.08-6.24,39.92,39.92,0,0,0-2.6,6.06l-.89,2.39a1.76,1.76,0,0,0-.16,1.23.74.74,0,0,0,.51.46,1.88,1.88,0,0,0,.53.07A8.35,8.35,0,0,0,113.51,32.63Z"/><path class="cls-5" d="M117.12,33.47c-.2,0-.2,1.32-1.34,2.27s-2.56.79-2.57,1,.32.26.92.27a3.25,3.25,0,0,0,2.14-.74,3,3,0,0,0,1-1.9C117.36,33.79,117.21,33.47,117.12,33.47Z"/><path class="cls-5" d="M117.64,18.73c.12.34,1.35.18,2.79.35s2.6.57,2.79.27-.12-.46-.59-.78a4.84,4.84,0,0,0-4.25-.47C117.86,18.31,117.59,18.57,117.64,18.73Z"/><path class="cls-5" d="M106.36,19.76c.22.28,1.06,0,2.08,0s1.87.18,2.07-.11c.09-.14-.05-.42-.42-.68a3,3,0,0,0-3.35.1C106.39,19.34,106.27,19.62,106.36,19.76Z"/><path class="cls-5" d="M100.52,7.05a2.93,2.93,0,0,1,1.08-2.58,2.11,2.11,0,0,1,2.71.2,2.42,2.42,0,0,1,1.77-2.94l.33-.06c1.3-.08,2.41.9,3.66,1.24a5.86,5.86,0,0,0,3.73-.43C115,2,116.08,1.35,117.27.92a10.21,10.21,0,0,1,13,6,4.56,4.56,0,0,1,4.8,1.81A7.52,7.52,0,0,1,136.26,14a17.48,17.48,0,0,1-.91,3.57v.31c-.08,4.39-.57,9.54-2.45,9.56-3.26,0-2.48-6.09-2.48-6.09-4-1.55-2.51-7.54-3.51-8.45s-3.1-3-11.47,1.26a16.21,16.21,0,0,1-10,1.07h-.27a6.93,6.93,0,0,1-2.15-.91,4.1,4.1,0,0,1-1.77-2,2.3,2.3,0,0,1,.46-2.49A5,5,0,0,1,100.52,7.05Z"/><path class="cls-3" d="M167.88,116.62a10.92,10.92,0,0,1-5.56,12.49h-.08c-3.35,1.67-8,1.28-11.22-.17l-2.75-1.24.93,23c-13.56,8.83-51,2.16-58.3-13.47,0-4-1.66-36.37-1.66-36.37l-.69-35.94c6.37-6.27,9.78-8.15,18.66-9.2l3.43-.38a34,34,0,0,0,20.45,0h0c3.15.13,5.77,1.1,8.46,1.62,8.46,1.62,14.55,7.78,16.25,13.48,1.39,4.68,10.33,39.42,10.33,39.42Z"/><path class="cls-3" d="M97.69,58.08s-8.45,2.88-12,11C83.38,74.38,80,99.91,80,99.91l-4.29,8.28a13.83,13.83,0,0,0-1.56,6.42v1.27a13.85,13.85,0,0,0,3.13,8.81h0a13.94,13.94,0,0,0,9.59,5.09c4.28.38,9.47.55,10.57-.71,2-2.23,4.89-8.23,4.89-8.23L89.8,114.2l5.38-10Z"/><path class="cls-5" d="M143.62,107.56c.15,0,.28-5.35.28-11.94s-.13-11.94-.28-11.94-.27,5.34-.27,11.94S143.46,107.56,143.62,107.56Z"/><path class="cls-5" d="M94.83,98.52a43.27,43.27,0,0,0,.28-6.83,43.32,43.32,0,0,0-.28-6.83,43.31,43.31,0,0,0-.27,6.83A43.27,43.27,0,0,0,94.83,98.52Z"/><path class="cls-3" d="M149.14,149.07c1-.16,1.55,1.33,1,2.18a4.91,4.91,0,0,1-2.53,1.56c-3.2,1.27-5.82,3.64-8.85,5.29-6.44,3.5-14.2,3.47-21.48,2.57a40.08,40.08,0,0,1-12-3,18.3,18.3,0,0,1-9-8.25c-1-2-1.53-4.35-2.83-6.23-.85-1.24-2-2.24-2.92-3.44a5,5,0,0,1-1.15-4.21c.4-1.45,2.22-2.51,3.5-1.71"/><g class="cls-11"><path d="M123.17,157A23,23,0,0,1,110,150.68a43.92,43.92,0,0,1-8.72-12c-.32-.6-1-1.31-1.55-.88a1.13,1.13,0,0,0-.32.57,11.81,11.81,0,0,0,2.39,10.48,19.19,19.19,0,0,0,9.26,6,53.27,53.27,0,0,0,11,2"/></g><path class="cls-4" d="M152.57,65.17a.4.4,0,0,1,0,.16,3.33,3.33,0,0,1-.24.46A5.87,5.87,0,0,1,151,67.3a7.82,7.82,0,0,1-2.77,1.48,10,10,0,0,1-4.15.3,20.94,20.94,0,0,1-4.87-1.28c-1.69-.63-3.45-1.41-5.35-2a22.06,22.06,0,0,0-12.8-.19,33.7,33.7,0,0,0-6.19,2.69,19,19,0,0,1-6,2.15,12.19,12.19,0,0,1-5.74-.73,34.82,34.82,0,0,1-4.57-2.08,39.53,39.53,0,0,0-6.55-3c-1.63-.49-2.58-.55-2.57-.61a3.86,3.86,0,0,1,.68,0,12.56,12.56,0,0,1,2,.37,36.63,36.63,0,0,1,6.66,2.86,35.33,35.33,0,0,0,4.54,2,11.86,11.86,0,0,0,5.54.67,18.64,18.64,0,0,0,5.85-2.14A33.91,33.91,0,0,1,121,65.06a22.33,22.33,0,0,1,13.1.24c1.93.64,3.68,1.44,5.35,2.08a20.13,20.13,0,0,0,4.76,1.31,10,10,0,0,0,4-.21,8,8,0,0,0,2.73-1.36A7.26,7.26,0,0,0,152.57,65.17Z"/><path class="cls-4" d="M143.1,89.56c0,.06-.69.1-1.93.37A47.82,47.82,0,0,0,136,91.38a39.43,39.43,0,0,1-7.77,2,13.89,13.89,0,0,1-4.77-.24,18.44,18.44,0,0,1-4.73-2c-3-1.7-5.78-3.61-8.64-4.45a18.6,18.6,0,0,0-7.82-.41A42.57,42.57,0,0,0,97,87.48l-1.41.39a1.8,1.8,0,0,1-.5.11,3.3,3.3,0,0,1,.46-.21c.31-.12.78-.29,1.39-.49A34.92,34.92,0,0,1,102.2,86a18.63,18.63,0,0,1,8,.31c3,.85,5.75,2.78,8.75,4.46a18.69,18.69,0,0,0,4.6,1.9,13.41,13.41,0,0,0,4.6.26A41.09,41.09,0,0,0,135.86,91a42.34,42.34,0,0,1,5.25-1.29,11.85,11.85,0,0,1,1.46-.16A1.87,1.87,0,0,1,143.1,89.56Z"/><path class="cls-4" d="M163.75,100.55a10.39,10.39,0,0,0-3,.11,14.08,14.08,0,0,0-3.1,1.15c-1.13.55-2.33,1.26-3.69,1.87a10,10,0,0,1-4.07,1,9.08,9.08,0,0,1-3.39-.56,7.86,7.86,0,0,1-2-1.07c-.44-.32-.65-.54-.63-.56a18.89,18.89,0,0,0,2.78,1.28,9.19,9.19,0,0,0,3.25.43,10.13,10.13,0,0,0,3.88-1c1.32-.59,2.53-1.28,3.69-1.83a13.4,13.4,0,0,1,3.24-1.07,6.89,6.89,0,0,1,2.31,0A2.18,2.18,0,0,1,163.75,100.55Z"/><path class="cls-4" d="M94.68,92.39a7.58,7.58,0,0,0-2-.36,8.57,8.57,0,0,0-2.2.35,26.85,26.85,0,0,1-2.74.7,6.51,6.51,0,0,1-5-1.18,3.73,3.73,0,0,1-1.41-1.61c.08-.06.55.62,1.62,1.3a6.6,6.6,0,0,0,4.7,1c1-.16,1.85-.46,2.7-.65a8.25,8.25,0,0,1,2.33-.26A2.83,2.83,0,0,1,94.68,92.39Z"/><path class="cls-4" d="M147.86,132.54c0,.06-.84-.17-2.38-.24a18.87,18.87,0,0,0-6.42,1,66.24,66.24,0,0,0-8.89,3.88,49.71,49.71,0,0,1-5.32,2.27,21.2,21.2,0,0,1-6.09,1.27,13.93,13.93,0,0,1-6.15-1.09,27.32,27.32,0,0,1-5-2.89c-1.52-1-2.93-2.06-4.3-2.92a20.76,20.76,0,0,0-4-2,11.46,11.46,0,0,0-6.37-.57,14.32,14.32,0,0,0-2.23.87,6.23,6.23,0,0,1,2.18-1.06,11.32,11.32,0,0,1,6.54.41,20.59,20.59,0,0,1,4.14,1.95c1.4.86,2.82,1.87,4.34,2.9a28.43,28.43,0,0,0,5,2.81,13.6,13.6,0,0,0,5.92,1c4.19-.22,7.94-1.91,11.23-3.45a61.91,61.91,0,0,1,9-3.8,22.93,22.93,0,0,1,3.68-.78,16.94,16.94,0,0,1,2.85-.06,10.83,10.83,0,0,1,1.77.27A2.91,2.91,0,0,1,147.86,132.54Z"/><path class="cls-4" d="M99.55,143.47a9.51,9.51,0,0,0-3.27-1.14,9.42,9.42,0,0,0-3.41.63,1.93,1.93,0,0,1,.86-.67,5.12,5.12,0,0,1,2.59-.47,5.27,5.27,0,0,1,2.48.86C99.36,143.05,99.59,143.4,99.55,143.47Z"/><path class="cls-4" d="M142.46,155.9c-.06,0-.11-.48-.46-1.27a7.3,7.3,0,0,0-2.32-2.76,10.18,10.18,0,0,0-5-1.81,16.44,16.44,0,0,0-6.51,1.13c-2.24.81-4.29,1.82-6.21,2.63a26.77,26.77,0,0,1-5.29,1.71,13.13,13.13,0,0,1-3.75.22,8.35,8.35,0,0,1-1-.17c-.22-.05-.34-.09-.34-.11a16.17,16.17,0,0,0,5-.3,29.12,29.12,0,0,0,5.18-1.79c1.89-.82,3.95-1.85,6.22-2.68a16.26,16.26,0,0,1,6.73-1.12,10.19,10.19,0,0,1,5.21,2,7,7,0,0,1,2.28,3,5.08,5.08,0,0,1,.26,1C142.46,155.78,142.51,155.9,142.46,155.9Z"/><path class="cls-5" d="M99.46,144.71c.05,0,.24.71.87,1.89a14.5,14.5,0,0,0,3.57,4.3c3.62,3.15,10.22,5.12,17.46,5.63a29.72,29.72,0,0,0,10.1-1.06,50.54,50.54,0,0,0,7.83-3c2.17-1,3.89-1.93,5.08-2.54l1.38-.7a2.52,2.52,0,0,1,.5-.22,3.86,3.86,0,0,1-.45.31l-1.33.78c-1.17.67-2.86,1.63-5,2.7a47.9,47.9,0,0,1-7.86,3.14,29.66,29.66,0,0,1-10.3,1.16,43.08,43.08,0,0,1-10.2-1.88,20.87,20.87,0,0,1-7.47-4,13.61,13.61,0,0,1-3.51-4.49,7.53,7.53,0,0,1-.57-1.45A1.56,1.56,0,0,1,99.46,144.71Z"/><g class="cls-11"><path d="M148.28,128c-2.27.35-4.68-.86-6.79-1.79s-4.66-1.59-6.61-.37a22.5,22.5,0,0,0-2.46,2.32c-2.31,2-5.69,1.94-8.71,1.59-7.14-.82-14.09-2.73-21-4.64-.68-.19-3.5-1.25-3.5-1.25l3.1-.7,2.84-.89,2.17-.47,21.35,3.27s1.46-1.54,1.46-1.58l-4.84-5.87c7,3.11,22.56,10.13,23,10.08"/></g><path class="cls-9" d="M102,101.37l.65-.49a15,15,0,0,1,11.77-2.72h0a20.75,20.75,0,0,1,9.17,4.3l5.12,4.22-5.45,9.79-3.75-5.21s-3.46,4.69-4.07,4.2a7.37,7.37,0,0,1-1.36-2L116.5,110l-5.93,1.24-8.66-4,3.71-4.69-3.71,1.23Z"/><path class="cls-5" d="M148.93,128a4.53,4.53,0,0,0-.48-.27l-1.43-.69-5.37-2.51-18.33-8.37.13.38c1.13-2,2.3-4.13,3.51-6.28l2.17-3.9-.26.13,21.91,2.16,6.51.58,1.76.13a2.15,2.15,0,0,0,.62,0,4.34,4.34,0,0,0-.61-.11l-1.75-.23-6.49-.75L128.93,106h-.18l-.09.15c-.7,1.25-1.44,2.57-2.18,3.91l-3.5,6.28-.14.25.26.12,18.41,8.19,5.43,2.37,1.47.61A1.61,1.61,0,0,0,148.93,128Z"/><path class="cls-5" d="M92.15,115.54a3.59,3.59,0,0,0-.91-.14,8.94,8.94,0,0,0-2.53.15,3,3,0,0,0-1.58.9,4.11,4.11,0,0,0-.83,1.9,4.42,4.42,0,0,0,.21,2.28A4.19,4.19,0,0,0,88,122.57a11.15,11.15,0,0,0,4.33,1.55,19.2,19.2,0,0,0,3.71.36,6.65,6.65,0,0,0,3.37-.59,16.49,16.49,0,0,1-3.36.2,21,21,0,0,1-3.62-.47,11.17,11.17,0,0,1-4.11-1.49,3.88,3.88,0,0,1-.86-5.39,2.78,2.78,0,0,1,1.34-.82,10.75,10.75,0,0,1,2.41-.31A3.21,3.21,0,0,0,92.15,115.54Z"/><path class="cls-5" d="M87.19,130a5.73,5.73,0,0,0,2.14.26,13.65,13.65,0,0,0,5.17-.86A11.15,11.15,0,0,0,97.07,128a6.07,6.07,0,0,0,1.59-1.79,4.94,4.94,0,0,0,.77-2c-.09,0-.37.75-1.1,1.83a6.21,6.21,0,0,1-1.56,1.59,11.78,11.78,0,0,1-2.47,1.27,15.94,15.94,0,0,1-5,1A14.83,14.83,0,0,0,87.19,130Z"/><path class="cls-5" d="M81.21,104.09a9.72,9.72,0,0,0,1.48,1.78c1,1,2.31,2.48,3.83,4s2.91,2.94,3.94,3.93a9.06,9.06,0,0,0,1.75,1.52,10.08,10.08,0,0,0-1.47-1.79c-1-1-2.31-2.49-3.83-4A54.24,54.24,0,0,0,81.21,104.09Z"/><polygon class="cls-5" points="111.08 100.47 130.12 123.53 128.66 125.11 97.77 120.4 82.45 97.35 83.88 96.07 111.08 100.47"/><path class="cls-9" d="M90.9,106.56h0a2.94,2.94,0,0,1,2.74,1.87c.46,1.2,1.13,2.59,1.87,3,1.38.75,3.75,1.35,5,.74s6.24-5.1,7.11-4.6,1.62,1.62.75,2.62-5.49,4-4.62,5,10.61-3.4,12.11-3,2.37,1.31,1.49,1.91-7.48,3.1-7.86,4c0,0,10-2.62,10.36-2s1,1.62,0,2-9.61,2.62-10.36,3a17.9,17.9,0,0,1-3.85,1.13c-1.36.36-2.69.78-4,1.27a8.8,8.8,0,0,1-6.21-.16l-1-.42A4,4,0,0,1,92,119l.21-3.41-1.09-2.81Z"/><path class="cls-6" d="M82.46,97.47a1.83,1.83,0,0,0,.57.14l1.66.3,6.08,1,9,1.38,5.34.81a10.32,10.32,0,0,1,5.17,2.09,36,36,0,0,1,3.76,4.33l3.38,4.21,5.75,7.12c1.61,2,2.93,3.58,3.91,4.76l1.08,1.28a2.78,2.78,0,0,0,.41.43,3.84,3.84,0,0,0-.32-.5l-1-1.34-3.79-4.91-5.65-7.19-3.35-4.23a34.9,34.9,0,0,0-3.83-4.41,10.71,10.71,0,0,0-5.43-2.21l-5.35-.78-9.07-1.28-6.11-.81L83,97.47A2.44,2.44,0,0,0,82.46,97.47Z"/><path class="cls-12" d="M96.86,102.47a2.76,2.76,0,0,1,.86.7.91.91,0,0,1,0,1,1,1,0,0,1-1.28,0,1.25,1.25,0,0,1-.49-.74.87.87,0,0,1,.26-.83.69.69,0,0,1,.84,0"/><g class="cls-11"><path d="M91.64,114.9c-3.46-3.22-6.3-6.49-9.76-9.7-.7-.66-1.47-1.64-1-2.48a1.44,1.44,0,0,1,1.41-.62,3.76,3.76,0,0,1,1.5.6c4.17,2.57,5.71,7.89,7.85,12.2"/></g><path class="cls-4" d="M147,126.71a2,2,0,0,1,.22-.77,6.51,6.51,0,0,1,1.3-1.71,9.13,9.13,0,0,0,2.91-6,19.34,19.34,0,0,0-.78-6.8,19,19,0,0,1-.71-2.81,14.56,14.56,0,0,1,1.06,2.7,17.39,17.39,0,0,1,1,7,10,10,0,0,1-1.14,3.75,9.31,9.31,0,0,1-2,2.45,8.17,8.17,0,0,0-1.39,1.55C147.29,126.3,147.13,126.51,147,126.71Z"/><path class="cls-4" d="M136,107.6a5,5,0,0,1,.21,2.1,10.23,10.23,0,0,1-5.23,8.41,4.86,4.86,0,0,1-2,.74c0-.08.72-.36,1.79-1.06a11,11,0,0,0,5.05-8.12C136,108.41,135.89,107.61,136,107.6Z"/><path class="cls-4" d="M87.46,111.64a1.72,1.72,0,0,1,.12.71,4.35,4.35,0,0,1-.47,1.91,4.52,4.52,0,0,1-2.1,2,10.2,10.2,0,0,1-3.5.54,5.88,5.88,0,0,0-3,1.27,6.79,6.79,0,0,0-1.73,2.12,10.69,10.69,0,0,0-.76,2.45,1.46,1.46,0,0,1,0-.72A5.22,5.22,0,0,1,76.5,120a6.48,6.48,0,0,1,1.76-2.33,6,6,0,0,1,3.28-1.41,10.9,10.9,0,0,0,3.35-.47,4.42,4.42,0,0,0,2-1.78A6.21,6.21,0,0,0,87.46,111.64Z"/></g><g id="freepik--speech-bubble--inject-83"><path class="cls-3" d="M34.32,42.31H32.69l-3.54-4.93V34.14s-2.51-.16-2.21,4.08,0,3.17,0,3.17-5.33,0-5.77.48-.47,5.63-.52,8.5a3.08,3.08,0,0,0,2.2,3.13,1.79,1.79,0,0,0,.57.08c1.33,0,8.12-1.08,8.12-1.08h2.81Z"/><polygon class="cls-3" points="38.95 41.42 37.95 52.53 35.17 52.53 35.17 41.65 38.95 41.42"/><path class="cls-5" d="M59.33,68.79h-.26l-.79-.08-3.11-.31L43.34,67.16,43.21,67l.23.12A27.54,27.54,0,0,1,29.62,72,27.7,27.7,0,1,1,44.67,22.45l1.14.93a27.28,27.28,0,0,1,6.08,7.44,29.38,29.38,0,0,1,3,8.25c.11.7.21,1.38.31,2s.12,1.34.14,2a23.31,23.31,0,0,1-.07,3.83,28,28,0,0,1-1.5,6.72v-.15c1.74,4.83,3.13,8.66,4.09,11.3.45,1.28.81,2.28,1.06,3,.11.32.2.57.27.76a1.75,1.75,0,0,1,.08.25.81.81,0,0,1-.11-.27l-.31-.78q-.39-1-1.14-3L53.49,53.59h0a27.42,27.42,0,0,0,1.44-6.65,23.85,23.85,0,0,0,0-3.78,15.34,15.34,0,0,0-.15-2c-.15-.68-.21-1.33-.32-2a28.47,28.47,0,0,0-3-8.12,26.76,26.76,0,0,0-6-7.31A27.27,27.27,0,1,0,12.24,66.89,27.68,27.68,0,0,0,29.5,71.65,27.35,27.35,0,0,0,43.18,67l.23.12-.13-.15L55,68.33l3.14.38.82.11Z"/></g></g></g></svg>