<svg xmlns="http://www.w3.org/2000/svg" viewBox="0 0 454.78 325.23"><defs><style>.cls-1{fill:#cfd8dc;}.cls-2{fill:#455a64;}.cls-3{fill:#e0e0e0;}.cls-4{fill:#263238;}.cls-5{fill:#ffcfc0;}.cls-6{fill:#dd8b7a;}.cls-7{opacity:0.3;}.cls-8{opacity:0.2;}.cls-9{fill:#fafafa;}.cls-10{fill:#b78876;}.cls-11{fill:#aa6550;}.cls-12{fill:#f5f5f5;}</style></defs><title>33</title><g id="Слой_2" data-name="Слой 2"><g id="Слой_1-2" data-name="Слой 1"><g id="freepik--Gears--inject-181"><path class="cls-1" d="M343.38,33.6a27.32,27.32,0,0,1,6.16-4.1l.19-6.85,11.11-2.2,2.78,6.27a28,28,0,0,1,7.25,1.45l5-4.71,9.43,6.32-2.47,6.4a28,28,0,0,1,4.1,6.16l6.86.19L396,53.64l-6.28,2.78a27.53,27.53,0,0,1-1.44,7.24l4.7,5-6.28,9.48-6.37-2.49a27.61,27.61,0,0,1-6.17,4.1l-.18,6.85-11.11,2.2-2.78-6.27a28.18,28.18,0,0,1-7.26-1.45l-5,4.71-9.42-6.32,2.47-6.4a27.32,27.32,0,0,1-4.1-6.16l-6.86-.19-2.19-11.11L334,52.81a28.47,28.47,0,0,1,1.46-7.24l-4.7-5L337,31.16l6.4,2.46ZM352,47.41a12.17,12.17,0,1,0,16.89-3.33h0A12.17,12.17,0,0,0,352,47.41Z"/><path class="cls-2" d="M292.23,29.16a13.71,13.71,0,0,1,3.36-1.45l.68-3.31,5.6-.11.81,3.29a13.39,13.39,0,0,1,3.39,1.34l2.84-1.85,4,3.9-1.76,2.89a13.15,13.15,0,0,1,1.46,3.35l3.31.69.1,5.6-3.28.81a13.8,13.8,0,0,1-1.35,3.39l1.86,2.84-3.9,4-2.89-1.75a14.07,14.07,0,0,1-3.35,1.46l-.7,3.31-5.6.09-.8-3.28a13.81,13.81,0,0,1-3.4-1.33l-2.83,1.85-4-3.89,1.76-2.9a13.15,13.15,0,0,1-1.46-3.35l-3.32-.68-.09-5.61,3.29-.8a13.43,13.43,0,0,1,1.33-3.4l-1.85-2.83,3.89-4,2.89,1.76Zm3,7.46a6,6,0,1,0,8.5-.14,6,6,0,0,0-8.5.14Z"/><path class="cls-2" d="M295.21,36.62a5,5,0,0,1,1.12-1,6,6,0,0,1,3.93-.92,6.09,6.09,0,0,1,2.67.92,6.2,6.2,0,0,1,2.14,2.43,5.62,5.62,0,0,1,.55,1.68,5.74,5.74,0,0,1,0,1.85,6.11,6.11,0,0,1-5.07,5.26,5.74,5.74,0,0,1-1.85,0,5.66,5.66,0,0,1-1.71-.48,6.14,6.14,0,0,1-2.5-2.07,6,6,0,0,1-.25-6.58,4.7,4.7,0,0,1,.93-1.15,7.72,7.72,0,0,0-.83,1.22,6,6,0,0,0-.66,3.84,5.87,5.87,0,0,0,3.43,4.44,5.45,5.45,0,0,0,1.62.46,5.14,5.14,0,0,0,1.75,0,5.82,5.82,0,0,0,4.8-5,5.71,5.71,0,0,0,0-1.75,5.52,5.52,0,0,0-.5-1.6,5.94,5.94,0,0,0-8-2.71c-.15.07-.29.15-.43.23C295.6,36.24,295.25,36.65,295.21,36.62Z"/><path class="cls-2" d="M292.23,29.16l-.18-.1-.56-.31-2.18-1.3h.06l-3.86,4.05v-.11l1.85,2.78v.1a13.62,13.62,0,0,0-1.31,3.38v.07H286l-3.29.82.09-.13c0,1.77.08,3.63.11,5.6l-.11-.13,3.33.69h.08v.08A13.75,13.75,0,0,0,287.72,48l0,.07,0,.08L286,51.08V50.9l4,3.89h-.19l2.83-1.85.08-.06.09,0a14.06,14.06,0,0,0,3.36,1.32h.09v.1l.81,3.29-.17-.13,5.6-.1-.17.14c.23-1,.46-2.18.7-3.32v-.1h.1a13.9,13.9,0,0,0,3.31-1.44h.17l2.9,1.76h-.21l3.88-4v.21l-1.85-2.83-.05-.1,0-.08a13.38,13.38,0,0,0,1.33-3.36v-.09h.09l3.29-.81-.12.17c0-1.92-.07-3.78-.1-5.6l.13.15-3.31-.7h-.09v-.08A13.25,13.25,0,0,0,311.09,34v-.15L312.85,31v.18l-4-3.91H309l-2.83,1.85H306a13.76,13.76,0,0,0-3.37-1.33h-.07v-.07c-.28-1.19-.54-2.27-.78-3.28l.09.07-5.6.07.07-.06-.7,3.31h0a14.73,14.73,0,0,0-2.56,1l-.6.32-.2.1.18-.13.6-.34a13.79,13.79,0,0,1,2.55-1h0c.19-.92.4-2,.67-3.31V24.3h.06l5.6-.12h.09v.08c.25,1,.51,2.09.81,3.28l-.08-.08a13.66,13.66,0,0,1,3.43,1.34h-.13L308.92,27l.09-.06.07.08,4,3.88.08.08-.05.1c-.58.93-1.15,1.9-1.75,2.89v-.15a14.49,14.49,0,0,1,1.47,3.38l-.11-.1,3.31.68h.12v.13c0,1.85.08,3.71.11,5.6v.13h-.13l-3.28.8.12-.12a14.15,14.15,0,0,1-1.35,3.44v-.13l1.85,2.82.07.12-.09.09-3.89,4-.1.09-.11-.06-2.9-1.76h.18a13.6,13.6,0,0,1-3.39,1.47l.12-.13c-.23,1.14-.47,2.27-.69,3.31v.14h-.14l-5.6.09h-.14v-.13c-.27-1.13-.55-2.25-.8-3.29l.12.12a13.92,13.92,0,0,1-3.43-1.35h.16L290.05,55l-.11.07-.09-.09-4-3.89-.09-.09.06-.1L287.56,48v.15A13.13,13.13,0,0,1,286,44.8l.1.1-3.31-.69h-.11v-.12c0-2-.06-3.84-.09-5.6v-.1h.1l3.29-.79-.08.08a13.71,13.71,0,0,1,1.36-3.43v.12l-1.85-2.85v-.05l0-.06,3.92-4h0l2.14,1.34.54.34Z"/><path class="cls-3" d="M311.66,196.71h0l-19.1-2.94h0l-.83-11.63A47.91,47.91,0,0,1,281,175.66l-10.7,4.63h0L258.84,164.7h0l7.64-8.81a47.12,47.12,0,0,1-3-12.21l-10.87-4.27h0l2.94-19.11h0l11.62-.82a47.76,47.76,0,0,1,6.48-10.75L269,98h0l15.58-11.45h0l8.8,7.64a47.53,47.53,0,0,1,12.21-3l4.3-10.91h0L329,83.25h0l.82,11.63a47,47,0,0,1,10.75,6.48l10.71-4.63h0l11.49,15.65h0l-7.64,8.79a46.8,46.8,0,0,1,3,12.21L369,137.66h0l-2.94,19.15h0l-11.64.81A47,47,0,0,1,348,168.37l4.63,10.71h0L337,190.51h0l-8.8-7.64a47.51,47.51,0,0,1-12.21,3Zm-19.07-3,19.05,2.93,4.27-10.86h0a46.76,46.76,0,0,0,12.23-3h0l8.81,7.64L352.52,179l-4.63-10.7h0a47,47,0,0,0,6.48-10.75h0l11.62-.82,2.93-19-10.85-4.29h0a46.79,46.79,0,0,0-3-12.22h0l7.64-8.8L351.31,96.86l-10.69,4.63h0A47.29,47.29,0,0,0,329.86,95h0l-.81-11.62L310,80.41l-4.27,10.86h0a47.7,47.7,0,0,0-12.22,3h0l-8.79-7.64L269.17,98l4.62,10.69h0a46.9,46.9,0,0,0-6.52,10.76h0l-11.63.83-2.92,19.05,10.85,4.28h0a47.78,47.78,0,0,0,2.95,12.24h0l-7.64,8.8,11.41,15.53L281,175.58h0a47.1,47.1,0,0,0,10.76,6.48h0Zm19-35a20.73,20.73,0,1,1,3.2-41.22,20.73,20.73,0,0,1,1.54,40.66,20.41,20.41,0,0,1-4.74.56Zm-12.27-37.44h0a5.68,5.68,0,1,1,.05,0Z"/><path class="cls-4" d="M299.27,121.29a15.35,15.35,0,0,1,4.37-2.68,21.09,21.09,0,0,1,28.18,25.8,21.15,21.15,0,0,1-20.3,14.91,20.48,20.48,0,0,1-6.31-1,20.19,20.19,0,0,1-5.51-2.66,21.23,21.23,0,0,1-7.29-8.48,21,21,0,0,1-2-9.54,20.69,20.69,0,0,1,5-13,15.63,15.63,0,0,1,3.88-3.37,48.6,48.6,0,0,0-3.52,3.7,20.7,20.7,0,0,0-4.5,12.69,20.21,20.21,0,0,0,39.46,6.39,18.6,18.6,0,0,0,.92-6,19.5,19.5,0,0,0-.78-5.74,20.36,20.36,0,0,0-5.56-9.1,20.09,20.09,0,0,0-8.06-4.68,20.68,20.68,0,0,0-13.45.48Q301.47,120.1,299.27,121.29Z"/><path class="cls-4" d="M293.47,94.19a3.41,3.41,0,0,1-.58-.44l-1.69-1.42-6.67-5.64h.24l-15.5,11.52.1-.36,4.69,10.68.09.19-.13.17a46.41,46.41,0,0,0-6.44,10.71l-.1.21h-.23l-11.65.85.39-.35c-.92,6-1.85,12.38-2.89,19.09l-.28-.5,10.83,4.26.28.12v.29a46.71,46.71,0,0,0,3,12.1l.12.29-.21.23L259.19,165v-.66L270.72,180l-.67-.17,10.7-4.63.31-.14.27.21A46.33,46.33,0,0,0,292,181.7l.32.14v.34c.26,3.65.54,7.63.82,11.65l-.49-.54,19.17,2.81-.64.37c1.35-3.44,2.77-7.14,4.27-10.86l.13-.34h.36a46.64,46.64,0,0,0,12-3h0l.34-.13.27.23,8.8,7.66h-.73l15.57-11.41-.19.7-4.63-10.7-.14-.33.22-.27a46.84,46.84,0,0,0,6.48-10.63l.14-.32h.34l11.65-.82-.52.48q1.51-9.77,2.95-19.09l.34.6L358,134l-.31-.11v-.32a47,47,0,0,0-2.94-12.1l-.11-.29.2-.24,7.67-8.79v.62l-11.4-15.6.55.15-10.71,4.62-.24.11-.2-.16a46.61,46.61,0,0,0-10.65-6.48l-.23-.1v-.23c-.28-4.24-.54-8-.78-11.65l.29.32-19.2-3.13.29-.16c-1.74,4.32-3.17,7.88-4.35,10.83l-.05.11h-.11a47.68,47.68,0,0,0-9.25,1.85l-2.24.71a4.57,4.57,0,0,1-.74.24,4.64,4.64,0,0,1,.72-.32c.48-.19,1.21-.48,2.2-.81a45.59,45.59,0,0,1,9.3-2l-.15.12c1.14-3,2.52-6.53,4.2-10.89l.07-.2H310l19.1,2.85h.27v.28c.27,3.6.55,7.41.86,11.65l-.23-.34A47.82,47.82,0,0,1,340.92,101l-.44-.07,10.68-4.63.34-.15.21.3L363.17,112l.23.33-.26.29-7.62,8.83.08-.53a48,48,0,0,1,3,12.37l-.33-.45,10.87,4.31.41.15-.08.44q-1.41,9.31-2.9,19.09l-.07.45h-.45l-11.65.83.48-.34a47.49,47.49,0,0,1-6.59,10.9l.09-.6q2.29,5.29,4.62,10.7l.19.43-.38.28-15.57,11.43-.38.28-.35-.32-8.81-7.64.6.1h0A47.89,47.89,0,0,1,316,186.43l.49-.38c-1.47,3.71-2.93,7.41-4.28,10.87l-.17.44-.47-.08-19.09-2.93-.46-.08v-.46c-.29-4-.56-8-.81-11.65l.34.49a47.92,47.92,0,0,1-10.9-6.61l.59.08-10.71,4.63-.39.13-.27-.35c-3.95-5.42-7.82-10.7-11.41-15.59l-.25-.35.28-.31,7.67-8.79-.1.51a47.9,47.9,0,0,1-3-12.36l.3.4-10.85-4.29-.35-.14.06-.37c1-6.69,2-13.07,3-19.08l0-.34h.35l11.64-.79-.33.23a47.69,47.69,0,0,1,6.61-10.83l-.05.36-4.63-10.72-.09-.22.19-.14,15.64-11.34.12-.09.11.1,6.48,5.75L293,93.64A6.76,6.76,0,0,1,293.47,94.19Z"/></g><path class="cls-1" d="M389.14,235A91.22,91.22,0,0,0,391,214.67c-.13-6.76-1.61-13.61-5.16-19.35a33.56,33.56,0,0,0-5.12,20.93,30.93,30.93,0,0,0,8.16,19"/><path class="cls-1" d="M380.43,253.07c.09-7.27,0-14.62-1.69-21.68s-5.26-13.9-11-18.33a38.27,38.27,0,0,0,.61,22.74c2.51,7.29,5.87,12.73,12.1,17.27"/><path class="cls-1" d="M369.41,274.56c1-6.5,1.78-13.08,1.08-19.61s-3-13.06-7.67-17.72a34.57,34.57,0,0,0-2.17,20.43c1.38,6.81,3.73,12.09,8.76,16.9"/><path class="cls-1" d="M361.4,289.92c-.35-7.38-.87-14.82-3-21.87s-6.19-13.77-12.31-17.9a38.71,38.71,0,0,0,2,23c3,7.23,6.74,12.54,13.32,16.76"/><path class="cls-1" d="M349.48,308c.23-6.77.33-13.61-1.13-20.22s-4.61-13.05-9.89-17.29a35.66,35.66,0,0,0,.11,21.18c2.19,6.84,5.21,12,10.91,16.33"/><path class="cls-1" d="M339.57,323.56c.24-6.77.33-13.61-1.12-20.22s-3.87-12.42-9.14-16.66c-2.12,6.85-2.83,13.72-.64,20.55s5.2,12,10.9,16.33"/><path class="cls-1" d="M380.46,252.87a69.74,69.74,0,0,1,14.65-7.53A56.87,56.87,0,0,1,407.65,242a23.07,23.07,0,0,1,12.73,1.7,37.41,37.41,0,0,1-39.92,9.21"/><path class="cls-1" d="M349.46,308.16A56.47,56.47,0,0,1,361.38,302a45.66,45.66,0,0,1,10.2-2.75,18.75,18.75,0,0,1,10.35,1.38,30.44,30.44,0,0,1-32.47,7.5"/><path class="cls-1" d="M341.69,320.47c4-1.56,9.37-4.78,13.63-5.32a46.57,46.57,0,0,1,10.55-.42,18.81,18.81,0,0,1,9.79,3.66,30.75,30.75,0,0,1-16.65,5c-5.88,0-12.4.28-17.32-2.93"/><path class="cls-1" d="M371,273.22a69.57,69.57,0,0,1,14.66-7.53,56.12,56.12,0,0,1,12.53-3.39A23.17,23.17,0,0,1,411,264,37.46,37.46,0,0,1,371,273.22"/><path class="cls-1" d="M358.36,295.14A70.12,70.12,0,0,1,372,285.82a56,56,0,0,1,12-4.93,23.07,23.07,0,0,1,12.84.08,37.41,37.41,0,0,1-38.44,14.17"/><path class="cls-1" d="M388.2,237.25a46.79,46.79,0,0,0,36.52-22.69c-5.49.69-11,2-15.78,4.73-8,4.63-13.35,12.43-20.74,18"/><path class="cls-1" d="M396.57,220.25A24.67,24.67,0,0,0,409.2,189.9a30.6,30.6,0,0,0-12.63,30.66"/><path class="cls-4" d="M338.64,324.81a2.32,2.32,0,0,1,.19-.31c.14-.23.34-.52.58-.89.55-.8,1.32-1.94,2.3-3.39s2.23-3.26,3.59-5.38,3-4.5,4.64-7.21,3.54-5.63,5.44-8.84,3.93-6.65,6-10.29c4.14-7.3,8.59-15.39,13-24,8.92-17.22,16.4-33.1,21.77-44.61l6.42-13.64c.75-1.58,1.33-2.83,1.74-3.7.19-.4.34-.72.46-1a1.05,1.05,0,0,1,.17-.32,2.3,2.3,0,0,1-.12.34c-.1.25-.24.57-.42,1l-1.64,3.75c-1.44,3.24-3.54,7.94-6.19,13.71-5.28,11.56-12.72,27.47-21.64,44.7-4.45,8.61-8.91,16.7-13.09,24-2.11,3.63-4.11,7.09-6.07,10.27s-3.79,6.14-5.5,8.82-3.31,5.07-4.71,7.17-2.63,3.89-3.67,5.34l-2.37,3.33-.63.86C338.73,324.72,338.65,324.82,338.64,324.81Z"/><path class="cls-1" d="M36.79,258.07a86.69,86.69,0,0,1-5.85-18.23,35.78,35.78,0,0,1,.72-18.79,31.47,31.47,0,0,1,9,18.11,29,29,0,0,1-3.56,19"/><path class="cls-1" d="M44.51,272.83c-1.59-6.64-3-13.38-2.94-20.21s2-13.81,6.31-19.06a35.89,35.89,0,0,1,4.13,21c-.79,7.19-2.74,12.87-7.5,18.32"/><path class="cls-1" d="M59,290.25c-2.21-5.75-4.33-11.61-5-17.73s.09-12.59,3.36-17.81A32.39,32.39,0,0,1,63.57,273c.15,6.52-.92,11.84-4.53,17.28"/><path class="cls-1" d="M69.57,302.63c-1.2-6.82-2.26-13.75-1.72-20.66s2.82-13.88,7.57-18.93a36.45,36.45,0,0,1,2.86,21.52c-1.25,7.23-3.58,12.87-8.74,18.09"/><path class="cls-1" d="M84.21,316.76c-1.62-6.15-3.12-12.4-3.15-18.75s1.53-12.9,5.48-17.87a33.41,33.41,0,0,1,4.28,19.42c-.59,6.7-2.3,12-6.61,17.2"/><path class="cls-1" d="M48.44,272.65a65.28,65.28,0,0,0-15-3.87,52.83,52.83,0,0,0-12.18-.51A21.65,21.65,0,0,0,10,272.46a35.12,35.12,0,0,0,38.45.19"/><path class="cls-1" d="M85.25,316.86a52.84,52.84,0,0,0-12.18-3.14,43.26,43.26,0,0,0-9.91-.42A17.54,17.54,0,0,0,54,316.71a28.57,28.57,0,0,0,31.28.15"/><path class="cls-1" d="M61.27,289.33a65.39,65.39,0,0,0-15-3.86A52.74,52.74,0,0,0,34.1,285a21.76,21.76,0,0,0-11.3,4.18,35.12,35.12,0,0,0,38.45.19"/><path class="cls-1" d="M77.4,306.78A65,65,0,0,0,63,301.06a53.66,53.66,0,0,0-12-2,21.78,21.78,0,0,0-11.74,2.73,35.13,35.13,0,0,0,38.12,5"/><path class="cls-1" d="M38.13,260A43.92,43.92,0,0,1,0,246.71a38.78,38.78,0,0,1,15.42,1.07c8.28,2.58,14.79,8.62,22.71,12.17"/><path class="cls-1" d="M27,246.1A23.13,23.13,0,0,1,9.14,220.93,28.7,28.7,0,0,1,27,246.36"/><path class="cls-4" d="M91.74,320.71a1.59,1.59,0,0,1-.24-.2l-.66-.61-2.49-2.34c-1.08-1-2.4-2.32-3.89-3.84s-3.22-3.21-5-5.16c-7.44-7.71-17.36-18.7-27.77-31.3s-19.46-24.32-25.93-32.85c-3.24-4.27-5.83-7.74-7.61-10.14l-2-2.78-.52-.73a1,1,0,0,1-.16-.26l.2.22.56.7,2.12,2.72c1.85,2.4,4.49,5.83,7.75,10,6.54,8.48,15.62,20.16,26,32.74s20.27,23.62,27.63,31.39c1.82,2,3.53,3.68,5,5.21s2.76,2.83,3.82,3.89L91,319.83l.62.64Z"/><g id="freepik--Chair--inject-181"><path class="cls-2" d="M350.19,324.81l12.67-134.15a18.23,18.23,0,0,0-16.37-19.92,13.52,13.52,0,0,0-1.42-.08L204,167.86a18.23,18.23,0,0,0-18.55,16.77L174.62,324.75Z"/><path class="cls-4" d="M330.17,324.78a2.72,2.72,0,0,0,.08-.47c0-.34.09-.8.16-1.4.13-1.25.33-3.05.57-5.36.47-4.68,1.15-11.41,2-19.72,1.63-16.69,3.88-39.69,6.36-65.1,1.89-19.8,3.65-38.13,5.07-53h0q0-1.12-.06-2.22a8.83,8.83,0,0,0-.23-2.18,6.69,6.69,0,0,0-2.33-3.51,6.51,6.51,0,0,0-3.76-1.38l-3.71-.07L322,170.13,314,170h-2.78s.24,0,.71.05l2.07.08,7.91.22,12.36.3,3.7.1a6.14,6.14,0,0,1,5.68,4.6,8.11,8.11,0,0,1,.21,2.09c0,.72,0,1.45.05,2.19h0c-1.45,14.92-3.24,33.25-5.17,53.05-2.42,25.41-4.61,48.42-6.19,65.11-.77,8.32-1.39,15-1.82,19.74-.2,2.31-.35,4.12-.46,5.37-.05.6-.08,1.06-.11,1.4A3.19,3.19,0,0,0,330.17,324.78Z"/></g><path class="cls-4" d="M270,58.14a37.44,37.44,0,0,1-21.16,52.49c-4.59,1.57-9.66,2.36-13.28,5.6-2.77,2.45-4.26,5.94-6.43,9s-5.61,5.69-9.23,5c-2.69-.52-4.94-2.92-7.75-3.11s-5.2,1.86-7.74,3.09a14.78,14.78,0,0,1-18-4.64c-2-2.83-3.1-6.53-6.2-8.08s-6.79-.19-10.24-.38a12,12,0,0,1-1.57-.29,11.86,11.86,0,0,1-8.56-14.41c.8-2.55,2.54-4.66,2.35-7.57s-2.56-5.11-4.22-7.53a17.54,17.54,0,0,1,5.2-24c4.19-2.5,9.39-3.17,12.82-6.77s3.81-9,4.41-14a39.89,39.89,0,0,1,4.53-15.49,18.29,18.29,0,0,1,12.78-9.22c4-.52,8.21.7,12.08-.63,4.36-1.53,6.95-5.83,10.17-9.14A27.12,27.12,0,0,1,243.28.31a19.17,19.17,0,0,1,14.28,9.35c2.7,5.25,1.49,12.59-3.48,15.74"/><g id="freepik--Character--inject-181"><path class="cls-2" d="M202.22,89.8a6.43,6.43,0,0,0-2.65-1.64h.19a3.47,3.47,0,0,0-.55-.08,2.51,2.51,0,0,0-2,.29h0a4.73,4.73,0,0,0-2.56,2.32,5.66,5.66,0,0,0,.79,5.79,4.31,4.31,0,0,0,7.87-1.65A5.34,5.34,0,0,0,202.22,89.8Z"/><path class="cls-5" d="M198.73,56.67c.93-13.37,9.9-29.71,23.21-28.21l41.52,10.8a7.84,7.84,0,0,1,7,8l-5.18,100.3.29.06s-9.61,28.2-37,19.44c-5.45-1.74-7.91-7.71-9-13.85h-.28v-2.1a66,66,0,0,1-.1-13.77h0V126c0,.08-17.06-3-20.45-25.26C197,89.68,197.69,71.56,198.73,56.67Z"/><path class="cls-4" d="M206.14,70.85a2.85,2.85,0,0,0,2.74,2.9,2.74,2.74,0,0,0,3-2.45s0-.08,0-.11a2.86,2.86,0,0,0-2.73-2.9,2.74,2.74,0,0,0-3,2.47A.28.28,0,0,0,206.14,70.85Z"/><path class="cls-4" d="M202.57,68.14c.35.38,2.53-1.21,5.61-1.18s5.31,1.58,5.65,1.21c.16-.17-.19-.84-1.17-1.56a7.71,7.71,0,0,0-4.52-1.43,7.47,7.47,0,0,0-4.47,1.41C202.75,67.3,202.43,68,202.57,68.14Z"/><path class="cls-4" d="M235.8,71.36a2.85,2.85,0,0,0,2.74,2.9,2.74,2.74,0,0,0,3-2.45s0-.08,0-.11a2.86,2.86,0,0,0-2.73-2.9,2.73,2.73,0,0,0-3,2.45S235.8,71.32,235.8,71.36Z"/><path class="cls-4" d="M232.82,68.92c.36.38,2.54-1.21,5.61-1.18s5.32,1.58,5.65,1.21c.17-.17-.19-.84-1.17-1.56A7.71,7.71,0,0,0,238.39,66a7.44,7.44,0,0,0-4.46,1.41C233,68.08,232.65,68.76,232.82,68.92Z"/><path class="cls-4" d="M221.51,89.65c0-.17-1.89-.51-5-.93-.78-.09-1.53-.25-1.65-.79a3.83,3.83,0,0,1,.54-2.32l2.36-6c3.28-8.49,5.66-15.48,5.32-15.61s-3.28,6.65-6.56,15.14c-.79,2.1-1.55,4.09-2.27,6a4.56,4.56,0,0,0-.43,3.08,2,2,0,0,0,1.29,1.16,5.93,5.93,0,0,0,1.33.19C219.57,89.8,221.5,89.83,221.51,89.65Z"/><path class="cls-6" d="M219.14,126A56.7,56.7,0,0,0,249,118.27s-7.34,15.26-29.63,13Z"/><path class="cls-6" d="M222.76,97.07a5.52,5.52,0,0,1,5-2,5,5,0,0,1,3.48,1.9,3.21,3.21,0,0,1,.22,3.66,3.76,3.76,0,0,1-4,1,11.71,11.71,0,0,1-3.91-2.38,3.58,3.58,0,0,1-.87-.91,1,1,0,0,1,0-1.15"/><path class="cls-4" d="M230.57,91.84c-.5,0-.53,3.31-3.41,5.66s-6.42,2-6.45,2.42c-.05.21.79.66,2.29.71a8.34,8.34,0,0,0,5.38-1.84A7.2,7.2,0,0,0,231,94.05C231.14,92.65,230.77,91.82,230.57,91.84Z"/><path class="cls-4" d="M231.48,61.56c.3.84,3.37.46,7,.92s6.52,1.47,7,.72c.22-.36-.28-1.15-1.45-2a11.76,11.76,0,0,0-5.18-1.85,11.57,11.57,0,0,0-5.47.61C232,60.48,231.35,61.13,231.48,61.56Z"/><path class="cls-4" d="M203.79,57.25c.54.7,2.66,0,5.21,0s4.7.5,5.2-.23c.22-.35-.11-1.05-1-1.72A7,7,0,0,0,209,54.13a7.17,7.17,0,0,0-4.17,1.37C203.86,56.19,203.57,56.91,203.79,57.25Z"/><path class="cls-2" d="M269,88.56a6.23,6.23,0,0,0-2.61-1.64h.2a2.62,2.62,0,0,0-.56-.09,2.48,2.48,0,0,0-2,.3h0a4.75,4.75,0,0,0-2.55,2.32,5.63,5.63,0,0,0,.79,5.79,4.3,4.3,0,0,0,7.86-1.65A5.35,5.35,0,0,0,269,88.56Z"/><polygon class="cls-4" points="192.89 153.46 217.66 139.16 266.32 134.35 266.64 141.49 253.5 240.9 264.2 324.77 186.23 324.77 192.89 153.46"/><path class="cls-4" d="M215.84,149.32,214.31,135a4.55,4.55,0,0,1,4-5h.06l45.38-4.1a2.14,2.14,0,0,1,2.33,2,.49.49,0,0,1,0,.12l.51,17-13.14,22.3L240,171.56H223.48L214,161.42Z"/><path class="cls-2" d="M259.94,139.56a18.18,18.18,0,0,1-1.81-.18,31.48,31.48,0,0,0-4.95-.09,46.83,46.83,0,0,0-7.27,1.05c-2.71.57-5.65,1.37-8.77,2.13a60,60,0,0,1-8.94,1.59,23.59,23.59,0,0,1-7.4-.5,16.09,16.09,0,0,1-4.63-1.92c-.38-.25-.75-.52-1.1-.8s-.36-.32-.34-.33.54.36,1.56.94a17.13,17.13,0,0,0,4.6,1.72,24,24,0,0,0,7.27.37,63.05,63.05,0,0,0,8.84-1.62c3.11-.76,6.07-1.55,8.81-2.09a44.39,44.39,0,0,1,7.35-.94,26.13,26.13,0,0,1,5,.27c.59.1,1,.18,1.34.26A2.25,2.25,0,0,1,259.94,139.56Z"/><g class="cls-7"><path d="M216.92,141.79c-1.22,3.34-1.25,7.48,1.21,10,2,2.09,5.24,2.61,8.08,2a25.73,25.73,0,0,0,7.89-3.54c6.25-3.72,12.59-7.57,19.69-9.14a2.62,2.62,0,0,0,1.27-.54.84.84,0,0,0,.1-1.17l0-.05a1,1,0,0,0-.59-.17c-6.28-.63-12.32,1.85-18.47,3.23s-13.22,2.83-18.85-.49"/></g><path class="cls-2" d="M225.57,129.56a4.06,4.06,0,0,0-1.56,1.49c-.71,1.15-.62,3.1-.62,5.21.12,4.24.82,7.62.65,7.66a7.69,7.69,0,0,1-.61-2.19,33.3,33.3,0,0,1-.6-5.45,23.08,23.08,0,0,1,.06-3,5.24,5.24,0,0,1,.78-2.41,3,3,0,0,1,1.28-1.14A1.79,1.79,0,0,1,225.57,129.56Z"/><path class="cls-2" d="M237.57,142c-.18,0,.23-3.14-.33-6.92s-1.78-6.68-1.61-6.75a6.13,6.13,0,0,1,.93,1.84A22.61,22.61,0,0,1,238,140,6,6,0,0,1,237.57,142Z"/><path class="cls-2" d="M252.19,127.12a4.44,4.44,0,0,1,.86,1.69,11.74,11.74,0,0,1-.6,8.95,4.1,4.1,0,0,1-1.08,1.56,18.76,18.76,0,0,0,1.71-6C253.34,129.82,252,127.18,252.19,127.12Z"/><path class="cls-4" d="M159.72,276s11-81,14.21-95.69a42,42,0,0,1,19-26.79l3,146.76-13.41,16.88-15,5.74a15.56,15.56,0,0,1-10.7.17l-14.37-5-1.22-27.38,12.14-3.51Z"/><path class="cls-4" d="M309.21,152.08a36,36,0,0,1,22.1,25.67c8.58,37.81,23.26,88.12,23.49,104.35.29,20.67-8.75,34.82-20.55,37.43-6.75,1.49-52.66.74-77.59.21a18.56,18.56,0,0,1-18-16.25h0a18.55,18.55,0,0,1,15.72-20.69l50.51-7.43L295.51,223l9.28-72.59Z"/><path class="cls-4" d="M265.34,135.86l20.23,8.27,19.24,6.24.46,57.57L293.82,324.63l-40.15.15.08-52.08a303.24,303.24,0,0,1,4.88-75l6.11-49.51"/><path class="cls-4" d="M294.94,217.66a2.74,2.74,0,0,1,.15.58c.09.45.2,1,.33,1.68.28,1.54.67,3.64,1.13,6.19.93,5.31,2.18,12.51,3.57,20.46s2.52,15.17,3.41,20.48c.4,2.57.73,4.67,1,6.22.1.69.18,1.25.24,1.7a2,2,0,0,1,0,.6,3.1,3.1,0,0,1-.15-.58c-.1-.45-.21-1-.35-1.68-.28-1.54-.67-3.63-1.15-6.19-.94-5.23-2.21-12.46-3.57-20.46s-2.57-15.23-3.4-20.48c-.4-2.57-.72-4.67-1-6.22-.09-.69-.16-1.25-.22-1.7A2,2,0,0,1,294.94,217.66Z"/><path class="cls-4" d="M313.89,160.26a10.66,10.66,0,0,1-1.55.57,36.41,36.41,0,0,0-4.11,1.78,31.72,31.72,0,0,0-11.11,9.47,23.14,23.14,0,0,0-2.19,3.56,22.46,22.46,0,0,0-1.31,3.66,35.33,35.33,0,0,0-1.1,6.54c-.17,1.88-.2,3.42-.21,4.48a11.36,11.36,0,0,1,0,1.65,7.72,7.72,0,0,1-.18-1.65,42.41,42.41,0,0,1,0-4.51,33.71,33.71,0,0,1,1-6.64,22.45,22.45,0,0,1,1.32-3.77,23,23,0,0,1,2.23-3.65,30.82,30.82,0,0,1,11.39-9.5,27.67,27.67,0,0,1,4.22-1.63A7.4,7.4,0,0,1,313.89,160.26Z"/><path class="cls-4" d="M253.22,283a4.12,4.12,0,0,0,.7-.05l2-.25,7.38-1,24.32-3.61,17.68-2.72h-.07a12.39,12.39,0,0,1,6.13,2.71,13.1,13.1,0,0,1,3.36,4,15.46,15.46,0,0,1,1.5,4.33.81.81,0,0,0,0-.31,2.83,2.83,0,0,0-.12-.9A11.59,11.59,0,0,0,315,282a13.37,13.37,0,0,0-3.36-4.18,12.67,12.67,0,0,0-6.32-2.88h-.07l-17.66,2.66-24.29,3.77-7.35,1.2-2,.36A2.85,2.85,0,0,0,253.22,283Z"/><path class="cls-4" d="M257.28,319.76a1.94,1.94,0,0,0,.48-.16,10.6,10.6,0,0,0,1.33-.6,14.8,14.8,0,0,0,4.17-3.33,19,19,0,0,0,3.79-6.95,22.55,22.55,0,0,0,.73-9.66,18.55,18.55,0,0,0-4-8.83,19.54,19.54,0,0,0-6.11-5,17.44,17.44,0,0,0-5-1.77c-.61-.13-1.11-.13-1.44-.18a1.4,1.4,0,0,0-.5,0,21.84,21.84,0,0,1,6.79,2.31,19.79,19.79,0,0,1,5.89,5,18.28,18.28,0,0,1,3.83,8.58,22.25,22.25,0,0,1-.67,9.39,19,19,0,0,1-3.6,6.84,15.54,15.54,0,0,1-4,3.4C257.91,319.43,257.26,319.7,257.28,319.76Z"/><g class="cls-8"><polygon points="295.69 221.4 288.15 277.7 297.7 275.56 300.66 251 295.69 221.4"/></g><g class="cls-7"><path d="M141.5,290.65a38.57,38.57,0,0,1,13.72,0,13.72,13.72,0,0,1,9.15,7,15.91,15.91,0,0,1,1.56,10.81c-.65,3.17-1.33,6.45-3.65,8.7-3.42,3.32-6.79,4.39-11.21,3.61l-8.5-2.76Z"/></g><path class="cls-4" d="M148.82,320.2a2.87,2.87,0,0,0,.57.24,11.37,11.37,0,0,0,1.71.46,12.91,12.91,0,0,0,6.47-.34,11.34,11.34,0,0,0,3.92-2.24,14.15,14.15,0,0,0,3.13-4.12,19.79,19.79,0,0,0,1.79-5.43,16.06,16.06,0,0,0,.14-6.14,18.9,18.9,0,0,0-2.27-5.7,13.31,13.31,0,0,0-8.58-6.36,22.43,22.43,0,0,0-4.47-.5,43.63,43.63,0,0,0-6.46.42l-1.74.25a1.74,1.74,0,0,0-.6.13,3.11,3.11,0,0,0,.61,0l1.75-.14a49.31,49.31,0,0,1,6.43-.24,22.25,22.25,0,0,1,4.37.56,13,13,0,0,1,4.54,2.08c2.89,2,5,5.67,5.87,9.63a15.78,15.78,0,0,1-.13,5.93,19.49,19.49,0,0,1-1.71,5.29,13.64,13.64,0,0,1-3,4,11.15,11.15,0,0,1-3.74,2.21,13.21,13.21,0,0,1-6.3.52C149.64,320.45,148.84,320.15,148.82,320.2Z"/><g class="cls-7"><path d="M252,283.34c4,1.1,8.25,2.34,11,5.46a21,21,0,0,1,1.29,24.68,16.79,16.79,0,0,1-4.94,5.13,10.47,10.47,0,0,1-6.65.93,16.92,16.92,0,0,1-12.9-11.7,23,23,0,0,1,2.59-18.41c1.62-2.43,6.82-5.21,9.6-6.09"/></g><path class="cls-2" d="M325.28,297.29a7.94,7.94,0,0,1-.43-1.21c-.25-.78-.61-1.91-1.1-3.29a35.76,35.76,0,0,0-5.18-10.07,20.34,20.34,0,0,0-9-6.69,22.76,22.76,0,0,0-4.6-1,4.57,4.57,0,0,1,1.28,0,13.44,13.44,0,0,1,3.44.67,19.69,19.69,0,0,1,9.26,6.72,33,33,0,0,1,5.17,10.27c.45,1.41.76,2.56,1,3.36A4.69,4.69,0,0,1,325.28,297.29Z"/><path class="cls-2" d="M290.57,193.83a4.11,4.11,0,0,1,.23.8c.13.58.32,1.36.55,2.34.47,2,1.11,5,1.88,8.61,1.54,7.28,3.53,17.38,5.49,28.57s3.48,21.36,4.49,28.74c.51,3.68.9,6.67,1.15,8.74.11,1,.2,1.79.27,2.38a4.49,4.49,0,0,1,.06.84,4.89,4.89,0,0,1-.17-.83c-.09-.58-.21-1.37-.37-2.36-.31-2.11-.75-5.08-1.3-8.72-1.11-7.36-2.7-17.52-4.65-28.7s-3.88-21.29-5.33-28.59c-.72-3.61-1.3-6.55-1.72-8.64l-.45-2.35A4.77,4.77,0,0,1,290.57,193.83Z"/><path class="cls-2" d="M307.65,153.34c0,.08-1.11.71-2.82,1.94a34.26,34.26,0,0,0-6,5.54,33.1,33.1,0,0,0-4.49,6.84c-.93,1.89-1.37,3.12-1.45,3.09a2.76,2.76,0,0,1,.22-.9,19,19,0,0,1,.9-2.35,28.85,28.85,0,0,1,4.42-7,29.64,29.64,0,0,1,6.21-5.51,19,19,0,0,1,2.18-1.26A3,3,0,0,1,307.65,153.34Z"/><path class="cls-2" d="M187.16,287a1.13,1.13,0,0,1,0-.26v-3.6c0-2.48-.06-6.07-.34-10.49-.15-2.21-.38-4.63-.77-7.2s-1-5.29-1.71-8.13c-1.4-5.68-3.4-11.9-3.82-18.72A60.31,60.31,0,0,1,183,219.66c1.51-5.68,3.19-10.7,4.4-15a97,97,0,0,0,2.42-10.21c.24-1.22.33-2.18.44-2.82a4.17,4.17,0,0,1,.11-.74c0-.2,0-.25.06-.24a1,1,0,0,1,0,.25,3.52,3.52,0,0,1-.06.74c-.07.65-.13,1.62-.34,2.84a85.32,85.32,0,0,1-2.41,10.32c-1.16,4.28-2.8,9.31-4.29,15a60.37,60.37,0,0,0-2.34,18.76c.42,6.74,2.38,12.93,3.77,18.63a78,78,0,0,1,1.66,8.18c.38,2.59.59,5,.71,7.24.24,4.44.2,8,.18,10.52,0,1.21,0,2.17,0,2.86v.74A.86.86,0,0,1,187.16,287Z"/><path class="cls-9" d="M291.2,171.14l-.32-.08-.9-.28a19.56,19.56,0,0,0-3.55-.7,29.17,29.17,0,0,0-13.08,1.79A50.46,50.46,0,0,0,265,175.8c-2.88,1.64-5.85,3.58-9,5.59a86.25,86.25,0,0,1-10.23,5.76,35.72,35.72,0,0,1-12.16,3.32,25.92,25.92,0,0,1-12.36-2.36,68.55,68.55,0,0,1-10.17-5.88c-3.1-2.08-6-4.09-8.93-5.69a33.84,33.84,0,0,0-8.48-3.46,21.83,21.83,0,0,0-7.51-.5,17.39,17.39,0,0,0-5.48,1.51,15.59,15.59,0,0,0-4,2.78,1.21,1.21,0,0,1,.21-.24c.15-.15.37-.39.67-.67a13.65,13.65,0,0,1,3-2,17.07,17.07,0,0,1,5.54-1.62,22.25,22.25,0,0,1,7.63.43,33.89,33.89,0,0,1,8.6,3.45c2.93,1.59,5.88,3.59,9,5.66a69,69,0,0,0,10.12,5.81A25.49,25.49,0,0,0,233.57,190a35.28,35.28,0,0,0,12-3.26A86,86,0,0,0,255.75,181c3.16-2,6.14-3.92,9.05-5.56a50.4,50.4,0,0,1,8.4-3.9,28.76,28.76,0,0,1,13.22-1.64,18.9,18.9,0,0,1,3.56.8l.89.33A1,1,0,0,1,291.2,171.14Z"/><path class="cls-9" d="M329.42,181.77a9,9,0,0,1-1,1.14,13.66,13.66,0,0,1-1.29,1.23,21.82,21.82,0,0,1-1.81,1.5,27.25,27.25,0,0,1-2.36,1.61,32.14,32.14,0,0,1-2.87,1.59,36.33,36.33,0,0,1-7.08,2.5,36.78,36.78,0,0,1-7.47.84,32.61,32.61,0,0,1-3.28-.19,26.62,26.62,0,0,1-2.82-.42c-.87-.14-1.62-.39-2.29-.56a16.66,16.66,0,0,1-1.69-.55,7.74,7.74,0,0,1-1.39-.59c0-.11,2,.73,5.44,1.33a26,26,0,0,0,2.79.36c1,.13,2.1.11,3.24.14a34.5,34.5,0,0,0,14.35-3.29c1-.52,2-1,2.86-1.53s1.6-1,2.36-1.54C327.9,183.31,329.33,181.69,329.42,181.77Z"/><path class="cls-9" d="M186.68,200.86a8.12,8.12,0,0,1-2.36.07,22.25,22.25,0,0,1-5.6-1.11,23.21,23.21,0,0,1-5.13-2.5,7.77,7.77,0,0,1-1.84-1.48,41.72,41.72,0,0,0,7.14,3.48A42.12,42.12,0,0,0,186.68,200.86Z"/><path class="cls-9" d="M292.74,207.11a25.28,25.28,0,0,0-3.58-2.2,24,24,0,0,0-11.16-2c-4.86.07-10.53,1.35-16.74,3s-13,3.69-20.32,5.06a71.18,71.18,0,0,1-10.79,1.24,65.66,65.66,0,0,1-10.11-.48,104.88,104.88,0,0,1-16.72-3.62c-4.67-1.38-8.39-2.68-11-3.58l-2.95-1.05-.76-.29c-.17-.07-.26-.11-.25-.12a.9.9,0,0,1,.27.07l.78.24,3,1c2.59.84,6.32,2.08,11,3.42a109.15,109.15,0,0,0,16.68,3.5,66.84,66.84,0,0,0,10,.44,72.88,72.88,0,0,0,10.72-1.24c7.28-1.37,14.06-3.42,20.29-5S273,202.63,278,202.6a23.78,23.78,0,0,1,11.26,2.23l.85.45.72.46a7.26,7.26,0,0,1,1.08.76l.63.52Z"/><path class="cls-10" d="M115.44,319.29s10.45,1.54,14.45,3.16c4.34,1.75,9.7.73,13.34-1.63a38.34,38.34,0,0,0,5.78-4.51l13.36.07a16.06,16.06,0,0,0,3-16.5,17.83,17.83,0,0,0-3-5.28c-1.55-1.75-4-3.19-8.34-4l-15.94,3.1s-20.21-.34-28.36-.72a9.12,9.12,0,0,0-5.53,1.53c-1.91,1.27-4.07,3-3.9,4.07.12.81-1.2,6,2.73,9.35,0,0-3.54,2.69-1.71,5.22l.88,1.12s-2.4,3-1.23,4.32,11.57,7.74,15.36,6.34.76-4.94-.89-5.61"/><path class="cls-11" d="M105.77,302.56a7.55,7.55,0,0,1,1.3.49c.82.33,2,.8,3.51,1.32.75.25,1.58.52,2.47.77s1.87.48,2.88.83a6.06,6.06,0,0,1,2.85,1.8,3.57,3.57,0,0,1,.7,3.53,2.85,2.85,0,0,1-1.33,1.37,5.37,5.37,0,0,1-1.76.45,15.57,15.57,0,0,1-3.34-.25,29.59,29.59,0,0,1-5.39-1.53c-1.49-.56-2.67-1.09-3.48-1.45a8,8,0,0,1-1.24-.62,7.54,7.54,0,0,1,1.31.46c.83.32,2,.8,3.51,1.32a31.82,31.82,0,0,0,5.36,1.42,15.18,15.18,0,0,0,3.23.22,4.67,4.67,0,0,0,1.6-.41,2.3,2.3,0,0,0,1.12-1.16,3.14,3.14,0,0,0-.62-3.08,5.79,5.79,0,0,0-2.65-1.69c-1-.35-2-.58-2.85-.86s-1.72-.56-2.47-.83c-1.5-.55-2.68-1.07-3.48-1.46A9,9,0,0,1,105.77,302.56Z"/><path class="cls-11" d="M106.87,295a8.81,8.81,0,0,1,1.29.5c.82.34,2,.82,3.49,1.35s3.28,1.11,5.29,1.64A7.17,7.17,0,0,1,120,299.8a2.61,2.61,0,0,1,.88,1.63,3.33,3.33,0,0,1-.31,1.86,4.49,4.49,0,0,1-2.79,2.27,7.4,7.4,0,0,1-3.34.2,32.1,32.1,0,0,1-5.34-1.67l-3.55-1.31a9.49,9.49,0,0,1-1.27-.54,7.75,7.75,0,0,1,1.33.38l3.55,1.18a35.83,35.83,0,0,0,5.3,1.56,7.14,7.14,0,0,0,3.15-.2,4.11,4.11,0,0,0,2.52-2.06,2.45,2.45,0,0,0-.46-3,6.86,6.86,0,0,0-2.89-1.25c-2-.56-3.82-1.17-5.3-1.74s-2.65-1.1-3.45-1.48A8.38,8.38,0,0,1,106.87,295Z"/><path class="cls-10" d="M148.82,298.35l-9.25-3.79s-25.67-12.64-26.12-12-1.85.55-1.61,3.72,15.21,9.85,15.67,11-.46,6.62,5,10.7,9.52,4.26,9.52,4.26"/><path class="cls-11" d="M142.06,312.2h-.23l-.64-.08a14.24,14.24,0,0,1-2.41-.63,23.77,23.77,0,0,1-3.59-1.65,21.66,21.66,0,0,1-4.23-3.07,11.22,11.22,0,0,1-3.07-5.53,25.91,25.91,0,0,1-.48-3.49c0-.14,0-.28-.08-.41a.72.72,0,0,0-.24-.25,6.19,6.19,0,0,0-.75-.51c-.52-.32-1.07-.63-1.63-.95-2.22-1.24-4.59-2.5-7-3.94-1.19-.72-2.39-1.48-3.55-2.34a14.37,14.37,0,0,1-1.66-1.45,4.76,4.76,0,0,1-.7-.92,2.49,2.49,0,0,1-.2-.58,5.61,5.61,0,0,1,0-.58,4,4,0,0,1,.45-2.24,2.5,2.5,0,0,1,.84-.81,2.12,2.12,0,0,0,.36-.3l.09-.09a.33.33,0,0,1,.19-.06h.18l.28.07c1.4.47,2.67,1.06,4,1.62,2.54,1.13,5,2.27,7.27,3.37,4.61,2.19,8.74,4.21,12.2,5.93.86.42,1.68.85,2.47,1.2l2.26.95,3.63,1.52,2.28,1,.59.27.19.1-.21-.06-.6-.22-2.32-.91-3.66-1.46-2.28-.91c-.8-.35-1.61-.77-2.49-1.19l-12.23-5.84c-2.31-1.08-4.74-2.22-7.28-3.34-1.26-.55-2.56-1.15-3.89-1.59l-.24-.06h-.11v-.1h0c.29.2.07.06.13.11h0a2.21,2.21,0,0,1-.46.4,2.2,2.2,0,0,0-.71.68,3.73,3.73,0,0,0-.39,2,2,2,0,0,0,.2,1,4.48,4.48,0,0,0,.63.82,15.27,15.27,0,0,0,1.6,1.4c1.14.85,2.33,1.61,3.51,2.32,2.37,1.44,4.73,2.71,7,4,.56.32,1.11.63,1.64,1,.26.17.53.33.78.53a1,1,0,0,1,.36.43,2.4,2.4,0,0,1,.1.48,25.54,25.54,0,0,0,.45,3.47,11.1,11.1,0,0,0,2.94,5.39,22.19,22.19,0,0,0,4.13,3.08,24.38,24.38,0,0,0,3.53,1.7,17.48,17.48,0,0,0,2.37.71c.27.06.49.09.63.11Z"/><path class="cls-11" d="M113.44,312.81a3.52,3.52,0,0,1,1,.31,9.61,9.61,0,0,1,2.41,1.47,8.77,8.77,0,0,1,1.39,1.4,3,3,0,0,1,.7,2.2,2.41,2.41,0,0,1-1.76,1.83,4.76,4.76,0,0,1-2.72-.14,49.63,49.63,0,0,1-8.52-3.64,24.09,24.09,0,0,1-2.37-1.48,6.26,6.26,0,0,1-.81-.63,4.36,4.36,0,0,1,.9.49c.57.34,1.4.81,2.44,1.35a61.31,61.31,0,0,0,8.47,3.49,4.48,4.48,0,0,0,2.46.15,2,2,0,0,0,1.5-1.49,2.62,2.62,0,0,0-.61-1.92,8.44,8.44,0,0,0-1.29-1.38A14.53,14.53,0,0,0,113.44,312.81Z"/><path class="cls-5" d="M260.5,287.28l-16.48.34s-24.7-8.93-29.78-8.07c-4.58.76-21.33,11.89-24.61,14.1a1.94,1.94,0,0,0-.8,1h0a3.58,3.58,0,0,0,2,4.56l.35.15-.15.5a5.86,5.86,0,0,0-.26,2,2.43,2.43,0,0,0,2.6,2.22,2.45,2.45,0,0,0,1.89-1.17l-.63,1.12a2.69,2.69,0,0,0-.35,1.5l.06,1a2.74,2.74,0,0,0,1.89,2.46h0a2.77,2.77,0,0,0,2.88-.76c2.12-2.33,6.71-7,9.81-7.53a71.75,71.75,0,0,1,10.15-.51,3.42,3.42,0,0,1,3.18,2.2h0c-1.84.13-14.68,6.82-19.22,9.22a4.86,4.86,0,0,0-2.64,3.66c-.17,1.42.55,2.91,3.36,2.25,6-1.41,16.9-6.4,16.9-6.4s5.61-1.6,9.24,1c5.1,3.6,7.44,4.92,11.83,3.47a38.23,38.23,0,0,0,7.62-3.54l14.94,1.45S273.42,298.56,260.5,287.28Z"/><path class="cls-6" d="M222.35,291.79c0,.1-1.76-.46-4.64-.64a24,24,0,0,0-20,8.52c-1.86,2.21-2.66,3.85-2.74,3.8a4.69,4.69,0,0,1,.55-1.15,20.82,20.82,0,0,1,1.94-2.86,23.22,23.22,0,0,1,20.25-8.64,19.76,19.76,0,0,1,3.41.58A6.76,6.76,0,0,1,222.35,291.79Z"/><path class="cls-6" d="M219.73,285.79a19.81,19.81,0,0,0-4.83-.84,21.06,21.06,0,0,0-11.24,3.18,45.16,45.16,0,0,0-9.06,7.66l-2.48,2.64a9.27,9.27,0,0,1-.94.94,5.61,5.61,0,0,1,.81-1.06c.54-.66,1.35-1.6,2.37-2.74a41.6,41.6,0,0,1,9.06-7.84,20.53,20.53,0,0,1,11.49-3.11,12.93,12.93,0,0,1,3.59.66,6.43,6.43,0,0,1,.92.35A.77.77,0,0,1,219.73,285.79Z"/></g><path class="cls-4" d="M179.35,60.54c4.06,1.22,8.13-1.91,10.84-5.18s5.25-7.17,9.33-8.39c5.29-1.57,11.89,1.82,16-1.78,2.91-2.54,3.21-7.55,6.33-9.49s7.07-.11,10.67.57a16.49,16.49,0,0,0,13.26-3.51c3.62-3,7.38-6.19,7.38-10.92-4.69-4.7-10.82-9.45-17.43-8.19-3.4.64-6.33,2.81-9.68,3.66-4.51,1.14-9.29-.25-13.94.21a17.75,17.75,0,0,0-13.55,9c-2.09,3.81-2.88,8.58-6.25,11.31-1.57,1.25-3.55,1.93-5.23,3A16.14,16.14,0,0,0,181,49.66,47.75,47.75,0,0,0,179.35,60.54Z"/><path class="cls-4" d="M242.38,32.86a34.51,34.51,0,0,0,3.87,16.73,49.08,49.08,0,0,0,8.31,8.73c-1.86,4.61-.64,21.72,7.63,19.78a4.25,4.25,0,0,0,3.11-2.45l-.89,51.53a8.77,8.77,0,0,0,7.75-3.42,10.84,10.84,0,0,0,2.63,1.33A12.15,12.15,0,0,0,288,121c1.53-2.13,2.48-4.67,4.67-6a17.39,17.39,0,0,1,6.47-1.47,14.1,14.1,0,0,0,8.26-22.93,12,12,0,0,1-3.33-4.8,14.09,14.09,0,0,1,.89-5.56,11.3,11.3,0,0,0-7.12-12.64c-2.87-1-6.58-1-8-3.73s.39-5.72,1.46-8.5A17.06,17.06,0,0,0,290.08,41a23.31,23.31,0,0,0-1.22-2.87,22.36,22.36,0,0,0-19.24-12.39,15.5,15.5,0,0,0-14-12.29,18.79,18.79,0,0,0-16.4,9.43c-1.66,2.67-8,4.66-11,5.55C226.79,28.85,239.49,33,242.38,32.86Z"/><path class="cls-2" d="M251,26.2a5.94,5.94,0,0,1,2.3,1.72c1.61,2,2.27,5.87,1.44,10.24l-.29-.44a14.4,14.4,0,0,1,9.85,8.44,11.41,11.41,0,0,1,.83,3.87,20.13,20.13,0,0,1-.44,3.87c-.41,2.54-1.11,5.37.46,7.52a16.54,16.54,0,0,0,6.66,5,24.19,24.19,0,0,1,6.8,4.55,18,18,0,0,1,3.13,21.51,14,14,0,0,1-1.39,2.11c-.37.45-.54.7-.62.64s.72-1,1.67-2.92a18.6,18.6,0,0,0,1.93-8.79,17.9,17.9,0,0,0-5.3-11.91,25.08,25.08,0,0,0-6.6-4.32A17.21,17.21,0,0,1,264.4,62a6.69,6.69,0,0,1-1.14-4.2,27.56,27.56,0,0,1,.54-4.05,20.64,20.64,0,0,0,.44-3.76,10,10,0,0,0-.73-3.46,13.81,13.81,0,0,0-9.16-8.08H254v-.36a13.06,13.06,0,0,0-1-9.82,8.66,8.66,0,0,0-2.83-2.38A3.53,3.53,0,0,1,251,26.2Z"/><g id="freepik--speech-bubble--inject-181"><path class="cls-9" d="M172,59.14a61.58,61.58,0,1,0-5,58h0l23.8-.39L175.28,98.06A61.27,61.27,0,0,0,172,59.14Z"/><path class="cls-4" d="M91,26.8a6.18,6.18,0,0,0-1,.41l-2.84,1.35c-.63.31-1.34.61-2.09,1L82.67,31l-2.79,1.71-3,2.26A58.25,58.25,0,0,0,63.8,49a62.58,62.58,0,0,0-9.66,23.39,63.5,63.5,0,0,0,2,30.57,67.61,67.61,0,0,0,3.2,7.85c.66,1.28,1.21,2.63,2,3.87l2.33,3.75a62.18,62.18,0,0,0,12.24,13.51,66.67,66.67,0,0,0,16.46,9.74,65.45,65.45,0,0,0,19.53,4.28,59.37,59.37,0,0,0,20.58-2.25,40.22,40.22,0,0,0,5-1.68,48,48,0,0,0,4.93-2,64.11,64.11,0,0,0,9.29-5.47,62.55,62.55,0,0,0,16-16.64l-.56.31,23.34-.59h1.38l-.86-1.08L176,97.78l.13.57a62.27,62.27,0,0,0,.14-28.89,56.27,56.27,0,0,0-4.59-12.79,44.38,44.38,0,0,0-3.15-5.74l-1.7-2.72c-.59-.88-1.29-1.68-1.91-2.52a62,62,0,0,0-36.16-22.8,58.74,58.74,0,0,0-16.19-1.33l-3.44.22-3.13.5-2.87.47c-.89.2-1.73.46-2.53.67-1.59.46-3,.76-4.2,1.21l-3,1.16-1.83.77a2.13,2.13,0,0,0-.59.28,3.36,3.36,0,0,0,.64-.18L93.46,26l3-1.06c1.19-.4,2.62-.68,4.21-1.1A61.66,61.66,0,0,1,164,46.36c.61.83,1.29,1.62,1.86,2.48l1.66,2.68a41.61,41.61,0,0,1,3.06,5.65,54.78,54.78,0,0,1,4.46,12.56,61.1,61.1,0,0,1-.23,28.3l-.08.31.21.26,15,18.79.52-1.12-23.35.56h-.36l-.21.31a61.18,61.18,0,0,1-24.71,21.61,48.57,48.57,0,0,1-4.83,2,40.39,40.39,0,0,1-4.91,1.64A58,58,0,0,1,112,144.56a64.54,64.54,0,0,1-19.11-4.16,65.46,65.46,0,0,1-16.16-9.54,61.24,61.24,0,0,1-12-13.2c-.78-1.23-1.54-2.45-2.3-3.66s-1.3-2.54-2-3.79a65.24,65.24,0,0,1-3.17-7.7,61.24,61.24,0,0,1,7.24-53.16,58.5,58.5,0,0,1,12.77-14l2.9-2.29,2.73-1.75,2.35-1.51c.74-.42,1.44-.74,2-1.06L90,27.29A7,7,0,0,0,91,26.8Z"/><rect class="cls-3" x="129.35" y="53.41" width="10.76" height="61.58" rx="3.6" transform="translate(-0.16 0.26) rotate(-0.11)"/><rect class="cls-3" x="111.73" y="53.45" width="10.76" height="61.58" rx="3.6" transform="translate(-0.16 0.22) rotate(-0.11)"/><rect class="cls-3" x="91.79" y="53.48" width="10.76" height="61.58" rx="3.6" transform="translate(-0.16 0.19) rotate(-0.11)"/><path class="cls-4" d="M134.63,115c-.45-.06-.9-.15-1.34-.25a5.19,5.19,0,0,1-3.74-5V60.47a12,12,0,0,1,.21-3.28,5.11,5.11,0,0,1,9.74.27,17.31,17.31,0,0,1,.16,3.3V76.84c0,8.11.08,15.41.11,21.57,0,3.06,0,5.84.07,8.28v3.39a5,5,0,0,1-.87,2.6,5.28,5.28,0,0,1-3.12,2.14c-.88.19-1.36.14-1.36.18a4.33,4.33,0,0,0,1.39,0,5.36,5.36,0,0,0,4.3-4.85v-51a7,7,0,0,0-.17-1.77,5.73,5.73,0,0,0-11-.3,5.89,5.89,0,0,0-.25,1.78v5c0,4.42,0,8.68.05,12.74,0,8.1.08,15.41.11,21.57,0,3.06.05,5.83.06,8.28v3.4a5.31,5.31,0,0,0,.83,2.78,5.18,5.18,0,0,0,3.18,2.3A4.11,4.11,0,0,0,134.63,115Z"/><path class="cls-4" d="M117,115q-.67-.09-1.35-.24a5.18,5.18,0,0,1-3.73-5V60.5a11.93,11.93,0,0,1,.21-3.27,5.1,5.1,0,0,1,9.74.26,16.52,16.52,0,0,1,.15,3.3V76.87c0,8.11.08,15.42.11,21.57,0,3.07,0,5.84.06,8.29v3.39a5,5,0,0,1-.87,2.6,5.35,5.35,0,0,1-3.13,2.14c-.87.18-1.36.13-1.35.17a4.56,4.56,0,0,0,1.38,0,5.33,5.33,0,0,0,3.31-2.13,5.28,5.28,0,0,0,1-2.72c0-1.07,0-2.19,0-3.41V59.14a6.16,6.16,0,0,0-.17-1.77,5.76,5.76,0,0,0-11-.3,5.89,5.89,0,0,0-.24,1.78V76.62c0,8.11.08,15.41.12,21.57,0,3.06,0,5.84.06,8.28v3.4a5.3,5.3,0,0,0,.82,2.78,5.23,5.23,0,0,0,3.19,2.3A3.86,3.86,0,0,0,117,115Z"/><path class="cls-4" d="M97.07,115.07c-.45-.06-.91-.15-1.35-.25A5.16,5.16,0,0,1,92,109.87V60.56a11.93,11.93,0,0,1,.21-3.27,5.1,5.1,0,0,1,9.74.26,16.52,16.52,0,0,1,.15,3.3V76.93c0,8.11.08,15.42.11,21.57,0,3.06,0,5.84.06,8.29v3.38a5,5,0,0,1-.87,2.6,5.36,5.36,0,0,1-3.13,2.15c-.87.18-1.36.13-1.35.17a4.56,4.56,0,0,0,1.38,0,5.35,5.35,0,0,0,4.29-4.86v-51a7,7,0,0,0-.17-1.77,5.76,5.76,0,0,0-11-.3,6.59,6.59,0,0,0-.24,1.78v17.7c0,8.11.08,15.41.12,21.57,0,3.06,0,5.84.06,8.28v3.4a5.3,5.3,0,0,0,.82,2.78,5.23,5.23,0,0,0,3.19,2.3A3.85,3.85,0,0,0,97.07,115.07Z"/><path class="cls-1" d="M124.63,65.56A7.56,7.56,0,1,1,117.05,58h0A7.55,7.55,0,0,1,124.63,65.56Z"/><path class="cls-1" d="M104.72,84.27a7.56,7.56,0,1,1-7.57-7.55,7.56,7.56,0,0,1,7.57,7.55Z"/><circle class="cls-1" cx="134.42" cy="95.62" r="7.56"/></g><g id="freepik--Device--inject-181"><path class="cls-2" d="M61.25,324.88H212.08L192.62,219a7.9,7.9,0,0,0-7.78-6.48H49.31a7.9,7.9,0,0,0-7.91,7.9,8.46,8.46,0,0,0,.14,1.5Z"/><path class="cls-2" d="M212.08,324.88h57.21l-.23-.17a30.83,30.83,0,0,0-17.64-6.15l-40.91-1.2Z"/><path class="cls-4" d="M175.85,212.68a9,9,0,0,1,1.22-.08,7.51,7.51,0,0,1,3.35.83,10.22,10.22,0,0,1,4,3.66,19.38,19.38,0,0,1,2.47,6.84c.49,2.68.92,5.65,1.46,8.82s1.12,6.56,1.79,10.12c1.32,7.11,2.87,14.91,4.57,23.09,3.4,16.35,6.55,31.13,8.62,41.87,1,5.37,1.83,9.72,2.38,12.73.26,1.48.47,2.64.63,3.47.07.37.13.66.17.9s.05.2.08.3a.81.81,0,0,0,0-.31,8.52,8.52,0,0,0-.12-.91c-.13-.84-.3-2-.53-3.48-.47-3-1.21-7.39-2.2-12.77-2-10.77-5.06-25.57-8.46-41.92-1.69-8.17-3.27-16-4.61-23.07-.68-3.55-1.28-6.93-1.84-10.1s-1-6.12-1.53-8.82a19.71,19.71,0,0,0-2.59-6.93,10.51,10.51,0,0,0-4.19-3.69,7.12,7.12,0,0,0-3.45-.74A4.25,4.25,0,0,0,175.85,212.68Z"/><circle class="cls-12" cx="119.45" cy="266.33" r="7.29" transform="translate(-153.33 162.47) rotate(-45)"/></g><g id="freepik--Desk--inject-181"><path class="cls-4" d="M454.78,324.78c0,.14-97.54.26-217.83.26s-217.85-.12-217.85-.26,97.47-.22,217.85-.22S454.78,324.64,454.78,324.78Z"/></g></g></g></svg>