<svg id="SvgjsSvg1000" xmlns="http://www.w3.org/2000/svg" version="1.1" xmlns:xlink="http://www.w3.org/1999/xlink" xmlns:svgjs="http://svgjs.com/svgjs" width="24" height="30"><defs id="SvgjsDefs1001"><clipPath id="SvgjsClipPath1012"><path id="SvgjsPath1011" d="M191 31L191 16L211 16L211 31ZM209 22L200 22L200 18.9999L193 24.0909L200 29L200 26.0001L209 26.0001Z " fill="#ffffff"></path></clipPath><clipPath id="SvgjsClipPath1018"><path id="SvgjsPath1017" d="M191 31L191 16L211 16L211 31ZM209 22L200 22L200 18.9999L193 24.0909L200 29L200 26.0001L209 26.0001Z " fill="#ffffff"></path></clipPath></defs><path id="SvgjsPath1007" d="M189 10L203 10C204.105 10 205 10.8954 205 12L205 38C205 39.1046 204.105 40 203 40L189 40C187.895 40 187 39.1046 187 38L187 12C187 10.8954 187.895 10 189 10ZM190 33C190 34.10457 190.89543 35 192 35L200 35C201.10457 35 202 34.10457 202 33L202 15C202 13.89543 201.10457 13 200 13L192 13C190.89543 13 190 13.89543 190 15Z " fill="#69bce8" transform="matrix(1,0,0,1,-187,-10)"></path><path id="SvgjsPath1008" d="M195.5 35.9999C196.328 35.9999 197 36.6716 197 37.5C197 38.3285 196.328 39 195.5 39C194.672 39 194 38.3285 194 37.5C194 36.6716 194.672 35.9999 195.5 35.9999Z " fill="#ffffff" transform="matrix(1,0,0,1,-187,-10)"></path><path id="SvgjsPath1009" d="M209 22L200 22L200 18.9999L193 24.0909L200 29L200 26.0001L209 26.0001Z " fill="#69bce8" transform="matrix(1,0,0,1,-187,-10)"></path><path id="SvgjsPath1010" d="M209 22L200 22L200 18.9999L193 24.0909L200 29L200 26.0001L209 26.0001Z " fill-opacity="0" fill="#ffffff" stroke-dasharray="0" stroke-linejoin="round" stroke-linecap="round" stroke-opacity="1" stroke="#ffffff" stroke-miterlimit="50" stroke-width="4" clip-path="url(&quot;#SvgjsClipPath1012&quot;)" transform="matrix(1,0,0,1,-187,-10)"></path><path id="SvgjsPath1013" d="M189 10L203 10C204.105 10 205 10.8954 205 12L205 38C205 39.1046 204.105 40 203 40L189 40C187.895 40 187 39.1046 187 38L187 12C187 10.8954 187.895 10 189 10ZM190 33C190 34.10457 190.89543 35 192 35L200 35C201.10457 35 202 34.10457 202 33L202 15C202 13.89543 201.10457 13 200 13L192 13C190.89543 13 190 13.89543 190 15Z " fill="#69bce8" transform="matrix(1,0,0,1,-187,-10)"></path><path id="SvgjsPath1014" d="M195.5 35.9999C196.328 35.9999 197 36.6716 197 37.5C197 38.3285 196.328 39 195.5 39C194.672 39 194 38.3285 194 37.5C194 36.6716 194.672 35.9999 195.5 35.9999Z " fill="#ffffff" transform="matrix(1,0,0,1,-187,-10)"></path><path id="SvgjsPath1015" d="M209 22L200 22L200 18.9999L193 24.0909L200 29L200 26.0001L209 26.0001Z " fill="#69bce8" transform="matrix(1,0,0,1,-187,-10)"></path><path id="SvgjsPath1016" d="M209 22L200 22L200 18.9999L193 24.0909L200 29L200 26.0001L209 26.0001Z " fill-opacity="0" fill="#ffffff" stroke-dasharray="0" stroke-linejoin="round" stroke-linecap="round" stroke-opacity="1" stroke="#ffffff" stroke-miterlimit="50" stroke-width="4" clip-path="url(&quot;#SvgjsClipPath1018&quot;)" transform="matrix(1,0,0,1,-187,-10)"></path></svg>