<svg xmlns="http://www.w3.org/2000/svg" viewBox="0 0 182 182"><defs><style>.cls-1,.cls-2{fill:#fff;}.cls-1{fill-rule:evenodd;}</style></defs><title>51</title><g id="Слой_2" data-name="Слой 2"><g id="Режим_изоляции" data-name="Режим изоляции"><path id="Fill-3" class="cls-1" d="M138.78,23.17a4.54,4.54,0,0,0,2.53-8.3,4.54,4.54,0,1,0-5.06,7.55,4.8,4.8,0,0,0,2.53.75"/><path id="Fill-5" class="cls-1" d="M151.88,33.93a4.53,4.53,0,1,0-3.21-1.32,4.54,4.54,0,0,0,3.21,1.32"/><path id="Fill-7" class="cls-1" d="M123.86,15.17a4.53,4.53,0,1,0-1.73-.34,4.8,4.8,0,0,0,1.73.34"/><path id="Fill-9" class="cls-1" d="M165.17,46.24A4.5,4.5,0,0,0,166.42,40a4.55,4.55,0,0,0-6.31-1.25A4.5,4.5,0,0,0,158.87,45a4.55,4.55,0,0,0,3.77,2,4.39,4.39,0,0,0,2.53-.76"/><path id="Fill-11" class="cls-1" d="M172.38,61.61a4.56,4.56,0,1,0-1.73.34,4.63,4.63,0,0,0,1.73-.34"/><path id="Fill-13" class="cls-1" d="M107.66,10.26a4.59,4.59,0,0,0,4.46-3.63,4.53,4.53,0,1,0-5.33,3.55,6.54,6.54,0,0,0,.87.08"/><path id="Fill-15" class="cls-1" d="M176.46,78.11a4.54,4.54,0,1,0-5.32-3.58,4.58,4.58,0,0,0,4.45,3.66,6.86,6.86,0,0,0,.87-.08"/><path id="Fill-17" class="cls-1" d="M26.66,26.66A91,91,0,1,0,155.34,155.34,90.39,90.39,0,0,0,182,91a4.53,4.53,0,0,0-9.06,0A81.94,81.94,0,1,1,91,9.06,4.53,4.53,0,1,0,91,0,90.39,90.39,0,0,0,26.66,26.66"/><path class="cls-2" d="M133.18,53.61a2.15,2.15,0,0,0-3-.57,1,1,0,0,0-.15.11C106.38,72.61,84.53,96,77.14,110.38L58,88.69a4.35,4.35,0,0,0-6.13-.39l-4.37,3.83A4.35,4.35,0,0,0,47,98.18l24.57,29.64a4.16,4.16,0,0,0,3.21,1.51h6a4.18,4.18,0,0,0,3.7-2.26c15.64-30,29.74-47,50.88-67.1a2.15,2.15,0,0,0,.31-2.77Z"/></g></g></svg>