<svg xmlns="http://www.w3.org/2000/svg" viewBox="0 0 167.7 178.93"><defs><style>.cls-1{fill:#fff;}</style></defs><title>53</title><g id="Слой_2" data-name="Слой 2"><g id="Режим_изоляции" data-name="Режим изоляции"><path class="cls-1" d="M131.64,83.85a47.79,47.79,0,1,0-81.56,33.8,30.39,30.39,0,0,1,8.81,17.84H56.31a3.58,3.58,0,0,0-3.58,3.57v12.86a13.93,13.93,0,0,0,12.92,13.85v.7a12.47,12.47,0,0,0,12.46,12.46H89.6a12.47,12.47,0,0,0,12.45-12.46v-.7A13.92,13.92,0,0,0,115,151.92V139.06a3.57,3.57,0,0,0-3.58-3.57H108.8a28.58,28.58,0,0,1,8.25-17.28A47.36,47.36,0,0,0,131.64,83.85ZM94.89,166.47a5.3,5.3,0,0,1-5.29,5.3H78.11a5.31,5.31,0,0,1-5.3-5.3v-.6H94.89Zm12.92-14.55a6.8,6.8,0,0,1-6.79,6.8H66.69a6.81,6.81,0,0,1-6.8-6.8v-9.28h47.92Zm-6.22-16.43H87.43V101l13.83-13.84A3.58,3.58,0,0,0,96.2,82.1L83.85,94.45,71.5,82.1a3.58,3.58,0,0,0-5.06,5.06L80.27,101v34.48H66.11a37.42,37.42,0,0,0-11-22.89,40.63,40.63,0,1,1,56.94.48A35.8,35.8,0,0,0,101.59,135.49Z"/><path class="cls-1" d="M87.43,20.42V3.58a3.58,3.58,0,0,0-7.16,0V20.42a3.58,3.58,0,0,0,7.16,0Z"/><path class="cls-1" d="M39,42.58a3.58,3.58,0,0,0,2.53-6.11L29.62,24.56a3.58,3.58,0,0,0-5.06,5.06L36.47,41.53A3.56,3.56,0,0,0,39,42.58Z"/><path class="cls-1" d="M0,83.85a3.58,3.58,0,0,0,3.58,3.58H20.42a3.58,3.58,0,0,0,0-7.16H3.58A3.58,3.58,0,0,0,0,83.85Z"/><path class="cls-1" d="M24.56,143.14a3.57,3.57,0,0,0,5.06,0l11.91-11.9a3.58,3.58,0,0,0-5.06-5.06l-11.91,11.9A3.57,3.57,0,0,0,24.56,143.14Z"/><path class="cls-1" d="M143.15,24.56a3.57,3.57,0,0,0-5.06,0L126.18,36.47a3.58,3.58,0,1,0,5.06,5.06l11.91-11.91A3.59,3.59,0,0,0,143.15,24.56Z"/><path class="cls-1" d="M167.7,83.85a3.58,3.58,0,0,0-3.58-3.58H147.29a3.58,3.58,0,1,0,0,7.16h16.83A3.58,3.58,0,0,0,167.7,83.85Z"/><path class="cls-1" d="M138.09,143.14a3.57,3.57,0,0,0,5.06,0,3.59,3.59,0,0,0,0-5.06l-11.91-11.9a3.58,3.58,0,0,0-5.06,5.06Z"/></g></g></svg>