<svg xmlns="http://www.w3.org/2000/svg" viewBox="0 0 117.38 134.02"><defs><style>.cls-1{fill:#fff;}</style></defs><title>52</title><g id="Слой_2" data-name="Слой 2"><g id="Режим_изоляции" data-name="Режим изоляции"><ellipse class="cls-1" cx="14.71" cy="14.11" rx="3.14" ry="3.1"/><ellipse class="cls-1" cx="23.7" cy="14.11" rx="3.14" ry="3.1"/><ellipse class="cls-1" cx="32.7" cy="14.11" rx="3.14" ry="3.1"/><path class="cls-1" d="M112.51,0H5.14A5.09,5.09,0,0,0,0,5.08V91.55a5.08,5.08,0,0,0,5.14,5.08h13v2.68a5.39,5.39,0,0,0,5.43,5.36h3.71a35,35,0,0,0,1.43,3.39l-2.57,2.68a5.41,5.41,0,0,0,0,7.62L34,126.12a5.49,5.49,0,0,0,7.71,0l2.57-2.54A34.42,34.42,0,0,0,47.69,125v3.67A5.39,5.39,0,0,0,53.11,134H64.25a5.39,5.39,0,0,0,5.42-5.36V125a34.42,34.42,0,0,0,3.43-1.41l2.57,2.54a5.49,5.49,0,0,0,7.71,0l7.85-7.76a5.41,5.41,0,0,0,0-7.62l-2.57-2.54a35.92,35.92,0,0,0,1.43-3.38H93.8a5.4,5.4,0,0,0,5.43-5.37V96.63h13a5.08,5.08,0,0,0,5.14-5.08V5.08A4.69,4.69,0,0,0,112.51,0Zm-.58,5.78V22.43H5.71V5.78ZM93.66,98.89H88.23A3,3,0,0,0,85.38,101a26,26,0,0,1-2.57,6.2,2.74,2.74,0,0,0,.43,3.39l3.85,3.81-7.42,7.33L76,117.93a2.86,2.86,0,0,0-3.43-.42,24.27,24.27,0,0,1-6.28,2.54,2.76,2.76,0,0,0-2.14,2.82v5.5H53.68V123a3,3,0,0,0-2.14-2.82,26.44,26.44,0,0,1-6.28-2.54,3,3,0,0,0-3.43.43L38,121.88l-7.43-7.33,3.86-3.81a2.74,2.74,0,0,0,.43-3.39,23.47,23.47,0,0,1-2.57-6.2A2.8,2.8,0,0,0,29.41,99H23.84V88.73h5.43a3,3,0,0,0,2.85-2.11,26.47,26.47,0,0,1,2.57-6.21A2.74,2.74,0,0,0,34.27,77l-3.86-3.8,7.43-7.34,3.85,3.81a2.84,2.84,0,0,0,3.43.42,24.48,24.48,0,0,1,6.28-2.54,2.77,2.77,0,0,0,2.14-2.82v-5.5H64v5.36a3,3,0,0,0,2.14,2.82A26.76,26.76,0,0,1,72.39,70a3,3,0,0,0,3.42-.42l3.86-3.81,7.42,7.33-3.85,3.81a2.77,2.77,0,0,0-.43,3.39,23.73,23.73,0,0,1,2.57,6.21,2.78,2.78,0,0,0,2.85,2.11H93.8v10.3ZM99.51,91V88.31A5.39,5.39,0,0,0,94.09,83H90.23a34.89,34.89,0,0,0-1.42-3.39L91.38,77a5.4,5.4,0,0,0,0-7.61l-7.86-7.76a5.47,5.47,0,0,0-7.71,0l-2.57,2.54a32.91,32.91,0,0,0-3.42-1.41V59.11a5.39,5.39,0,0,0-5.43-5.36H53.25a5.39,5.39,0,0,0-5.42,5.36v3.67a33.07,33.07,0,0,0-3.43,1.41l-2.71-2.54a5.47,5.47,0,0,0-7.71,0l-7.85,7.76a5.4,5.4,0,0,0,0,7.61l2.57,2.54A35,35,0,0,0,27.27,83H23.56a5.39,5.39,0,0,0-5.43,5.36V91H5.71V28.21H111.93V91Z"/><path class="cls-1" d="M58.82,77.31a16.51,16.51,0,1,0,16.71,16.5A16.62,16.62,0,0,0,58.82,77.31Zm0,27.36A10.78,10.78,0,0,1,48,94a10.93,10.93,0,0,1,21.85,0A11.1,11.1,0,0,1,58.82,104.67Z"/></g></g></svg>