<svg xmlns="http://www.w3.org/2000/svg" viewBox="0 0 120.22 43.32"><defs><style>.cls-1{fill:#407bff;}</style></defs><title>8 лет</title><g id="Слой_2" data-name="Слой 2"><g id="Layer_1" data-name="Layer 1"><path class="cls-1" d="M5.85,31.44a6.92,6.92,0,0,1-4.2-1.22A3.82,3.82,0,0,1,0,27a3.91,3.91,0,0,1,2.76-3.75A3.73,3.73,0,0,1,.53,19.81a3.62,3.62,0,0,1,1.51-3,6,6,0,0,1,3.81-1.18,6,6,0,0,1,3.81,1.18,3.65,3.65,0,0,1,1.51,3,3.71,3.71,0,0,1-2.23,3.42Q11.7,24.55,11.7,27a3.84,3.84,0,0,1-1.64,3.23A6.91,6.91,0,0,1,5.85,31.44ZM3.51,28.52a3.78,3.78,0,0,0,2.34.67,3.78,3.78,0,0,0,2.34-.67,2,2,0,0,0,.88-1.68,2,2,0,0,0-.92-1.67,3.9,3.9,0,0,0-2.3-.65,3.9,3.9,0,0,0-2.3.65,2,2,0,0,0,0,3.35Zm.38-6.78a3,3,0,0,0,2,.63,3,3,0,0,0,2-.64,2.07,2.07,0,0,0,.78-1.66,1.9,1.9,0,0,0-.77-1.52,3,3,0,0,0-2-.62,3,3,0,0,0-2,.62,1.93,1.93,0,0,0-.77,1.55A2,2,0,0,0,3.89,21.74Z"/><path class="cls-1" d="M20.9,31.36a10.16,10.16,0,0,1-1.56-.16l.2-2.17a3.07,3.07,0,0,0,.77.09,1.8,1.8,0,0,0,.75-.13,1.63,1.63,0,0,0,.62-.67,4.75,4.75,0,0,0,.49-1.52A24.6,24.6,0,0,0,22.45,24c.08-1.19.11-2.65.11-4.37H31.3V31.22H28.65V21.94H25a38.09,38.09,0,0,1-.2,4.2,15.35,15.35,0,0,1-.51,2.74,4,4,0,0,1-.88,1.57,2.83,2.83,0,0,1-1.13.73A4.77,4.77,0,0,1,20.9,31.36Z"/><path class="cls-1" d="M39.93,31.49A5.78,5.78,0,0,1,35.7,29.8,5.85,5.85,0,0,1,34,25.44a6.09,6.09,0,0,1,1.6-4.27,5.22,5.22,0,0,1,4-1.75,5,5,0,0,1,4.09,1.78,6.79,6.79,0,0,1,1.45,4.44,4.71,4.71,0,0,1,0,.74h-8.5a3.44,3.44,0,0,0,1.12,2.16,3.23,3.23,0,0,0,2.21.78,4.41,4.41,0,0,0,3.13-1.38l1.56,1.38A5.88,5.88,0,0,1,39.93,31.49Zm-3.3-6.86h5.93a3.68,3.68,0,0,0-.89-2.19,2.64,2.64,0,0,0-2-.86,2.69,2.69,0,0,0-2,.85A3.71,3.71,0,0,0,36.63,24.63Z"/><path class="cls-1" d="M49.9,31.22V21.94H46.18V19.66H56.3v2.28H52.57v9.28Z"/><path class="cls-1" d="M68.88,34.1l2,1.9a2.78,2.78,0,0,0,3.8-.1l1.2-1.3a17.7,17.7,0,0,0,4.5,1.7l.1,1.7a2.46,2.46,0,0,0,.9,1.9,2.85,2.85,0,0,0,1.91.7l2.8-.1a2.75,2.75,0,0,0,2.59-2.8l-.09-2.6a1.05,1.05,0,1,0-2.1.1l.1,2.6a.65.65,0,0,1-.6.6l-2.8.1c-.2,0-.3,0-.4-.2a.76.76,0,0,1-.2-.4l-.1-2.6a1.06,1.06,0,0,0-.9-1,14.07,14.07,0,0,1-5.3-2,1,1,0,0,0-1.3.2l-1.7,1.9a.64.64,0,0,1-.91,0l-2-1.9a.84.84,0,0,1-.2-.4c0-.2,0-.3.2-.4l1.71-1.9a1.06,1.06,0,0,0,.09-1.3,14,14,0,0,1-2.3-5.1,1,1,0,0,0-1-.8l-2.59.1a.65.65,0,0,1-.6-.6l-.1-2.8c0-.2,0-.3.2-.4a.76.76,0,0,1,.4-.2l2.6-.1a1.06,1.06,0,0,0,1-.9,14.2,14.2,0,0,1,2-5.3,1,1,0,0,0-.2-1.3l-1.9-1.7a.76.76,0,0,1-.2-.4c0-.2,0-.3.2-.4l1.9-2a.76.76,0,0,1,.4-.2c.2,0,.3,0,.4.2l1.9,1.7a1.06,1.06,0,0,0,1.3.1,13.84,13.84,0,0,1,5.1-2.3,1.05,1.05,0,0,0,.8-1l-.1-2.6a.65.65,0,0,1,.6-.6l2.8-.1a.65.65,0,0,1,.6.6l.1,2.6a1.06,1.06,0,0,0,.9,1,14.2,14.2,0,0,1,5.3,2A1,1,0,0,0,93,7.8l1.7-1.9a.76.76,0,0,1,.4-.2c.2,0,.3,0,.4.2l2,1.9a.76.76,0,0,1,.2.4c0,.2,0,.3-.2.4l-1.7,1.9a1.06,1.06,0,0,0,1.5,1.5L99,10.1a2.64,2.64,0,0,0,.7-1.9,3,3,0,0,0-.2-1,2.41,2.41,0,0,0-.6-.8l-2-1.9A2.64,2.64,0,0,0,95,3.8a2.46,2.46,0,0,0-1.9.9L91.89,6a17.42,17.42,0,0,0-4.5-1.7l-.1-1.7A2.76,2.76,0,0,0,84.49,0l-2.8.1a2.76,2.76,0,0,0-2.6,2.8l.1,1.7a14,14,0,0,0-4.3,2l-1.3-1.2a2.64,2.64,0,0,0-1.9-.7,2.46,2.46,0,0,0-1.9.9l-1.9,2a2.64,2.64,0,0,0-.7,1.9,2.46,2.46,0,0,0,.9,1.9l1.3,1.2a17.42,17.42,0,0,0-1.7,4.5l-1.7.1a2.46,2.46,0,0,0-1.9.9,2.65,2.65,0,0,0-.71,1.9l.1,2.8a2.76,2.76,0,0,0,2.8,2.6l1.7-.1a14,14,0,0,0,2,4.3l-1.2,1.3a2.64,2.64,0,0,0-.7,1.9A3.46,3.46,0,0,0,68.88,34.1Z"/><path class="cls-1" d="M80.29,12.4a8.5,8.5,0,0,0-4.1,11.2v.1A8.65,8.65,0,0,0,81,28.1a8.17,8.17,0,0,0,6.5-.3,1.11,1.11,0,0,0,.5-1.4h0a1.11,1.11,0,0,0-1.4-.5,6.41,6.41,0,0,1-8.5-3.1h0a6.37,6.37,0,0,1,11.59-5.3,1.12,1.12,0,0,0,1.41.5,1.11,1.11,0,0,0,.5-1.4h0A8.51,8.51,0,0,0,80.29,12.4Z"/><path class="cls-1" d="M119.59,23l-.8-1.8a2.28,2.28,0,0,0-3-1.1l-.91.4a11.23,11.23,0,0,0-2.3-2.1l.4-1a2,2,0,0,0-.1-1.7,2.16,2.16,0,0,0-1.3-1.2l-1.9-.7a2,2,0,0,0-1.7.1,2.21,2.21,0,0,0-1.2,1.3l-.4,1a10.75,10.75,0,0,0-3.1.1l-.4-.9a2.28,2.28,0,0,0-3-1.1l-1.8.8a2.28,2.28,0,0,0-1.1,3l.4.9a11.5,11.5,0,0,0-2.1,2.3l-1-.4a2,2,0,0,0-1.7.1,2.54,2.54,0,0,0-1.2,1.3l-.7,1.9a2,2,0,0,0,.1,1.7,2.21,2.21,0,0,0,1.3,1.2l1,.4a10.75,10.75,0,0,0,.1,3.1l-.9.4a2.28,2.28,0,0,0-1.1,3l.8,1.8a2.28,2.28,0,0,0,3,1.1l.9-.4a11.5,11.5,0,0,0,2.3,2.1l-.4,1a2,2,0,0,0,.1,1.7,2.21,2.21,0,0,0,1.3,1.2l1.9.7a2.34,2.34,0,0,0,2.9-1.3l.4-1a10.75,10.75,0,0,0,3.1-.1l.4.9a2.28,2.28,0,0,0,3,1.1l1.8-.8a2.28,2.28,0,0,0,1.1-3l-.4-.9a11.5,11.5,0,0,0,2.1-2.3l1,.4a2.34,2.34,0,0,0,2.9-1.3l.7-1.9a2,2,0,0,0-.1-1.7,2.21,2.21,0,0,0-1.3-1.2l-1-.4a10.75,10.75,0,0,0-.1-3.1l.9-.4A2.62,2.62,0,0,0,119.59,23Zm-4.11,7a1.27,1.27,0,0,0,.1.6,1,1,0,0,0,.6.5l1.7.6a.1.1,0,0,1,.1.1v.1l-.7,1.9c0,.1-.1.1-.2.1l-1.7-.6a.91.91,0,0,0-1.19.4,9.36,9.36,0,0,1-2.7,2.9,1.06,1.06,0,0,0-.3,1.3l.8,1.7c0,.1,0,.2-.1.2l-1.8.8c-.1,0-.2,0-.2-.1l-.8-1.7a1.14,1.14,0,0,0-1.2-.6,9,9,0,0,1-4,.1.92.92,0,0,0-1.1.7l-.6,1.7c0,.1-.1.1-.2.1l-1.9-.7a.1.1,0,0,1-.1-.1v-.1l.7-1.7a.93.93,0,0,0-.4-1.2,9.36,9.36,0,0,1-2.9-2.7,1.06,1.06,0,0,0-1.3-.3l-1.7.8c-.1,0-.2,0-.2-.1l-.8-1.8c0-.1,0-.2.1-.2l1.7-.8a1.14,1.14,0,0,0,.6-1.2,9,9,0,0,1-.1-4,.92.92,0,0,0-.7-1.1l-1.7-.6a.1.1,0,0,1-.1-.1v-.1l.7-1.9a.1.1,0,0,1,.1-.1h.1l1.7.6A.93.93,0,0,0,97,23a9.36,9.36,0,0,1,2.7-2.9,1.06,1.06,0,0,0,.3-1.3l-.8-1.7c0-.1,0-.2.1-.2l1.8-.8c.1,0,.2,0,.2.1l.8,1.7a1.14,1.14,0,0,0,1.2.6,9,9,0,0,1,4-.1.92.92,0,0,0,1.1-.7L109,16a.1.1,0,0,1,.1-.1h.09l1.9.7a.1.1,0,0,1,.1.1v.1l-.6,1.7a.93.93,0,0,0,.4,1.2,9.36,9.36,0,0,1,2.9,2.7,1.08,1.08,0,0,0,1.31.3l1.69-.8c.1,0,.2,0,.2.1l.8,1.8c0,.1,0,.2-.09.2l-1.7.8a1.14,1.14,0,0,0-.6,1.2A17.26,17.26,0,0,1,115.48,30Z"/><path class="cls-1" d="M102.79,22.8a6.17,6.17,0,1,0,8.19,3A6.21,6.21,0,0,0,102.79,22.8Zm4.2,9.3a4.07,4.07,0,1,1,2-5.4A4,4,0,0,1,107,32.1Z"/></g></g></svg>