<svg xmlns="http://www.w3.org/2000/svg" xmlns:xlink="http://www.w3.org/1999/xlink" viewBox="0 0 73.25 43.3"><defs><style>.cls-1{fill:none;}.cls-2{clip-path:url(#clip-path);}.cls-3,.cls-4{fill:#407bff;}.cls-4{stroke:#407bff;stroke-miterlimit:10;stroke-width:0.5px;}</style><clipPath id="clip-path"><rect class="cls-1" x="15.45" y="0.1" width="57.9" height="43.3"/></clipPath></defs><title>61</title><g id="Слой_2" data-name="Слой 2"><g id="Layer_1" data-name="Layer 1"><g class="cls-2"><path class="cls-3" d="M73.05,41.5l-5.4-10.9V1.2A1.16,1.16,0,0,0,66.45,0H22.25a1.29,1.29,0,0,0-1.2,1.2V20.32a3.12,3.12,0,0,1,2.4.06V2.4h42V29.7H28.13s0,0,0,0l.06.11a3.4,3.4,0,0,1,.34,2.25h37.3l4.4,8.9h-16l-1.7-3.4a1.23,1.23,0,0,0-1.1-.7H37.35a1.17,1.17,0,0,0-1.1.7L34.55,41h-16l1.84-3.72a3.1,3.1,0,0,1-1.83.55,3.38,3.38,0,0,1-1-.17l-2,3.94a1.08,1.08,0,0,0,0,1.1,1.33,1.33,0,0,0,1,.6h55.5a1.16,1.16,0,0,0,1.2-1.2A1.42,1.42,0,0,0,73.05,41.5Zm-35.6-1,.6-1.2h12.7l.6,1.2Z"/></g><path class="cls-4" d="M26.35,19.1h-6.5V14.5c0-2-.6-3.5-1.8-4.3a5,5,0,0,0-4.5-.5.87.87,0,0,0-.6.8v5.3c0,4.1-4.8,5.5-5,5.6s-.2.1-.3.1a1.66,1.66,0,0,0-1.2-.5H1.85a1.44,1.44,0,0,0-1.6,1.5V36.7a1.58,1.58,0,0,0,1.6,1.6h4.8A1.56,1.56,0,0,0,8,37.6a4.45,4.45,0,0,0,2.9,1.2h13c2.9,0,4.7-1.5,5.1-4.2l1.7-11.1v-.1A4.27,4.27,0,0,0,26.35,19.1ZM6.65,36.7H1.85V22.5h4.8Zm20.7-2.3a2.77,2.77,0,0,1-1,2,3.89,3.89,0,0,1-2.46.68H11a2.58,2.58,0,0,1-2.6-2.6V22.9h.3c.3-.1,6.2-1.8,6.2-7.2V11.1a3.53,3.53,0,0,1,2.4.4,3.5,3.5,0,0,1,1.1,3V20a.79.79,0,0,0,.8.8h7.3a2.65,2.65,0,0,1,2.6,2.6Z"/></g></g></svg>