<svg id="SvgjsSvg1019" xmlns="http://www.w3.org/2000/svg" version="1.1" xmlns:xlink="http://www.w3.org/1999/xlink" xmlns:svgjs="http://svgjs.com/svgjs" width="60" height="35"><defs id="SvgjsDefs1020"></defs><path id="SvgjsPath1021" d="M270 22L270 20L288 20L288 22Z " fill="#0099e0" transform="matrix(1,0,0,1,-261,-11)"></path><path id="SvgjsPath1022" d="M270 28L270 26L288 26L288 28Z " fill="#0099e0" transform="matrix(1,0,0,1,-261,-11)"></path><path id="SvgjsPath1023" d="M264 11L294 11C295.657 11 297 12.3432 297 13.9999L297 33C297 34.6569 294.655 36.0809 293 35.9999C291.663 35.9347 291.661 35.923399999999994 290 35.9999C289.896 36.004799999999996 283 41.413199999999996 283 41C283 40.946 276.8 35.9999 276.264 35.9999C266.46500000000003 35.9999 264 35.9999 264 35.9999C262.343 35.9999 261 34.65689999999999 261 33L261 13.9999C261 12.3432 262.343 11 264 11ZM264 33C264 33 267.246 33 276.954 33C277.305 33 282.853 38 283 38C283.32 38 289.873 33.0089 290 33C290.307 32.9783 294 33 294 33L294 13.9999L264 13.9999Z " fill="#0099e0" transform="matrix(1,0,0,1,-261,-11)"></path><path id="SvgjsPath1024" d="M270 22L270 20L288 20L288 22Z " fill="#0099e0" transform="matrix(1,0,0,1,-261,-11)"></path><path id="SvgjsPath1025" d="M270 28L270 26L288 26L288 28Z " fill="#0099e0" transform="matrix(1,0,0,1,-261,-11)"></path><path id="SvgjsPath1026" d="M264 11L294 11C295.657 11 297 12.3432 297 13.9999L297 33C297 34.6569 294.655 36.0809 293 35.9999C291.663 35.9347 291.661 35.923399999999994 290 35.9999C289.896 36.004799999999996 283 41.413199999999996 283 41C283 40.946 276.8 35.9999 276.264 35.9999C266.46500000000003 35.9999 264 35.9999 264 35.9999C262.343 35.9999 261 34.65689999999999 261 33L261 13.9999C261 12.3432 262.343 11 264 11ZM264 33C264 33 267.246 33 276.954 33C277.305 33 282.853 38 283 38C283.32 38 289.873 33.0089 290 33C290.307 32.9783 294 33 294 33L294 13.9999L264 13.9999Z " fill="#0099e0" transform="matrix(1,0,0,1,-261,-11)"></path></svg>