<svg xmlns="http://www.w3.org/2000/svg" viewBox="0 0 519.76 306.92"><defs><style>.cls-1{fill:#407bff;}.cls-2{opacity:0.3;}.cls-3{fill:#8db6ff;}.cls-4{fill:none;}.cls-5{fill:#e0e0e0;fill-rule:evenodd;}.cls-6{fill:#fff;}</style></defs><title>20</title><g id="Слой_2" data-name="Слой 2"><g id="Слой_1-2" data-name="Слой 1"><path class="cls-1" d="M136,181.47,134.67,24.14c-1.46-6.6.77-16.93,5.92-21A14.14,14.14,0,0,1,149.53,0l88.52.89a13.91,13.91,0,0,1,12.77,8.25l9.94,21.44,115.86,1.27c15.41-1.15,24.9,11.06,23.66,22.24l-2.61,133.68c-1.75,15.74-15.71,27.55-29.15,27.41l-204.69-2.05C149.8,212.9,138.05,200.4,136,181.47Z"/><g class="cls-2"><path class="cls-1" d="M136,181.47,134.67,24.14c-1.46-6.6.77-16.93,5.92-21A14.14,14.14,0,0,1,149.53,0l88.52.89a13.91,13.91,0,0,1,12.77,8.25l9.94,21.44,115.86,1.27c15.41-1.15,24.9,11.06,23.66,22.24l-2.61,133.68c-1.75,15.74-15.71,27.55-29.15,27.41l-204.69-2.05C149.8,212.9,138.05,200.4,136,181.47Z"/></g><path class="cls-3" d="M133.7,179.12l.3-132c1.28-10.45,8.27-18.07,16.39-18l232.14,2.34c9.82.12,17.29,11.41,16,24l.5,122.1c-.31,30.47-16.61,39.4-30.49,39.27l-203.42-2C144.26,214.56,132.41,205.32,133.7,179.12Z"/><path class="cls-4" d="M333.78,202.91a31.15,31.15,0,0,1-7,4.44l-.42,7.74-12.59,2.16-3-7.14a31.54,31.54,0,0,1-8.13-1.84l-5.74,5.16-10.43-7.38,3-7.14a31.05,31.05,0,0,1-4.44-7l-7.72-.41-2.15-12.59,7.13-3a31.06,31.06,0,0,1,1.85-8.13L278.92,162l7.39-10.47,7.13,3a30.8,30.8,0,0,1,7.05-4.44l.41-7.72,12.6-2.15,2.95,7.13a31.15,31.15,0,0,1,8.13,1.85l5.74-5.17,10.44,7.39-3,7.13a31.18,31.18,0,0,1,4.44,7l7.71.41,2.16,12.6-7.14,3a31.54,31.54,0,0,1-1.84,8.13l5.16,5.74-7.38,10.43-7.14-2.95Zm-9.31-15.82a13.71,13.71,0,1,0-19.11,3.27h0a13.7,13.7,0,0,0,19.1-3.26Z"/><path class="cls-1" d="M402.66,51.69a10.06,10.06,0,0,1-2.18,2.6,13.81,13.81,0,0,1-14.86,2.23A14,14,0,0,1,387,30.41a14,14,0,0,1,17.79,9.17,13.69,13.69,0,0,1-.42,9.19,10.16,10.16,0,0,1-1.73,2.92,29.59,29.59,0,0,0,1.45-3,13.61,13.61,0,0,0,.16-8.91,13.23,13.23,0,0,0-3.19-5.28A13.51,13.51,0,0,0,395,30.94,13.35,13.35,0,0,0,378.16,44a12.87,12.87,0,0,0,.66,3.94,12.55,12.55,0,0,0,1.7,3.44,13.38,13.38,0,0,0,11.42,5.8,13.65,13.65,0,0,0,8.34-3.12A31.69,31.69,0,0,0,402.66,51.69Z"/><path class="cls-1" d="M412,67.51a2.27,2.27,0,0,1,.46.16l1.36.53,5.37,2.15H419l7.32-10.47v.25l-5.18-5.73-.1-.1.05-.13a30.63,30.63,0,0,0,1.8-8.07v-.16l.14-.06,7.13-3-.17.31c-.69-4-1.42-8.18-2.18-12.59l.29.25-7.72-.39h-.2l-.08-.18a30.55,30.55,0,0,0-4.4-7l-.13-.16.08-.19c.91-2.21,1.92-4.65,2.94-7.14l.12.42L408.28,8.84h.46L403,14l-.17.15-.21-.07a31.29,31.29,0,0,0-8-1.82h-.23l-.09-.21c-.92-2.24-1.93-4.67-3-7.14l.43.24-12.6,2.16.32-.37c-.13,2.44-.27,5.07-.41,7.72v.24l-.21.09a31.76,31.76,0,0,0-7,4.38h0l-.4.06h-.22l-.22-.09-.45-.19-.9-.37L367.85,18l-3.55-1.48.47-.14-7.39,10.44v-.49l5.16,5.75.16.17-.08.22a31.93,31.93,0,0,0-1.83,8v.23l-.21.09-7.14,3,.23-.41q1.11,6.45,2.14,12.6l-.31-.33,7.72.42h.21l.09.2a30.6,30.6,0,0,0,4.38,7l.13.16-.08.19q-1.5,3.66-3,7.12l-.11-.39,10.42,7.41h-.38l5.76-5.15.12-.12.16.06A30.57,30.57,0,0,0,389,74.44h.16l.06.14c1.07,2.6,2,4.94,2.93,7.15l-.25-.14,12.6-2.1-.14.16c.18-3.08.33-5.6.46-7.71v-.08h.07a31.43,31.43,0,0,0,5.44-3.1l1.25-.92a3.91,3.91,0,0,1,.41-.3,2,2,0,0,1-.37.35c-.26.22-.66.56-1.22,1a29.8,29.8,0,0,1-5.4,3.23L405,72c-.1,2.11-.22,4.64-.36,7.72v.14h-.14L392,82.08h-.19l-.07-.17c-.92-2.21-1.89-4.54-3-7.13l.22.16a31.24,31.24,0,0,1-8.2-1.84l.28,0-5.73,5.18-.18.16-.19-.14-10.4-7.37-.21-.15.1-.24c.95-2.32,1.93-4.69,2.94-7.14l.06.35a31.6,31.6,0,0,1-4.5-7.12l.3.2-7.72-.4h-.28l-.05-.29Q354.08,50,353,43.5l-.05-.3.27-.11,7.14-3-.23.32A31.49,31.49,0,0,1,362,32.18l.07.39-5.17-5.74-.2-.23.18-.25,7.38-10.44.18-.26.29.12,3.55,1.48L370,18l.9.37.45.19.22.09.12.05h.1l-.4.06h0a32.75,32.75,0,0,1,7.14-4.49l-.23.34c.14-2.65.28-5.28.41-7.72V6.57h.31l12.6-2.16.3,0,.12.29c1,2.46,2,4.9,2.95,7.14l-.32-.23a32.14,32.14,0,0,1,8.22,1.86l-.38.08,5.75-5.16.22-.19.24.17,10.41,7.37.23.16-.11.26-3,7.13,0-.35A31.14,31.14,0,0,1,420.7,30l-.27-.19,7.71.42h.25v.24c.75,4.42,1.46,8.63,2.13,12.6v.22l-.2.09-7.15,2.93.16-.21a31.47,31.47,0,0,1-1.88,8.18l-.05-.23,5.14,5.76.11.12-.1.13-7.44,10.39-.06.08H419l-5.27-2.25-1.35-.6Z"/><path class="cls-5" d="M132.25,146.1a42.16,42.16,0,0,1,6.46,9.07H149l3.84,16.65-9.3,4.48a41.8,41.8,0,0,1-1.84,11l7.33,7.27L140,209.05l-9.74-3.4a41.34,41.34,0,0,1-9.07,6.46v10.33l-16.64,3.83-4.49-9.3a41.13,41.13,0,0,1-11-1.84l-7.27,7.33L67.31,213.4l3.4-9.74a41.67,41.67,0,0,1-6.46-9.07H53.93l-3.78-16.66,9.3-4.49a41.94,41.94,0,0,1,1.84-11L54,155.17,63,140.69l9.74,3.4a41.67,41.67,0,0,1,9.07-6.46V127.31l16.65-3.84,4.48,9.3a41.94,41.94,0,0,1,11,1.84l7.27-7.32,14.48,9-3.4,9.74Zm-20.37,13.59a18.91,18.91,0,1,0,.06,0Z"/><path class="cls-5" d="M430.88,104.51a24.1,24.1,0,0,1,3.57,5h5.72l2.12,9.22-5.15,2.48a23.15,23.15,0,0,1-1,6.08l4.05,4-5,8-5.39-1.88a22.89,22.89,0,0,1-5,3.57v5.72l-9.22,2.12-2.48-5.14a23.22,23.22,0,0,1-6.08-1l-4,4-8-5,1.89-5.4a22.93,22.93,0,0,1-3.58-5h-5.71l-2.2-9.23,5.15-2.48a22.88,22.88,0,0,1,1-6.08l-4.06-4,5-8,5.39,1.88a23.62,23.62,0,0,1,5-3.58V94.13L412.12,92l2.52,5.1a23.29,23.29,0,0,1,6.08,1l4-4.06,8,5-1.88,5.39ZM419.6,112.1a10.14,10.14,0,1,0,3.22,14,10.14,10.14,0,0,0-3.22-14Z"/><path class="cls-4" d="M36.83,45.42a18.83,18.83,0,0,1,2.9,4.07h4.63L46.08,57l-4.17,2a18.77,18.77,0,0,1-.82,4.93l3.28,3.26-4.06,6.48-4.37-1.54A19.18,19.18,0,0,1,31.87,75v4.63L24.4,81.34l-2-4.17a19.21,19.21,0,0,1-4.93-.83l-3.26,3.29L7.72,75.57,9.24,71.2a19,19,0,0,1-2.89-4.07H1.72L0,59.67l4.17-2A19.21,19.21,0,0,1,5,52.74L1.71,49.48,5.78,43l4.37,1.53a18.43,18.43,0,0,1,4.06-2.9V37l7.46-1.72,2,4.17a18.77,18.77,0,0,1,4.93.82L31.86,37l6.5,4.06ZM27.7,51.53a8.22,8.22,0,1,0,2.61,11.33A8.22,8.22,0,0,0,27.7,51.53Z"/><path class="cls-6" d="M519.76,306.92c-.88-36.28-32.51-65.49-71.78-66.3v-.07a77.93,77.93,0,0,0-36.65,9.1,84.06,84.06,0,0,0,1.53-16c0-51.56-45.18-93.38-101-93.42-48.7,0-90.51,32-99.43,76.25-46.25-15.67-97.51,6.25-114.48,49"/><path class="cls-1" d="M519.76,306.92a63.86,63.86,0,0,0-7-25.69,68.33,68.33,0,0,0-16.43-20.65,73.43,73.43,0,0,0-22.71-13.15,77.23,77.23,0,0,0-25.73-4.57h-2.17l0-2.23v-.07L448,242.8a79.29,79.29,0,0,0-18.28,2.47A74.44,74.44,0,0,0,412.61,252l-4.95,2.71,1-5.62a79.23,79.23,0,0,0,1.19-18.32,85.26,85.26,0,0,0-2.74-18.12,86.84,86.84,0,0,0-16.6-32.43,96.33,96.33,0,0,0-28-23.49A102.5,102.5,0,0,0,327.87,145a106.72,106.72,0,0,0-36.66.7A103.26,103.26,0,0,0,257.06,159a94.34,94.34,0,0,0-27,24.71A88.2,88.2,0,0,0,215,217l-.63,2.94-2.78-1A94.53,94.53,0,0,0,146,220.12a89.56,89.56,0,0,0-28.49,17.77A82.12,82.12,0,0,0,98,265.49a80.69,80.69,0,0,1,7.57-15.41,82.86,82.86,0,0,1,10.73-13.5,90.23,90.23,0,0,1,28.53-19.46A97.2,97.2,0,0,1,213.27,214l-3.41,2a91.87,91.87,0,0,1,15.32-35.82,100.92,100.92,0,0,1,28.42-26.75A106.78,106.78,0,0,1,289.88,139a113.83,113.83,0,0,1,39.05-.93,108.33,108.33,0,0,1,37,12.72,101.56,101.56,0,0,1,29.81,25.31,93.2,93.2,0,0,1,17.35,35,88.87,88.87,0,0,1,2.65,19.46A84.9,84.9,0,0,1,414,250.16l-3.94-2.91A79.83,79.83,0,0,1,448,238.3l2.29,0,0,2.21v.07l-2.2-2.25A80.9,80.9,0,0,1,475,244a75.37,75.37,0,0,1,23.18,14.58,68.51,68.51,0,0,1,16,22A62.76,62.76,0,0,1,519.76,306.92Z"/></g></g></svg>