<svg xmlns="http://www.w3.org/2000/svg" viewBox="0 0 421.81 352.61"><defs><style>.cls-1{isolation:isolate;}.cls-2{fill:none;}.cls-3{fill:#fcfcfc;}.cls-4{fill:#407bff;}.cls-5{fill:#ff7673;}.cls-6{fill:#869097;opacity:0.32;mix-blend-mode:multiply;}.cls-7{fill:#b3b8b8;}.cls-8{fill:#889090;}.cls-9{fill:#fff;}</style></defs><title>30</title><g class="cls-1"><g id="Слой_2" data-name="Слой 2"><g id="Слой_1-2" data-name="Слой 1"><path class="cls-2" d="M203.14,214a31.15,31.15,0,0,1-7,4.44l-.42,7.74-12.59,2.16-3-7.14a31.54,31.54,0,0,1-8.13-1.84l-5.74,5.16-10.43-7.38,3-7.14a30.83,30.83,0,0,1-4.44-7l-7.72-.41L144.47,190l7.13-3a31.06,31.06,0,0,1,1.85-8.13l-5.17-5.74,7.39-10.47,7.13,3a30.8,30.8,0,0,1,7-4.44l.41-7.72,12.6-2.15,2.95,7.13a31.15,31.15,0,0,1,8.13,1.85l5.74-5.17,10.44,7.39-3,7.13a31.41,31.41,0,0,1,4.44,7l7.71.41,2.16,12.6-7.14,2.95a31.54,31.54,0,0,1-1.84,8.13l5.16,5.74-7.38,10.43-7.14-3Zm-9.31-15.82a13.71,13.71,0,1,0-19.11,3.27h0a13.7,13.7,0,0,0,19.1-3.26Z"/><path class="cls-3" d="M369.57,137.62c-88.54,31-162.35-31-250.9,0V18.36c88.55-31,162.36,31,250.9,0Z"/><path class="cls-4" d="M369.57,97.85c-88.54,31.05-162.35-31-250.9,0V58.13c88.55-31.05,162.36,31,250.9,0Z"/><path class="cls-5" d="M369.57,137.62c-88.54,31-162.35-31-250.9,0V97.9c88.55-31,162.36,31,250.9,0Z"/><path class="cls-6" d="M307.8,112.75c-4.61.22-9.24.28-13.86.18a211.35,211.35,0,0,1-69.16-13.46,180.49,180.49,0,0,1-18.11-8c-21.42-10.86-39.13-25.41-51.2-42-2.84-3.92-19.81-36-19.81-36a155.35,155.35,0,0,0-17,4.89V137.62c88.55-31,162.36,31,250.9,0V121.81c0-7.44,0-23.8,0-23.94,0,2.63-27.74,10.42-39.7,12.48A185.37,185.37,0,0,1,307.8,112.75Z"/><path class="cls-7" d="M114.7,264.73c1.46-3.17,2.43-7,3.66-9.39l.11-.19V10.64h-7.14v253A14.33,14.33,0,0,1,114.7,264.73Z"/><polygon class="cls-8" points="115.24 2.69 107.98 12.1 121.81 12.1 115.24 2.69"/><path class="cls-8" d="M120.08,3.71c0,2.05-2.32,3.71-5.18,3.71s-5.19-1.66-5.19-3.71S112,0,114.9,0,120.08,1.66,120.08,3.71Z"/><path class="cls-9" d="M421.81,352.61c-.88-36.27-32.51-65.48-71.78-66.3v-.07a78.05,78.05,0,0,0-36.65,9.1,83.14,83.14,0,0,0,1.52-16c.05-51.56-45.17-93.39-101-93.43-48.7,0-90.51,32-99.43,76.26C68.23,246.53,17,268.46,0,311.18"/><path class="cls-4" d="M421.81,352.61a63.8,63.8,0,0,0-7-25.69,68.39,68.39,0,0,0-16.42-20.65,73.72,73.72,0,0,0-22.71-13.14A77,77,0,0,0,350,288.56l-2.16,0,0-2.23v-.07l2.25,2.25A78.69,78.69,0,0,0,331.75,291a74,74,0,0,0-17.09,6.76l-5,2.72,1-5.62a79.82,79.82,0,0,0,1.19-18.32,85.35,85.35,0,0,0-2.74-18.13A86.91,86.91,0,0,0,292.57,226a96.37,96.37,0,0,0-28-23.49,102.59,102.59,0,0,0-34.66-11.78,107,107,0,0,0-36.66.71,103.38,103.38,0,0,0-34.16,13.28,94.63,94.63,0,0,0-27,24.72,88.12,88.12,0,0,0-15.06,33.34l-.63,2.93-2.78-1a94.6,94.6,0,0,0-65.57,1.13,89.69,89.69,0,0,0-28.5,17.76A82.34,82.34,0,0,0,0,311.18a80.57,80.57,0,0,1,7.56-15.4,82.61,82.61,0,0,1,10.74-13.5,89.9,89.9,0,0,1,28.53-19.46,97.05,97.05,0,0,1,68.49-3.09l-3.41,2a91.94,91.94,0,0,1,15.32-35.82,100.74,100.74,0,0,1,28.42-26.74,106.6,106.6,0,0,1,36.28-14.43,113.83,113.83,0,0,1,39-.92,108.31,108.31,0,0,1,37,12.71,101.85,101.85,0,0,1,29.81,25.32,93.2,93.2,0,0,1,17.35,35.05,88.7,88.7,0,0,1,2.65,19.45A84.94,84.94,0,0,1,316,295.86L312.1,293A79.93,79.93,0,0,1,350,284l2.28,0,0,2.21v.07l-2.2-2.25A81.15,81.15,0,0,1,377,289.7a75.16,75.16,0,0,1,23.17,14.59,68.1,68.1,0,0,1,16,22A62.76,62.76,0,0,1,421.81,352.61Z"/></g></g></g></svg>