<svg xmlns="http://www.w3.org/2000/svg" viewBox="0 0 451.29 324.38"><defs><style>.cls-1{fill:none;}.cls-2{fill:#8db6ff;}.cls-3{fill:#e0e0e0;fill-rule:evenodd;}.cls-4{fill:#455a64;}.cls-5{fill:#407bff;}.cls-6{fill:#fff;}</style></defs><title>10</title><g id="Слой_2" data-name="Слой 2"><g id="Слой_1-2" data-name="Слой 1"><path class="cls-1" d="M333.78,205.53a31.15,31.15,0,0,1-7,4.44l-.42,7.74-12.59,2.16-3-7.14a31.54,31.54,0,0,1-8.13-1.84l-5.74,5.16-10.43-7.38,3-7.14a30.83,30.83,0,0,1-4.44-7l-7.72-.41-2.15-12.59,7.13-3a31.15,31.15,0,0,1,1.85-8.13l-5.17-5.74,7.39-10.47,7.13,3a31.15,31.15,0,0,1,7.05-4.44l.41-7.72,12.6-2.15,2.95,7.13a31.15,31.15,0,0,1,8.13,1.85l5.74-5.17,10.44,7.39-3,7.13a31.41,31.41,0,0,1,4.44,7l7.71.41,2.16,12.6-7.14,2.95a31.54,31.54,0,0,1-1.84,8.13l5.16,5.74-7.38,10.43-7.14-2.95Zm-9.31-15.82A13.71,13.71,0,1,0,305.36,193h0a13.7,13.7,0,0,0,19.1-3.25Z"/><path class="cls-2" d="M324.47,189.71a10.27,10.27,0,0,1-2.18,2.6,13.81,13.81,0,0,1-14.86,2.23,14,14,0,1,1,19.19-16.94,13.75,13.75,0,0,1-.42,9.19,10.39,10.39,0,0,1-1.73,2.92,29.59,29.59,0,0,0,1.45-3,13.74,13.74,0,0,0,.16-8.91,13.42,13.42,0,0,0-9.27-8.84A13.35,13.35,0,0,0,300,182.05a12.57,12.57,0,0,0,.66,3.94,12.27,12.27,0,0,0,1.7,3.44A13.61,13.61,0,0,0,307.7,194a13.42,13.42,0,0,0,6.05,1.25,13.67,13.67,0,0,0,8.34-3.12A33.68,33.68,0,0,0,324.47,189.71Z"/><path class="cls-2" d="M333.78,205.53a2.51,2.51,0,0,1,.46.16l1.36.53,5.37,2.15h-.15l7.32-10.47v.25L343,192.42l-.1-.1.05-.13a31,31,0,0,0,1.8-8.07V184l.14-.06,7.13-3-.17.31c-.69-4-1.42-8.18-2.18-12.59l.29.25-7.72-.39H342l-.08-.18a31.25,31.25,0,0,0-4.4-7l-.13-.16.08-.19c.91-2.21,1.92-4.65,2.94-7.14l.12.42-10.44-7.37h.46L324.81,152l-.17.15-.21-.07a30.87,30.87,0,0,0-8-1.82h-.23l-.09-.21c-.92-2.24-1.93-4.67-3-7.14l.43.24-12.6,2.16.32-.37c-.13,2.44-.27,5.07-.41,7.72v.24l-.21.09a31.17,31.17,0,0,0-7,4.38h0l-.4.06H293l-.22-.09-.45-.19-.9-.37-1.79-.74-3.55-1.48.47-.14-7.39,10.44v-.49l5.16,5.75.16.17-.08.22a31.5,31.5,0,0,0-1.83,8v.23l-.21.09-7.14,3,.23-.41q1.09,6.45,2.14,12.6l-.31-.33,7.72.42h.21l.09.2a30.6,30.6,0,0,0,4.38,7l.13.16-.08.19q-1.5,3.66-3,7.12l-.11-.39,10.42,7.41h-.38l5.76-5.15.12-.12.16.06a31,31,0,0,0,8,1.85h.16l.06.14c1.07,2.6,2,4.94,2.93,7.15l-.25-.14,12.6-2.1-.14.16c.18-3.08.33-5.6.46-7.71v-.08h.07a31.81,31.81,0,0,0,5.44-3.1l1.25-.92a3.91,3.91,0,0,1,.41-.3,2.44,2.44,0,0,1-.37.35c-.26.22-.66.56-1.22,1a29.8,29.8,0,0,1-5.4,3.23l.07-.11c-.1,2.11-.22,4.64-.36,7.72v.14h-.14l-12.58,2.21h-.19l-.07-.17c-.92-2.21-1.89-4.54-3-7.13l.22.16a31.24,31.24,0,0,1-8.2-1.84l.28-.05-5.73,5.18-.18.16-.19-.14-10.4-7.37-.21-.15.1-.24c.95-2.32,1.93-4.69,2.94-7.14l.06.35a31.48,31.48,0,0,1-4.5-7.12l.3.2-7.72-.4H277l-.05-.29q-1.06-6.13-2.17-12.59l0-.3.27-.11,7.14-3-.23.32a31.09,31.09,0,0,1,1.86-8.23l.07.39-5.17-5.74-.2-.23.18-.25L286,153.93l.18-.26.29.12,3.55,1.48,1.79.74.9.37.45.19.22.09.12.05h.1l-.4.06h0a31.56,31.56,0,0,1,7.14-4.49l-.23.34c.14-2.65.28-5.28.41-7.72v-.31h.31l12.6-2.16.3-.05.12.29c1,2.46,2,4.9,2.95,7.14l-.32-.23a32.24,32.24,0,0,1,8.22,1.86l-.38.08,5.75-5.16.22-.19.24.17L341,153.71l.23.16-.11.26-3,7.13,0-.35a31.84,31.84,0,0,1,4.47,7.14l-.27-.19,7.71.42h.25v.24c.75,4.42,1.46,8.63,2.13,12.6v.22l-.2.09L345,184.36l.16-.21a32.3,32.3,0,0,1-1.88,8.18l-.05-.23,5.14,5.76.11.12-.1.13-7.44,10.39-.06.08h-.09l-5.27-2.25-1.35-.6Z"/><path class="cls-3" d="M321.51,110.4a44,44,0,0,1-10,6.28l-.58,10.91-17.81,3-4.18-10.1a44.44,44.44,0,0,1-11.49-2.6l-8.12,7.3L254.61,114.8l4.18-10.09a44,44,0,0,1-6.27-10l-10.91-.58-3.05-17.81,10.09-4.17a44.59,44.59,0,0,1,2.66-11.44L244,52.6,254.4,37.81,264.48,42a44.72,44.72,0,0,1,10-6.27l.58-10.91,17.82-3,4.17,10.1a44,44,0,0,1,11.49,2.6l8.12-7.3,14.75,10.44L327.2,47.71a44.4,44.4,0,0,1,6.28,10l10.91.58,3.05,17.81-10.13,4.12a44.44,44.44,0,0,1-2.6,11.49l7.3,8.12-10.44,14.75-10.09-4.18Zm-13.2-22.33a19.39,19.39,0,1,0-27,4.62l0,0A19.4,19.4,0,0,0,308.31,88.07Z"/><path class="cls-3" d="M97.81,107.12a41.67,41.67,0,0,1,6.46,9.07h10.32l3.84,16.65-9.3,4.48a41.53,41.53,0,0,1-1.84,11l7.33,7.27-9.06,14.48-9.74-3.4a41.67,41.67,0,0,1-9.07,6.46v10.33l-16.64,3.83L65.62,178a41.94,41.94,0,0,1-11-1.84l-7.27,7.33-14.48-9.06,3.4-9.74a41.67,41.67,0,0,1-6.46-9.07H19.49L15.71,139l9.3-4.49a41.94,41.94,0,0,1,1.84-11l-7.33-7.27,9.06-14.48,9.74,3.4a41.67,41.67,0,0,1,9.07-6.46V88.33L64,84.49l4.48,9.3a41.94,41.94,0,0,1,11,1.84l7.27-7.32,14.48,9-3.4,9.74ZM77.44,120.71a18.91,18.91,0,1,0,.06,0Z"/><path class="cls-3" d="M107.87,37.12a23.58,23.58,0,0,1,3.57,5h5.72l2.12,9.22-5.15,2.48a23.22,23.22,0,0,1-1,6.08l4.05,4-5,8L106.79,70a22.89,22.89,0,0,1-5,3.57v5.72l-9.22,2.12-2.48-5.14a23.64,23.64,0,0,1-6.08-1l-4,4-8-5,1.89-5.4a23.27,23.27,0,0,1-3.58-5H64.61l-2.2-9.23,5.15-2.48a23.22,23.22,0,0,1,1-6.08l-4.06-4,5-8L74.89,36a23.27,23.27,0,0,1,5-3.58V26.74l9.22-2.13,2.52,5.1a23.22,23.22,0,0,1,6.08,1l4-4.06,8,5L107.83,37ZM96.59,44.71a10.14,10.14,0,1,0,3.22,14,10.15,10.15,0,0,0-3.22-14Z"/><path class="cls-1" d="M36.83,48a18.83,18.83,0,0,1,2.9,4.07h4.63l1.72,7.47-4.17,2a18.77,18.77,0,0,1-.82,4.93l3.28,3.26-4.06,6.48-4.37-1.54a18.83,18.83,0,0,1-4.07,2.9v4.63L24.4,84l-2-4.17A19.21,19.21,0,0,1,17.47,79l-3.26,3.29L7.72,78.19l1.52-4.37a18.79,18.79,0,0,1-2.89-4.07H1.72L0,62.29l4.17-2A19.21,19.21,0,0,1,5,55.36L1.71,52.1l4.07-6.5,4.37,1.53a18.43,18.43,0,0,1,4.06-2.9V39.62l7.46-1.72,2,4.17a19.19,19.19,0,0,1,4.93.82l3.26-3.28,6.5,4.06ZM27.7,54.15a8.22,8.22,0,1,0,2.61,11.33A8.22,8.22,0,0,0,27.7,54.15Z"/><path class="cls-4" d="M294.4,276.93l1.05-247.22v0A28.94,28.94,0,0,0,266.65.61L133.79,0h0a28.94,28.94,0,0,0-29.06,28.82l-1,248.11Z"/><path class="cls-2" d="M286.65,279.54l.24-57.22L287.71,30a20.29,20.29,0,0,0-20.2-20.36l-25.76-.11a6.39,6.39,0,0,0-6.28,6.5v4.68a6.39,6.39,0,0,1-6.24,6.54h-.06L179,27a6.41,6.41,0,0,1-6.23-6.57V15.79a6.41,6.41,0,0,0-6.23-6.57h-9.06L134.9,9.11a20.27,20.27,0,0,0-20.35,20.15l-1.06,250.28Z"/><rect class="cls-5" x="168.82" y="82.38" width="71.57" height="71.57" rx="9.76"/><path class="cls-5" d="M198.18,178.1a1.33,1.33,0,1,1-1.33-1.33h0a1.32,1.32,0,0,1,1.33,1.31Z"/><path class="cls-6" d="M451.29,324.38c-.88-36.28-32.51-65.49-71.78-66.3V258a77.92,77.92,0,0,0-36.65,9.09,83.88,83.88,0,0,0,1.53-16c0-51.56-45.18-93.39-101-93.42-48.7,0-90.5,32-99.43,76.25-46.25-15.68-97.5,6.25-114.48,49"/><path class="cls-5" d="M451.29,324.38a63.86,63.86,0,0,0-7-25.69A68.33,68.33,0,0,0,427.91,278a73.43,73.43,0,0,0-22.71-13.15,77,77,0,0,0-25.73-4.57H377.3l0-2.24V258l2.25,2.24a79.86,79.86,0,0,0-18.29,2.48,74.44,74.44,0,0,0-17.09,6.77l-4.95,2.71,1-5.62a79.23,79.23,0,0,0,1.19-18.32,85.26,85.26,0,0,0-2.74-18.12,86.69,86.69,0,0,0-16.6-32.43,96.17,96.17,0,0,0-28-23.49,102.66,102.66,0,0,0-34.67-11.79,107,107,0,0,0-36.66.71,103.26,103.26,0,0,0-34.15,13.29,94.47,94.47,0,0,0-27,24.71,88.13,88.13,0,0,0-15.07,33.34l-.63,2.94-2.78-1a94.53,94.53,0,0,0-65.57,1.12,89.56,89.56,0,0,0-28.49,17.77,82.46,82.46,0,0,0-19.58,27.59,80.9,80.9,0,0,1,7.57-15.4A82.86,82.86,0,0,1,47.78,254a90.23,90.23,0,0,1,28.53-19.46,97.08,97.08,0,0,1,68.5-3.09l-3.42,2a91.89,91.89,0,0,1,15.32-35.81,101,101,0,0,1,28.42-26.75,106.85,106.85,0,0,1,36.29-14.43,114,114,0,0,1,39-.92,108.33,108.33,0,0,1,37,12.72,101.56,101.56,0,0,1,29.81,25.31,93.2,93.2,0,0,1,17.35,35.05,88.87,88.87,0,0,1,2.65,19.46,85.45,85.45,0,0,1-1.7,19.54l-3.94-2.91a79.77,79.77,0,0,1,37.92-8.95l2.29,0,0,2.21v.06l-2.2-2.24a80.9,80.9,0,0,1,26.94,5.64,75.18,75.18,0,0,1,23.18,14.58,68.51,68.51,0,0,1,16,22A62.76,62.76,0,0,1,451.29,324.38Z"/><path class="cls-6" d="M259,67.17a2.16,2.16,0,0,0-3-.57l-.15.11c-23.65,19.46-45.5,42.82-52.9,57.23l-19.14-21.69a4.35,4.35,0,0,0-6.14-.39l-4.37,3.82a4.36,4.36,0,0,0-.48,6.06l24.57,29.64a4.16,4.16,0,0,0,3.21,1.51h6a4.22,4.22,0,0,0,3.71-2.26c15.64-30,29.73-47,50.88-67.1a2.16,2.16,0,0,0,.31-2.78Z"/></g></g></svg>